
<svg id="hero-mobile" viewBox="0 0 3000 1575" version="1.1" xmlns="http://www.w3.org/2000/svg" xmlns:xlink="http://www.w3.org/1999/xlink">
    <defs>
        <rect id="path-r14ozuxzx1-1" x="0" y="0" width="3000" height="1575"></rect>
    </defs>
    <g id="Page-1" stroke="none" stroke-width="1" fill="none" fill-rule="evenodd">
        <g id="BWatson_OG_03">
            <mask id="mask-r14ozuxzx1-2" fill="white">
                <use xlink:href="#path-r14ozuxzx1-1"></use>
            </mask>
            <g id="Rectangle"></g>
            <g id="Group" mask="url(#mask-r14ozuxzx1-2)">
                <g transform="translate(-157.55, -157.55)">
                    <rect id="Rectangle" stroke="#465362" stroke-width="10" fill="#BBDEFB" fill-rule="nonzero" stroke-linecap="round" stroke-linejoin="round" x="58.65" y="17.18" width="3197.81" height="1847.5"></rect>
                    <rect id="Rectangle" stroke="#465362" stroke-width="10" fill="#FFE0B2" fill-rule="nonzero" stroke-linecap="round" stroke-linejoin="round" x="58.65" y="1216.84" width="3197.81" height="647.85"></rect>
                    <circle id="Oval" stroke="#465362" stroke-width="10" fill="#81C784" fill-rule="nonzero" stroke-linecap="round" stroke-linejoin="round" cx="2694.33" cy="828.5" r="51.45"></circle>
                    <line x1="2694.33" y1="777.04" x2="2694.33" y2="5.68434189e-14" id="Path" stroke="#465362" stroke-width="10" fill="none" stroke-linecap="round" stroke-linejoin="round"></line>
                    <circle id="Oval" stroke="#465362" stroke-width="10" fill="#BB9C87" fill-rule="nonzero" stroke-linecap="round" stroke-linejoin="round" cx="2942.77" cy="828.5" r="91.14"></circle>
                    <ellipse id="Oval" stroke="#465362" stroke-width="10" fill="#ECEFF1" fill-rule="nonzero" stroke-linecap="round" stroke-linejoin="round" transform="translate(2942.7393, 828.4803) rotate(-72.02) translate(-2942.7393, -828.4803)" cx="2942.73932" cy="828.480294" rx="62.9" ry="166.44"></ellipse>
                    <path d="M3029.46,856.63 C3013.92,904.51 2840.54,848.24 2856.08,800.36 C2871.62,752.48 2923.03,726.27 2970.9,741.81 C3018.78,757.35 3044.99,808.76 3029.45,856.63 L3029.46,856.63 Z" id="Path" stroke="#465362" stroke-width="10" fill="#BB9C87" fill-rule="nonzero" stroke-linecap="round" stroke-linejoin="round"></path>
                    <line x1="2944.52" y1="737.33" x2="2944.52" y2="24.53" id="Path" stroke="#465362" stroke-width="10" fill="none" stroke-linecap="round" stroke-linejoin="round"></line>
                    <circle id="Oval" stroke="#465362" stroke-width="10" fill="#FF8080" fill-rule="nonzero" stroke-linecap="round" stroke-linejoin="round" cx="2869.23" cy="658.59" r="42.66"></circle>
                    <line x1="2869.23" y1="615.93" x2="2869.23" y2="1.07" id="Path" stroke="#465362" stroke-width="10" fill="none" stroke-linecap="round" stroke-linejoin="round"></line>
                    <line x1="2716.21" y1="562.46" x2="2716.21" y2="57.97" id="Path" stroke="#465362" stroke-width="10" fill="none" stroke-linecap="round" stroke-linejoin="round"></line>
                    <circle id="Oval" stroke="#465362" stroke-width="10" fill="#FFF176" fill-rule="nonzero" stroke-linecap="round" stroke-linejoin="round" cx="2759.19" cy="405.21" r="134.15"></circle>
                    <circle id="Oval" stroke="#465362" stroke-width="10" fill="#CFD8DC" fill-rule="nonzero" stroke-linecap="round" stroke-linejoin="round" cx="2575.72" cy="501.65" r="43.99"></circle>
                    <path d="M2578.73,689.91 C2578.73,700.64 2576.2,710.77 2571.69,719.75 C2567.73,727.67 2562.24,734.69 2555.61,740.42 C2543.92,750.52 2528.68,756.63 2512.01,756.63 C2483.82,756.63 2459.71,739.15 2449.94,714.43 C2447.74,708.85 2446.26,702.91 2445.63,696.71 C2445.41,694.47 2445.29,692.21 2445.29,689.91 C2445.29,686.81 2445.5,683.75 2445.92,680.76 C2447.41,669.85 2451.54,659.78 2457.65,651.22 C2469.75,634.26 2489.59,623.2 2512.01,623.2 C2534.43,623.2 2554.27,634.26 2566.37,651.22 C2572.48,659.78 2576.61,669.85 2578.1,680.76 C2578.52,683.75 2578.73,686.81 2578.73,689.91 L2578.73,689.91 Z" id="Path" stroke="#465362" stroke-width="10" fill="#64B5F6" fill-rule="nonzero" stroke-linecap="round" stroke-linejoin="round"></path>
                    <path d="M3058.14,533.16 C3058.14,543.43 3055.84,553.15 3051.71,561.84 C3046.81,572.21 3039.32,581.12 3030.08,587.73 C3019.09,595.6 3005.61,600.24 2991.06,600.24 C2976.51,600.24 2963.03,595.6 2952.04,587.73 C2941.07,579.86 2932.56,568.77 2927.91,555.84 C2925.36,548.76 2923.98,541.13 2923.98,533.16 C2923.98,510.67 2935.06,490.76 2952.05,478.59 C2957.85,474.43 2964.34,471.18 2971.31,469.04 C2977.56,467.12 2984.19,466.09 2991.06,466.09 C3005.61,466.09 3019.08,470.73 3030.07,478.6 C3039.31,485.22 3046.8,494.12 3051.7,504.49 C3055.82,513.19 3058.13,522.91 3058.13,533.17 L3058.14,533.16 Z" id="Path" stroke="#465362" stroke-width="10" fill="#64B5F6" fill-rule="nonzero" stroke-linecap="round" stroke-linejoin="round"></path>
                    <path d="M2986.9,505.67 C2986.9,533.74 2964.15,556.49 2936.08,556.49 C2933.3,556.49 2930.57,556.26 2927.92,555.84 C2925.37,548.76 2923.99,541.13 2923.99,533.16 C2923.99,510.67 2935.07,490.76 2952.06,478.59 C2957.86,474.43 2964.35,471.18 2971.32,469.04 C2980.93,478.28 2986.91,491.28 2986.91,505.67 L2986.9,505.67 Z" id="Path" stroke="#465362" stroke-width="10" fill="#81C784" fill-rule="nonzero" stroke-linecap="round" stroke-linejoin="round"></path>
                    <path d="M3058.14,533.16 C3058.14,543.43 3055.84,553.15 3051.71,561.84 C3040.46,557.19 3032.53,546.1 3032.53,533.16 C3032.53,520.22 3040.46,509.14 3051.71,504.48 C3055.83,513.18 3058.14,522.9 3058.14,533.16 Z" id="Path" stroke="#465362" stroke-width="10" fill="#81C784" fill-rule="nonzero" stroke-linecap="round" stroke-linejoin="round"></path>
                    <path d="M3030.08,478.59 C3019.09,486.46 3005.62,491.1 2991.07,491.1 C2976.52,491.1 2963.05,486.46 2952.06,478.59 C2963.05,470.72 2976.52,466.08 2991.07,466.08 C3005.62,466.08 3019.09,470.72 3030.08,478.59 Z" id="Path" stroke="#465362" stroke-width="10" fill="#FFFFFF" fill-rule="nonzero" stroke-linecap="round" stroke-linejoin="round"></path>
                    <path d="M3030.08,587.73 C3019.09,595.6 3005.61,600.24 2991.06,600.24 C2976.51,600.24 2963.03,595.6 2952.04,587.73 C2963.03,579.85 2976.51,575.22 2991.06,575.22 C3005.61,575.22 3019.09,579.86 3030.08,587.73 Z" id="Path" stroke="#465362" stroke-width="10" fill="#FFFFFF" fill-rule="nonzero" stroke-linecap="round" stroke-linejoin="round"></path>
                    <path d="M2805.47,651.72 C2805.47,701.02 2765.51,740.98 2716.21,740.98 C2691.74,740.98 2669.57,731.13 2653.45,715.17 C2645.43,707.26 2638.91,697.82 2634.35,687.35 C2629.59,676.44 2626.95,664.39 2626.95,651.72 C2626.95,637.31 2630.36,623.7 2636.44,611.65 C2641.81,600.97 2649.27,591.51 2658.29,583.82 C2673.87,570.51 2694.1,562.47 2716.21,562.47 C2738.32,562.47 2758.54,570.51 2774.13,583.82 C2783.15,591.51 2790.61,600.97 2795.98,611.65 C2802.06,623.7 2805.47,637.32 2805.47,651.72 L2805.47,651.72 Z" id="Path" stroke="#465362" stroke-width="10" fill="#FFCC80" fill-rule="nonzero" stroke-linecap="round" stroke-linejoin="round"></path>
                    <ellipse id="Oval" stroke="#465362" stroke-width="10" fill="#FF8080" fill-rule="nonzero" stroke-linecap="round" stroke-linejoin="round" cx="2744.55" cy="677.6" rx="30.61" ry="13.92"></ellipse>
                    <path d="M2795.98,611.64 L2636.44,611.64 C2641.81,600.96 2649.27,591.5 2658.29,583.81 L2774.13,583.81 C2783.15,591.5 2790.61,600.96 2795.98,611.64 Z" id="Path" stroke="#465362" stroke-width="10" fill="#FFB74D" fill-rule="nonzero" stroke-linecap="round" stroke-linejoin="round"></path>
                    <path d="M2696.12,701.25 C2696.12,705.09 2694.57,708.57 2692.05,711.1 C2689.52,713.62 2686.05,715.17 2682.2,715.17 L2653.44,715.17 C2645.42,707.26 2638.9,697.82 2634.34,687.35 L2682.2,687.35 C2689.89,687.35 2696.12,693.58 2696.12,701.26 L2696.12,701.25 Z" id="Path" stroke="#465362" stroke-width="10" fill="#FFB74D" fill-rule="nonzero" stroke-linecap="round" stroke-linejoin="round"></path>
                    <line x1="2759.19" y1="271.06" x2="2759.19" y2="33.45" id="Path" stroke="#465362" stroke-width="10" fill="none" stroke-linecap="round" stroke-linejoin="round"></line>
                    <line x1="2991.06" y1="466.08" x2="2991.06" y2="73.58" id="Path" stroke="#465362" stroke-width="10" fill="none" stroke-linecap="round" stroke-linejoin="round"></line>
                    <line x1="2575.72" y1="454.74" x2="2575.72" y2="57.78" id="Path" stroke="#465362" stroke-width="10" fill="none" stroke-linecap="round" stroke-linejoin="round"></line>
                    <line x1="2512.01" y1="623.2" x2="2512.01" y2="57.78" id="Path" stroke="#465362" stroke-width="10" fill="none" stroke-linecap="round" stroke-linejoin="round"></line>
                    <polygon id="Path" stroke="#465362" stroke-width="10" fill="#FFB74D" fill-rule="nonzero" stroke-linecap="round" stroke-linejoin="round" points="396.92 816.34 343.43 816.34 289.95 816.34 289.95 543.41 311.22 425.22 375.65 425.22 396.92 543.41"></polygon>
                    <path d="M337.11,887.67 L309.96,887.67 C309.96,871.63 316.04,858.63 323.54,858.63 C331.04,858.63 337.12,871.63 337.12,887.67 L337.11,887.67 Z" id="Path" stroke="#465362" stroke-width="10" fill="#465362" fill-rule="nonzero" stroke-linecap="round" stroke-linejoin="round"></path>
                    <path d="M377.25,887.67 L350.1,887.67 C350.1,871.63 356.18,858.63 363.68,858.63 C371.18,858.63 377.26,871.63 377.26,887.67 L377.25,887.67 Z" id="Path" stroke="#465362" stroke-width="10" fill="#465362" fill-rule="nonzero" stroke-linecap="round" stroke-linejoin="round"></path>
                    <path d="M361.95,290.55 C359.35,268.28 355.83,238 353.22,215.64 C352.64,210.67 348.44,206.93 343.44,206.93 L343.44,206.93 C338.44,206.93 334.23,210.68 333.66,215.64 L324.93,290.54 C316.49,296.41 310.96,306.17 310.96,317.22 L310.96,425.21 L375.92,425.21 L375.92,317.22 C375.92,306.16 370.39,296.4 361.95,290.54 L361.95,290.55 Z" id="Path" stroke="#465362" stroke-width="10" fill="#FFFFFF" fill-rule="nonzero" stroke-linecap="round" stroke-linejoin="round"></path>
                    <path d="M289.95,816.34 L396.92,816.34 L396.92,829.51 C396.92,846.32 383.27,859.97 366.46,859.97 L320.4,859.97 C303.59,859.97 289.94,846.32 289.94,829.51 L289.94,816.34 L289.94,816.34 L289.95,816.34 Z" id="Path" stroke="#465362" stroke-width="10" fill="#FFFFFF" fill-rule="nonzero" stroke-linecap="round" stroke-linejoin="round"></path>
                    <circle id="Oval" stroke="none" fill="#1565C0" fill-rule="nonzero" cx="343.43" cy="361.23" r="19.75"></circle>
                    <rect id="Rectangle" stroke="none" fill="#465362" fill-rule="nonzero" x="326.26" y="559.66" width="17.17" height="17.17"></rect>
                    <rect id="Rectangle" stroke="none" fill="#465362" fill-rule="nonzero" x="343.43" y="576.84" width="17.17" height="17.17"></rect>
                    <rect id="Rectangle" stroke="none" fill="#FFFFFF" fill-rule="nonzero" transform="translate(352.025, 568.255) rotate(180) translate(-352.025, -568.255)" x="343.44" y="559.67" width="17.17" height="17.17"></rect>
                    <rect id="Rectangle" stroke="none" fill="#FFFFFF" fill-rule="nonzero" transform="translate(334.845, 585.425) rotate(180) translate(-334.845, -585.425)" x="326.26" y="576.84" width="17.17" height="17.17"></rect>
                    <rect id="Rectangle" stroke="none" fill="#465362" fill-rule="nonzero" x="326.26" y="751.43" width="17.17" height="17.17"></rect>
                    <rect id="Rectangle" stroke="none" fill="#465362" fill-rule="nonzero" x="343.43" y="768.6" width="17.17" height="17.17"></rect>
                    <rect id="Rectangle" stroke="none" fill="#FFFFFF" fill-rule="nonzero" transform="translate(352.025, 760.015) rotate(180) translate(-352.025, -760.015)" x="343.44" y="751.43" width="17.17" height="17.17"></rect>
                    <rect id="Rectangle" stroke="none" fill="#FFFFFF" fill-rule="nonzero" transform="translate(334.845, 777.195) rotate(180) translate(-334.845, -777.195)" x="326.26" y="768.61" width="17.17" height="17.17"></rect>
                    <polygon id="Path" stroke="#465362" stroke-width="10" fill="#FFFFFF" fill-rule="nonzero" stroke-linecap="round" stroke-linejoin="round" points="282.31 868.04 244.4 868.04 239.35 892.7 287.36 892.7"></polygon>
                    <polygon id="Path" stroke="#465362" stroke-width="10" fill="#FFFFFF" fill-rule="nonzero" stroke-linecap="round" stroke-linejoin="round" points="289.95 838.15 236.76 838.15 229.67 872.76 297.04 872.76"></polygon>
                    <polygon id="Path" stroke="#465362" stroke-width="10" fill="#FFFFFF" fill-rule="nonzero" stroke-linecap="round" stroke-linejoin="round" points="263.35 565.81 236.76 630.08 236.76 838.16 289.95 838.16 289.95 630.08"></polygon>
                    <line x1="236.76" y1="632.92" x2="289.95" y2="632.92" id="Path" stroke="#465362" stroke-width="10" fill="none" stroke-linecap="round" stroke-linejoin="round"></line>
                    <line x1="236.76" y1="734.12" x2="289.95" y2="734.12" id="Path" stroke="#465362" stroke-width="10" fill="none" stroke-linecap="round" stroke-linejoin="round"></line>
                    <line x1="236.76" y1="838.16" x2="289.95" y2="838.16" id="Path" stroke="#465362" stroke-width="10" fill="none" stroke-linecap="round" stroke-linejoin="round"></line>
                    <polygon id="Path" stroke="#465362" stroke-width="10" fill="#FFFFFF" fill-rule="nonzero" stroke-linecap="round" stroke-linejoin="round" points="442.47 868.04 404.56 868.04 399.5 892.7 447.52 892.7"></polygon>
                    <polygon id="Path" stroke="#465362" stroke-width="10" fill="#FFFFFF" fill-rule="nonzero" stroke-linecap="round" stroke-linejoin="round" points="450.11 838.15 396.92 838.15 389.83 872.76 457.19 872.76"></polygon>
                    <polygon id="Path" stroke="#465362" stroke-width="10" fill="#FFFFFF" fill-rule="nonzero" stroke-linecap="round" stroke-linejoin="round" points="423.51 565.81 396.92 630.08 396.92 838.16 450.11 838.16 450.11 630.08"></polygon>
                    <line x1="396.92" y1="632.92" x2="450.11" y2="632.92" id="Path" stroke="#465362" stroke-width="10" fill="none" stroke-linecap="round" stroke-linejoin="round"></line>
                    <line x1="396.92" y1="734.12" x2="450.11" y2="734.12" id="Path" stroke="#465362" stroke-width="10" fill="none" stroke-linecap="round" stroke-linejoin="round"></line>
                    <line x1="396.92" y1="838.16" x2="450.11" y2="838.16" id="Path" stroke="#465362" stroke-width="10" fill="none" stroke-linecap="round" stroke-linejoin="round"></line>
                    <path d="M-5.68434189e-14,892.7 L843.96,892.7 C858.41,892.7 870.13,904.43 870.13,918.87 L870.13,918.87 C870.13,933.32 858.4,945.04 843.96,945.04 L-5.68434189e-14,945.04 L-5.68434189e-14,892.69 L-5.68434189e-14,892.69 L-5.68434189e-14,892.7 Z" id="Path" stroke="#465362" stroke-width="10" fill="#FFFFFF" fill-rule="nonzero" stroke-linecap="round" stroke-linejoin="round"></path>
                    <path d="M1904.67,1343.62 L1904.67,1360.64 C1904.67,1371.3 1896.08,1380.91 1884.37,1380.91 L1398.59,1380.91 C1386.88,1380.91 1378.29,1371.3 1378.29,1360.64 L1378.29,1343.62 C1378.29,1340.82 1378.88,1337.94 1380.17,1335.15 L1416.29,1256.61 C1419.6,1249.41 1426.8,1244.8 1434.72,1244.8 L1848.24,1244.8 C1856.16,1244.8 1863.35,1249.41 1866.66,1256.61 L1902.79,1335.15 C1904.08,1337.94 1904.67,1340.82 1904.67,1343.62 L1904.67,1343.62 Z" id="Path" stroke="#465362" stroke-width="10" fill="#64B5F6" fill-rule="nonzero" stroke-linecap="round" stroke-linejoin="round"></path>
                    <rect id="Rectangle" stroke="#465362" stroke-width="10" fill="#64B5F6" fill-rule="nonzero" stroke-linecap="round" stroke-linejoin="round" x="1478.34" y="930.63" width="320.39" height="357.55"></rect>
                    <path d="M2271.84,349.73 L2271.84,1122.23 C2271.84,1148.42 2250.61,1169.65 2224.42,1169.65 L1052.64,1169.65 C1026.44,1169.65 1005.21,1148.42 1005.21,1122.23 L1005.21,349.73 C1005.21,323.54 1026.44,302.3 1052.64,302.3 L2224.42,302.3 C2250.61,302.3 2271.84,323.54 2271.84,349.73 Z" id="Path" stroke="#465362" stroke-width="10" fill="#64B5F6" fill-rule="nonzero" stroke-linecap="round" stroke-linejoin="round"></path>
                    <path d="M2271.84,349.73 L2271.84,1038.67 L1005.21,1038.67 L1005.21,349.73 C1005.21,323.54 1026.44,302.3 1052.64,302.3 L2224.42,302.3 C2250.61,302.3 2271.84,323.54 2271.84,349.73 Z" id="Path" stroke="#465362" stroke-width="10" fill="#FFFFFF" fill-rule="nonzero" stroke-linecap="round" stroke-linejoin="round"></path>
                    <rect id="Rectangle" stroke="#465362" stroke-width="10" fill="#FF8080" fill-rule="nonzero" stroke-linecap="round" stroke-linejoin="round" transform="translate(1638.535, 668.87) rotate(90) translate(-1638.535, -668.87)" x="1318.735" y="82.325" width="639.6" height="1173.09"></rect>
                    <path d="M2067.89,1590.51 L2009.02,1462.54 C2003.62,1450.82 1991.9,1443.3 1979,1443.3 L1298.06,1443.3 C1285.16,1443.3 1273.44,1450.81 1268.04,1462.54 L1209.17,1590.51 C1207.07,1595.06 1206.1,1599.75 1206.1,1604.32 L1206.1,1611.17 C1206.1,1628.56 1220.11,1644.21 1239.19,1644.21 L2037.86,1644.21 C2056.94,1644.21 2070.95,1628.56 2070.95,1611.17 L2070.95,1604.32 C2070.95,1599.74 2069.98,1595.06 2067.88,1590.51 L2067.89,1590.51 Z" id="Path" stroke="#465362" stroke-width="10" fill="#64B5F6" fill-rule="nonzero" stroke-linecap="round" stroke-linejoin="round"></path>
                    <path d="M2035.31,1568.41 L1976.93,1441.49 C1975.53,1438.43 1972.45,1436.47 1969.09,1436.47 L1307.98,1436.47 C1304.62,1436.47 1301.54,1438.44 1300.14,1441.49 L1241.76,1568.41 C1241.17,1569.71 1240.94,1570.92 1240.94,1572.02 L1240.94,1586.47 C1240.94,1588.51 1241.72,1590.14 1242.34,1591.09 C1243.29,1592.58 1245.49,1595.06 1249.6,1595.06 L2027.48,1595.06 C2031.59,1595.06 2033.78,1592.57 2034.74,1591.09 C2035.36,1590.14 2036.14,1588.51 2036.14,1586.47 L2036.14,1572.02 C2036.14,1570.92 2035.91,1569.71 2035.32,1568.41 L2035.31,1568.41 Z" id="Path" stroke="#465362" stroke-width="10" fill="#FFFFFF" fill-rule="nonzero" stroke-linecap="round" stroke-linejoin="round"></path>
                    <rect id="Rectangle" stroke="#465362" stroke-width="10" fill="#FFF59D" fill-rule="nonzero" stroke-linecap="round" stroke-linejoin="round" x="506.13" y="276.82" width="106.33" height="615.88"></rect>
                    <line x1="506.13" y1="310.49" x2="612.46" y2="310.49" id="Path" stroke="#465362" stroke-width="10" fill="none" stroke-linecap="round" stroke-linejoin="round"></line>
                    <line x1="506.13" y1="855.46" x2="612.46" y2="855.46" id="Path" stroke="#465362" stroke-width="10" fill="none" stroke-linecap="round" stroke-linejoin="round"></line>
                    <path d="M545.16,509.38 C541.12,509.31 540.09,509.09 538.33,507.98 C536.05,506.51 534.73,504.01 534.73,501.29 C534.73,498.57 536.05,496 538.33,494.53 C540.09,493.43 541.49,493.13 545.16,493.13 L574.7,493.13 C578.15,493.13 579.62,493.5 581.31,494.82 C583.29,496.36 584.47,498.71 584.47,501.21 C584.47,503.71 583.22,506.28 581.31,507.75 C579.55,509.07 578.52,509.37 574.33,509.37 L567.42,509.37 L567.42,519.21 L574.11,519.21 C578,519.21 579.47,519.5 581.31,520.9 C583.29,522.37 584.47,524.65 584.47,527.15 C584.47,529.65 583.29,532.15 581.38,533.61 C579.76,534.86 577.85,535.37 574.69,535.37 L545.01,535.37 C541.63,535.37 540.31,535.08 538.62,534.05 C536.2,532.58 534.73,530.01 534.73,527.22 C534.73,524.65 535.91,522.22 537.96,520.75 C539.72,519.5 541.12,519.21 545.01,519.21 L552.06,519.21 L552.06,509.37 L545.15,509.37 L545.16,509.38 Z" id="Path" stroke="none" fill="#465362" fill-rule="nonzero"></path>
                    <path d="M569.04,548.91 C569.04,546.12 569.7,544.28 571.17,542.81 C572.71,541.34 574.55,540.53 576.53,540.53 C579.32,540.53 582.26,542.37 583.29,544.72 C584.02,546.41 584.1,547.07 584.1,553.46 L584.1,569.77 C584.1,572.803333 584.05,574.64 583.95,575.28 C583.44,579.17 580.42,581.89 576.6,581.89 C574.47,581.89 572.27,580.86 570.8,579.25 C569.62,578 569.04,575.94 569.04,573 L569.04,569.4 L544.65,569.4 C541.71,569.4 540.09,569.03 538.4,568 C536.05,566.53 534.73,564.11 534.73,561.31 C534.73,558.51 535.98,556.17 538.11,554.62 C539.8,553.52 541.2,553.22 544.5,553.22 L569.04,553.22 L569.04,548.89 L569.04,548.91 Z" id="Path" stroke="none" fill="#465362" fill-rule="nonzero"></path>
                    <path d="M580.13,619.22 C582.7,620.47 584.46,623.33 584.46,626.35 C584.46,628.33 583.58,630.54 582.26,631.93 C580.94,633.33 579.54,633.99 576.9,634.43 L545.31,640.01 C544.28,640.23 543.33,640.3 542.59,640.3 C538.18,640.3 534.73,636.77 534.73,632.37 C534.73,628.26 537.23,625.02 540.9,624.36 L550.08,622.52 L541.41,619.36 C537,617.74 534.72,614.88 534.72,611.06 C534.72,607.24 536.78,604.52 541.33,602.83 L550.07,599.6 L542.28,598.28 C537.58,597.47 534.71,594.39 534.71,590.2 C534.71,585.42 538.38,582.04 543.53,582.04 C544.19,582.04 544.85,582.11 545.51,582.19 L576.88,587.77 C581.58,588.58 584.45,591.52 584.45,595.7 C584.45,599.15 582.32,602.39 579.01,603.78 L562.77,611.05 L580.11,619.21 L580.13,619.22 Z" id="Path" stroke="none" fill="#465362" fill-rule="nonzero"></path>
                    <path d="M550.23,669.98 C550.23,672.7 549.79,674.24 548.76,675.71 C547.36,677.62 545.09,678.8 542.74,678.8 C540.61,678.8 538.33,677.84 536.94,676.3 C535.62,674.83 535.1,673.14 535.1,670.35 L535.1,654.92 C535.1,651.69 535.91,649.56 537.67,648.09 C539.87,646.11 540.98,645.89 547.74,645.89 L575.37,645.89 C580.88,645.89 584.48,649.05 584.48,653.9 C584.48,656.4 583.3,658.82 581.54,660.22 C579.56,661.69 578.09,662.06 573.46,662.06 L550.24,662.06 L550.24,669.99 L550.23,669.98 Z" id="Path" stroke="none" fill="#465362" fill-rule="nonzero"></path>
                    <rect id="Rectangle" stroke="#465362" stroke-width="10" fill="#A5D6A7" fill-rule="nonzero" stroke-linecap="round" stroke-linejoin="round" x="612.46" y="276.82" width="106.33" height="615.88"></rect>
                    <line x1="612.46" y1="310.49" x2="718.79" y2="310.49" id="Path" stroke="#465362" stroke-width="10" fill="none" stroke-linecap="round" stroke-linejoin="round"></line>
                    <line x1="612.46" y1="855.46" x2="718.79" y2="855.46" id="Path" stroke="#465362" stroke-width="10" fill="none" stroke-linecap="round" stroke-linejoin="round"></line>
                    <path d="M646.64,562.5 C642.53,557.72 640.17,551.63 640.17,545.38 C640.17,531.05 651.63,519.45 665.81,519.45 C679.99,519.45 691.6,531.13 691.6,545.46 C691.6,551.41 689.54,557.14 685.65,561.84 C682.49,565.81 679.18,567.79 675.95,567.79 C671.54,567.79 667.87,564.19 667.87,559.71 C667.87,557.8 668.68,555.74 669.85,554.64 L672.42,552.29 C674.33,550.53 675.36,547.96 675.36,545.31 C675.36,539.95 671.17,535.69 665.81,535.69 C660.45,535.69 656.26,539.95 656.26,545.24 C656.26,547.88 657.44,550.53 659.49,552.44 L661.25,554.13 C662.65,555.45 663.6,557.66 663.6,559.71 C663.6,563.97 659.85,567.79 655.67,567.79 C652.73,567.79 649.65,565.95 646.63,562.5 L646.64,562.5 Z" id="Path" stroke="none" fill="#465362" fill-rule="nonzero"></path>
                    <path d="M652.59,572.05 C656.7,572.05 659.94,575.28 659.94,579.4 C659.94,581.38 659.28,583.07 657.59,585.13 C654.87,588.66 654.58,589.1 654.58,590.27 C654.58,591.52 655.46,592.33 656.71,592.33 C657.59,592.33 658.18,591.96 658.77,591.08 C659.06,590.64 659.21,590.42 660.17,587.85 C660.61,586.53 661.05,585.21 661.57,583.88 C664.07,576.75 668.7,573.23 675.53,573.23 C685.08,573.23 691.62,580.58 691.62,591.23 C691.62,600.05 686.92,606.95 680.89,606.95 C677,606.95 674.2,604.31 674.2,600.63 C674.2,598.43 674.93,596.66 676.99,593.94 C678.39,592.25 678.75,591.44 678.75,590.56 C678.75,589.53 677.87,588.65 676.84,588.65 C675.37,588.65 674.71,589.68 673.46,593.5 C672.21,597.69 670.23,601.66 668.32,603.93 C665.82,606.94 661.41,608.85 656.79,608.85 C652.17,608.85 648.12,607.16 645.11,604.22 C641.8,600.91 640.19,596.51 640.19,590.48 C640.19,580.05 645.63,572.04 652.61,572.04 L652.59,572.05 Z" id="Path" stroke="none" fill="#465362" fill-rule="nonzero"></path>
                    <path d="M652.59,613.49 C656.7,613.49 659.94,616.72 659.94,620.84 C659.94,622.82 659.28,624.51 657.59,626.57 C654.87,630.1 654.58,630.54 654.58,631.71 C654.58,632.96 655.46,633.77 656.71,633.77 C657.59,633.77 658.18,633.4 658.77,632.52 C659.06,632.08 659.21,631.86 660.17,629.29 C660.61,627.97 661.05,626.65 661.57,625.32 C664.07,618.19 668.7,614.67 675.53,614.67 C685.08,614.67 691.62,622.02 691.62,632.67 C691.62,641.49 686.92,648.39 680.89,648.39 C677,648.39 674.2,645.75 674.2,642.07 C674.2,639.87 674.93,638.1 676.99,635.38 C678.39,633.69 678.75,632.88 678.75,632 C678.75,630.97 677.87,630.09 676.84,630.09 C675.37,630.09 674.71,631.12 673.46,634.94 C672.21,639.13 670.23,643.1 668.32,645.37 C665.82,648.38 661.41,650.29 656.79,650.29 C652.17,650.29 648.12,648.6 645.11,645.66 C641.8,642.35 640.19,637.95 640.19,631.92 C640.19,621.49 645.63,613.48 652.61,613.48 L652.59,613.49 Z" id="Path" stroke="none" fill="#465362" fill-rule="nonzero"></path>
                    <path d="M429.39,1494.79 C344.79,1494.79 276.2,1523.32 276.2,1558.52 L276.2,1564.61 C276.2,1599.81 344.79,1628.34 429.39,1628.34 C513.99,1628.34 582.58,1599.81 582.58,1564.61 L582.58,1558.52 C582.58,1523.32 513.99,1494.79 429.39,1494.79 Z" id="Path" stroke="#465362" stroke-width="10" fill="#FFB74D" fill-rule="nonzero" stroke-linecap="round" stroke-linejoin="round"></path>
                    <circle id="Oval" stroke="#465362" stroke-width="10" fill="#FFFFFF" fill-rule="nonzero" stroke-linecap="round" stroke-linejoin="round" cx="529.32" cy="1406.02" r="57.79"></circle>
                    <path d="M429.39,1312.86 C362.12,1312.86 307.59,1335.54 307.59,1363.53 L307.59,1539.67 C307.59,1567.65 362.12,1590.34 429.39,1590.34 C496.66,1590.34 551.19,1567.66 551.19,1539.67 L551.19,1363.53 C551.19,1335.55 496.66,1312.86 429.39,1312.86 Z" id="Path" stroke="#465362" stroke-width="10" fill="#FFFFFF" fill-rule="nonzero" stroke-linecap="round" stroke-linejoin="round"></path>
                    <path d="M532.88,1356.9 C532.51,1358.53 527.37,1365.91 509.18,1373.32 C508.61,1373.55 508.03,1373.78 507.43,1374.01 C486.53,1382.16 458.8,1386.65 429.38,1386.65 C399.96,1386.65 372.24,1382.16 351.34,1374.01 C350.75,1373.78 350.15,1373.55 349.58,1373.32 C331.39,1365.9 326.26,1358.53 325.89,1356.9" id="Path" stroke="#465362" stroke-width="10" fill="#FFFFFF" fill-rule="nonzero" stroke-linecap="round" stroke-linejoin="round"></path>
                    <path d="M509.19,1373.31 C508.62,1373.54 508.04,1373.77 507.44,1374 C486.54,1382.15 458.81,1386.64 429.39,1386.64 C399.97,1386.64 372.25,1382.15 351.35,1374 C350.76,1373.77 350.16,1373.54 349.59,1373.31 C350.16,1373.07 350.76,1372.84 351.35,1372.61 C372.25,1364.46 399.98,1359.98 429.39,1359.98 C458.8,1359.98 486.54,1364.47 507.44,1372.61 C508.03,1372.84 508.62,1373.07 509.19,1373.31 Z" id="Path" stroke="#465362" stroke-width="10" fill="#B9937E" fill-rule="nonzero" stroke-linecap="round" stroke-linejoin="round"></path>
                    <path d="M443.18,1435.72 C446.45,1445.66 449.73,1455.55 453,1465.39 C463.59,1464.76 474.15,1463.61 484.65,1461.94 C494.08,1460.38 497.97,1471.67 490.37,1478.68 C481.89,1486.39 473.37,1493.76 464.83,1500.78 C468.09,1510.5 471.35,1520.17 474.61,1529.8 C477.53,1538.45 467.23,1547.31 459.54,1542.3 C450.99,1536.78 442.41,1530.92 433.83,1524.72 C425.25,1530.92 416.68,1536.78 408.12,1542.3 C400.43,1547.31 390.13,1538.45 393.05,1529.8 C396.31,1520.18 399.57,1510.51 402.83,1500.78 C394.28,1493.75 385.76,1486.39 377.29,1478.68 C369.69,1471.67 373.58,1460.38 383.01,1461.94 C393.51,1463.61 404.07,1464.76 414.66,1465.39 C417.93,1455.55 421.2,1445.66 424.48,1435.72 C427.42,1426.87 440.24,1426.87 443.18,1435.72 L443.18,1435.72 Z" id="Path" stroke="none" fill="#FFB74D" fill-rule="nonzero"></path>
                    <circle id="Oval" stroke="none" fill="#FFB74D" fill-rule="nonzero" cx="377.02" cy="1427.64" r="10.69"></circle>
                    <circle id="Oval" stroke="none" fill="#FFB74D" fill-rule="nonzero" cx="519.87" cy="1494.79" r="10.69"></circle>
                    <circle id="Oval" stroke="none" fill="#FFB74D" fill-rule="nonzero" cx="361.35" cy="1494.79" r="4.98"></circle>
                    <circle id="Oval" stroke="none" fill="#FFB74D" fill-rule="nonzero" cx="492.23" cy="1416.96" r="15.92"></circle>
                    <circle id="Oval" stroke="none" fill="#FFB74D" fill-rule="nonzero" cx="341.42" cy="1529.63" r="8.16"></circle>
                    <path d="M2960.51087,1360.04 L2960.11,1388.43 C2960.1,1389.21 2959.98,1389.99 2959.75,1390.78 L2902.17,1585.76 C2897.66,1601.03 2876,1611.63 2854.05,1608.93 L2675.08,1586.95 C2659.46,1585.04 2650.29,1576.68 2650.42842,1566.62 L2650.83,1538.22 C2650.88,1534.87 2651.95,1531.34 2654.16,1527.8 L2768.33,1344.56 C2773.38,1336.46 2789.74,1331.18 2805.06,1332.58 L2935.8,1344.47 C2950.25,1345.79 2960.62,1352.44 2960.51087,1360.06 L2960.51087,1360.04 Z" id="Path" stroke="#465362" stroke-width="10" fill="#465362" fill-rule="nonzero" stroke-linecap="round" stroke-linejoin="round"></path>
                    <path d="M2854.44,1580.53 L2675.47,1558.55 C2654.65,1555.99 2645.29,1542.02 2654.15,1527.79 L2768.32,1344.54 C2773.36,1336.44 2789.73,1331.16 2805.05,1332.56 L2935.79,1344.45 C2951.71,1345.9 2962.66,1353.83 2960.14,1362.38 L2902.56,1557.36 C2898.05,1572.62 2876.39,1583.23 2854.44,1580.53 L2854.44,1580.53 Z" id="Path" stroke="#465362" stroke-width="10" fill="#B0BEC5" fill-rule="nonzero" stroke-linecap="round" stroke-linejoin="round"></path>
                    <path d="M2889.2,1354.81 L2837.9,1350.05 C2834.27,1349.71 2832.12,1347.9 2833.09,1346 L2833.09,1346 C2834.06,1344.12 2837.75,1342.87 2841.34,1343.2 L2892.08,1347.86 C2895.73,1348.19 2898.06,1350.01 2897.29,1351.93 L2897.29,1351.93 C2896.51,1353.86 2892.89,1355.15 2889.2,1354.81 L2889.2,1354.81 Z" id="Path" stroke="none" fill="#465362" fill-rule="nonzero"></path>
                    <path d="M2786.84,1409.97 C2786.48,1409.56 2786.43,1409.11 2786.7,1408.61 L2787.93,1406.32 L2774.92,1405.01 C2774.28,1404.94 2773.78,1404.76 2773.44,1404.45 C2773.1,1404.15 2772.96,1403.79 2773.02,1403.38 L2773.79,1399.18 C2773.85,1398.92 2774.01,1398.66 2774.26,1398.39 C2774.51,1398.13 2774.84,1397.9 2775.23,1397.73 L2798.58,1386.99 C2799.26,1386.64 2800.04,1386.51 2800.9,1386.59 L2809.81,1387.46 C2810.56,1387.53 2811.11,1387.76 2811.45,1388.13 C2811.8,1388.5 2811.85,1388.92 2811.61,1389.39 L2806.21,1399.92 L2807.59,1400.06 C2808.35,1400.14 2808.92,1400.37 2809.28,1400.77 C2809.65,1401.17 2809.71,1401.61 2809.46,1402.1 L2807.29,1406.39 C2807.04,1406.88 2806.55,1407.28 2805.83,1407.57 C2805.1,1407.87 2804.35,1407.98 2803.58,1407.9 L2802.18,1407.76 L2801,1410.06 C2800.75,1410.56 2800.26,1410.96 2799.55,1411.26 C2798.84,1411.56 2798.09,1411.67 2797.32,1411.6 L2788.52,1410.71 C2787.75,1410.63 2787.18,1410.39 2786.82,1409.98 L2786.84,1409.97 Z M2793.65,1399.29 C2793.93,1399.32 2794.21,1399.29 2794.5,1399.23 C2794.79,1399.16 2795.01,1399.05 2795.18,1398.9 C2795.27,1398.81 2795.5,1398.41 2795.88,1397.71 C2796.23,1397.05 2796.42,1396.66 2796.44,1396.53 C2796.47,1396.4 2796.37,1396.27 2796.15,1396.13 C2795.96,1396.02 2795.72,1395.94 2795.45,1395.92 C2795.21,1395.9 2794.99,1395.92 2794.8,1395.96 C2794.6,1396.01 2794.16,1396.19 2793.48,1396.49 C2792.79,1396.79 2791.87,1397.21 2790.7,1397.74 C2790.14,1398 2789.99,1398.28 2790.25,1398.58 C2790.51,1398.88 2791,1399.07 2791.72,1399.14 C2792.37,1399.18 2793.02,1399.23 2793.66,1399.3 L2793.65,1399.29 Z" id="Shape" stroke="none" fill="#FFFFFF" fill-rule="nonzero"></path>
                    <path d="M2812.97,1401.73 C2812.54,1401.32 2812.45,1400.88 2812.69,1400.4 L2815.54,1394.73 C2815.78,1394.26 2816.28,1393.88 2817.05,1393.6 C2817.82,1393.32 2818.62,1393.22 2819.45,1393.31 L2828.53,1394.21 C2829.37,1394.29 2829.99,1394.53 2830.41,1394.93 C2830.83,1395.33 2830.92,1395.76 2830.69,1396.24 L2827.97,1401.93 C2827.74,1402.42 2827.25,1402.8 2826.49,1403.09 C2825.74,1403.38 2824.94,1403.48 2824.09,1403.4 L2814.89,1402.48 C2814.04,1402.4 2813.41,1402.15 2812.97,1401.74 L2812.97,1401.73 Z M2807.77,1412.09 C2807.34,1411.67 2807.24,1411.21 2807.49,1410.71 L2810.43,1404.86 C2810.68,1404.37 2811.19,1403.98 2811.97,1403.7 C2812.75,1403.42 2813.56,1403.31 2814.41,1403.4 L2823.62,1404.32 C2824.47,1404.41 2825.1,1404.65 2825.52,1405.06 C2825.94,1405.47 2826.03,1405.92 2825.8,1406.41 L2822.99,1412.28 C2822.75,1412.78 2822.25,1413.18 2821.48,1413.48 C2820.71,1413.78 2819.9,1413.88 2819.04,1413.8 L2809.7,1412.85 C2808.84,1412.76 2808.19,1412.51 2807.76,1412.09 L2807.77,1412.09 Z" id="Shape" stroke="none" fill="#FFFFFF" fill-rule="nonzero"></path>
                    <path d="M2833.62,1413.98 C2831.38,1412.59 2829.96,1410.85 2829.34,1408.76 C2828.72,1406.68 2828.99,1404.44 2830.14,1402.03 C2831.29,1399.62 2833.03,1397.62 2835.44,1395.9 C2837.83,1394.19 2840.61,1392.94 2843.79,1392.17 C2846.95,1391.39 2850.2,1391.17 2853.55,1391.5 C2856.9,1391.83 2859.68,1392.64 2861.9,1393.95 C2864.13,1395.26 2865.61,1396.92 2866.33,1398.94 C2867.05,1400.97 2866.92,1403.19 2865.9,1405.6 C2864.88,1408.01 2863.2,1410.12 2860.82,1411.91 C2858.42,1413.72 2855.59,1415.04 2852.33,1415.88 C2849.05,1416.72 2845.68,1416.96 2842.21,1416.61 C2838.74,1416.26 2835.88,1415.38 2833.64,1413.99 L2833.62,1413.98 Z M2850.07,1406.39 C2851.03,1405.37 2851.73,1404.37 2852.16,1403.39 C2852.69,1402.19 2852.64,1401.34 2852.02,1400.85 C2851.4,1400.36 2850.58,1400.06 2849.57,1399.96 C2848.56,1399.86 2847.59,1400.02 2846.64,1400.44 C2845.69,1400.86 2844.98,1401.59 2844.51,1402.63 C2844.1,1403.53 2843.9,1404.56 2843.91,1405.72 C2843.91,1406.88 2844.72,1407.54 2846.31,1407.7 C2847.86,1407.86 2849.12,1407.42 2850.08,1406.39 L2850.07,1406.39 Z" id="Shape" stroke="none" fill="#FFFFFF" fill-rule="nonzero"></path>
                    <path d="M2880.45,1419.46 C2880.03,1419.04 2879.92,1418.57 2880.12,1418.07 L2881.04,1415.72 L2867.7,1414.37 C2867.04,1414.3 2866.52,1414.11 2866.13,1413.8 C2865.74,1413.49 2865.55,1413.12 2865.56,1412.7 L2865.75,1408.39 C2865.78,1408.12 2865.9,1407.85 2866.12,1407.58 C2866.34,1407.31 2866.64,1407.08 2867.01,1406.9 L2889.08,1395.88 C2889.72,1395.52 2890.48,1395.38 2891.37,1395.47 L2900.49,1396.36 C2901.26,1396.44 2901.84,1396.66 2902.24,1397.04 C2902.64,1397.42 2902.76,1397.85 2902.58,1398.33 L2898.61,1409.14 L2900.03,1409.28 C2900.81,1409.36 2901.42,1409.6 2901.84,1410.01 C2902.27,1410.42 2902.39,1410.87 2902.21,1411.37 L2900.62,1415.77 C2900.44,1416.27 2900,1416.68 2899.31,1416.98 C2898.62,1417.29 2897.88,1417.4 2897.09,1417.32 L2895.66,1417.18 L2894.79,1419.54 C2894.6,1420.05 2894.17,1420.46 2893.49,1420.77 C2892.81,1421.08 2892.07,1421.2 2891.28,1421.12 L2882.26,1420.21 C2881.47,1420.13 2880.86,1419.88 2880.44,1419.46 L2880.45,1419.46 Z M2885.82,1408.5 C2886.11,1408.53 2886.39,1408.5 2886.67,1408.44 C2886.95,1408.37 2887.17,1408.26 2887.31,1408.1 C2887.39,1408.01 2887.57,1407.6 2887.84,1406.88 C2888.1,1406.2 2888.23,1405.8 2888.24,1405.67 C2888.24,1405.54 2888.13,1405.4 2887.89,1405.25 C2887.68,1405.13 2887.43,1405.06 2887.15,1405.03 C2886.91,1405.01 2886.69,1405.03 2886.5,1405.07 C2886.31,1405.12 2885.89,1405.31 2885.24,1405.62 C2884.59,1405.93 2883.71,1406.36 2882.61,1406.9 C2882.08,1407.16 2881.97,1407.45 2882.27,1407.76 C2882.57,1408.07 2883.09,1408.26 2883.83,1408.34 C2884.49,1408.38 2885.16,1408.44 2885.81,1408.5 L2885.82,1408.5 Z" id="Shape" stroke="none" fill="#FFFFFF" fill-rule="nonzero"></path>
                    <path d="M2847.38,1546.79 L2710.77,1530.6 C2696.58,1528.92 2689.7,1519.69 2695.24,1510.2 L2695.24,1510.2 C2700.65,1500.94 2715.93,1494.85 2729.54,1496.39 L2860.43,1511.27 C2874.57,1512.88 2883.5,1521.92 2880.25,1531.67 L2880.25,1531.67 C2876.92,1541.67 2862.14,1548.54 2847.36,1546.79 L2847.38,1546.79 Z" id="Path" stroke="none" fill="#CFD8DC" fill-rule="nonzero"></path>
                    <path d="M2739.7,1515.36 C2735.87,1522.69 2723.91,1527.7 2713.07,1526.42 C2702.26,1525.15 2696.97,1518.14 2701.14,1510.89 C2705.24,1503.77 2716.96,1499.07 2727.43,1500.26 C2737.93,1501.46 2743.46,1508.17 2739.7,1515.36 L2739.7,1515.36 Z" id="Path" stroke="none" fill="#ECEFF1" fill-rule="nonzero"></path>
                    <path d="M2542.38,1093.43 C2497.62,1093.43 2461.33,1108.53 2461.33,1127.15 L2461.33,1352.61 C2461.33,1371.23 2497.62,1386.33 2542.38,1386.33 C2587.14,1386.33 2623.43,1371.23 2623.43,1352.61 L2623.43,1127.15 C2623.43,1108.53 2587.14,1093.43 2542.38,1093.43 L2542.38,1093.43 Z" id="Path" stroke="#465362" stroke-width="10" fill="#FFFFFF" fill-rule="nonzero" stroke-linecap="round" stroke-linejoin="round"></path>
                    <path d="M2623.84,1061.5 L2616.96,1078.29 L2594.95,1131.97 C2593.33,1132.87 2591.41,1133.79 2589.14,1134.71 C2588.81,1134.85 2588.47,1134.99 2588.12,1135.12 C2580.41,1138.13 2571.11,1140.29 2560.98,1141.47 L2591.2,1067.74 L2598.09,1050.94 C2599.72,1046.96 2604.28,1045.05 2608.26,1046.68 L2619.59,1051.33 C2623.57,1052.96 2625.48,1057.51 2623.84,1061.5 L2623.84,1061.5 Z" id="Path" stroke="#465362" stroke-width="10" fill="#FF8080" fill-rule="nonzero" stroke-linecap="round" stroke-linejoin="round"></path>
                    <path d="M2616.96,1078.29 L2594.95,1131.97 C2593.33,1132.87 2591.41,1133.79 2589.14,1134.71 C2588.81,1134.85 2588.47,1134.99 2588.12,1135.12 C2580.41,1138.13 2571.11,1140.29 2560.98,1141.47 L2591.2,1067.74 L2616.96,1078.29 L2616.96,1078.29 Z" id="Path" stroke="#465362" stroke-width="10" fill="#FFB74D" fill-rule="nonzero" stroke-linecap="round" stroke-linejoin="round"></path>
                    <path d="M2512.74,1078.7 L2527.77,1141.87 C2519.19,1141.11 2511.12,1139.66 2503.98,1137.6 L2476.92,1023.82 C2475.5,1017.86 2479.18,1011.89 2485.13,1010.48 C2485.99,1010.27 2486.86,1010.18 2487.71,1010.18 C2492.72,1010.18 2497.26,1013.6 2498.47,1018.69 L2499.75,1024.08 L2512.74,1078.7 L2512.74,1078.7 Z" id="Path" stroke="#465362" stroke-width="10" fill="#64B5F6" fill-rule="nonzero" stroke-linecap="round" stroke-linejoin="round"></path>
                    <rect id="Rectangle" stroke="#465362" stroke-width="10" fill="#64B5F6" fill-rule="nonzero" stroke-linecap="round" stroke-linejoin="round" transform="translate(2505.2199, 1051.6457) rotate(-13.38) translate(-2505.2199, -1051.6457)" x="2496.11986" y="1023.51067" width="18.2" height="56.27" rx="9.1"></rect>
                    <path d="M2571.7,1030.13 L2571.34,1032.96 L2567.89,1060.37 L2557.63,1141.82 C2552.69,1142.29 2547.57,1142.53 2542.37,1142.53 C2539.66,1142.53 2536.98,1142.47 2534.34,1142.33 L2545.04,1057.48 L2548.46,1030.32 L2548.85,1027.25 L2556.31,1028.19 L2563.68,1029.12 L2571.7,1030.13 L2571.7,1030.13 Z" id="Path" stroke="#465362" stroke-width="10" fill="#81C784" fill-rule="nonzero" stroke-linecap="round" stroke-linejoin="round"></path>
                    <path d="M2591.42,1022.57 C2589.34,1039.08 2572.41,1065.5 2555.91,1063.42 C2539.41,1061.34 2529.56,1031.54 2531.64,1015.04 C2533.72,998.53 2548.79,986.84 2565.3,988.92 C2581.81,991 2593.5,1006.07 2591.42,1022.58 L2591.42,1022.57 Z" id="Path" stroke="#465362" stroke-width="10" fill="#81C784" fill-rule="nonzero" stroke-linecap="round" stroke-linejoin="round"></path>
                    <path d="M2550.79,1013.92 C2553.27,1017.12 2558.54,1029.25 2555.34,1031.74 C2552.14,1034.23 2541.69,1026.11 2539.21,1022.91 C2536.73,1019.71 2537.31,1015.11 2540.51,1012.63 C2543.71,1010.15 2548.31,1010.73 2550.79,1013.93 L2550.79,1013.92 Z" id="Path" stroke="none" fill="#465362" fill-rule="nonzero"></path>
                    <path d="M2572.58,1016.66 C2569.38,1019.14 2561.27,1029.59 2563.75,1032.79 C2566.23,1035.99 2578.37,1030.72 2581.57,1028.24 C2584.77,1025.76 2585.35,1021.16 2582.87,1017.96 C2580.39,1014.76 2575.79,1014.18 2572.59,1016.66 L2572.58,1016.66 Z" id="Path" stroke="none" fill="#465362" fill-rule="nonzero"></path>
                    <path d="M2481.72,1125.09 C2481.93,1126.05 2484.94,1130.36 2495.6,1134.71 C2495.94,1134.85 2496.28,1134.99 2496.63,1135.12 C2498.94,1136.02 2501.4,1136.85 2503.98,1137.6 C2511.12,1139.66 2519.19,1141.11 2527.77,1141.87 C2529.93,1142.08 2532.12,1142.23 2534.34,1142.33 C2536.98,1142.47 2539.66,1142.53 2542.37,1142.53 C2547.57,1142.53 2552.69,1142.29 2557.63,1141.82 C2558.75,1141.72 2559.86,1141.6 2560.97,1141.47 L2560.97,1141.47 C2571.1,1140.29 2580.4,1138.13 2588.11,1135.12 C2588.46,1134.99 2588.8,1134.85 2589.13,1134.71 C2591.4,1133.79 2593.32,1132.87 2594.94,1131.97 C2600.94,1128.68 2602.85,1125.85 2603.02,1125.09" id="Path" stroke="#465362" stroke-width="10" fill="none" stroke-linecap="round" stroke-linejoin="round"></path>
                    <path d="M2312.14,1465.72 L2257.19,1490.2 C2245.32,1495.49 2231.82,1495.79 2219.72,1491.05 C2166.25,1470.08 2112.78,1449.1 2059.31,1428.13 C2038.75,1420.07 2038.1,1391.21 2058.27,1382.22 L2087.96,1368.99 C2106.25,1360.84 2126.04,1356.54 2146.07,1356.51975 C2160.19,1356.5 2175.72,1357.66 2192.26,1360.77 C2249.59,1371.51 2291.85,1400.46 2318.56,1424.39 C2332.03,1436.45 2328.66,1458.36 2312.14,1465.72 L2312.14,1465.72 Z" id="Path" stroke="#465362" stroke-width="10" fill="#FFFFFF" fill-rule="nonzero" stroke-linecap="round" stroke-linejoin="round"></path>
                    <path d="M869.1,838.92 C863.82,855.85 852.58,871 836.23,880.95 C800.55,902.65 754.04,891.31 732.34,855.63 C710.64,819.95 721.98,773.44 757.66,751.74 C774.01,741.8 792.63,738.79 810.1,741.89 C787.91,759.6 781.81,791.44 796.95,816.34 C812.09,841.24 843.17,850.47 869.1,838.92 Z" id="Path" stroke="#465362" stroke-width="10" fill="#FFF9C4" fill-rule="nonzero" stroke-linecap="round" stroke-linejoin="round"></path>
                    <circle id="Oval" stroke="none" fill="#FFCC80" fill-rule="nonzero" cx="755.38" cy="789.42" r="8.86"></circle>
                    <circle id="Oval" stroke="none" fill="#FFCC80" fill-rule="nonzero" cx="759.38" cy="841.85" r="15.66"></circle>
                    <circle id="Oval" stroke="none" fill="#FFCC80" fill-rule="nonzero" cx="800.6" cy="852.3" r="9.86"></circle>
                    <path d="M881.84,1307.34 C763.37,1307.34 667.33,1347.29 667.33,1396.58 L667.33,1405.1 C667.33,1425.83 684.33,1444.91 712.83,1460.06 C737.83,1488.83 804.06,1509.39 881.84,1509.39 C959.62,1509.39 1025.85,1488.83 1050.85,1460.06 C1079.36,1444.91 1096.35,1425.83 1096.35,1405.1 L1096.35,1396.58 C1096.35,1347.3 1000.31,1307.34 881.84,1307.34 Z" id="Path" stroke="#465362" stroke-width="10" fill="#FFFFFF" fill-rule="nonzero" stroke-linecap="round" stroke-linejoin="round"></path>
                    <path d="M1026.25,1371.81 C1030.31,1355.17 1027.72,1336.49 1019.73,1323.36 C982.45,1262.1 898.79,1262.1 881.84,1262.1 C864.89,1262.1 781.37,1262.1 744.04,1323.22 C736.25,1335.97 733.65,1354 737.19,1370.4 C737.3,1370.9 737.41,1371.38 737.51,1371.83 C738.14,1374.62 738.67,1376.45 738.85,1377.08 C763.04,1459.36 863.51,1459.36 881.84,1459.36 C900.17,1459.36 1000.64,1459.36 1024.83,1377.08 C1025.32,1375.42 1025.77,1373.74 1026.17,1372.1 C1026.19,1372.01 1026.22,1371.91 1026.24,1371.82 L1026.25,1371.81 Z" id="Path" stroke="#465362" stroke-width="10" fill="#977763" fill-rule="nonzero" stroke-linecap="round" stroke-linejoin="round"></path>
                    <path d="M1025.09,1326.76 C1029.12,1342.13 1026.55,1359.38 1018.63,1371.5 C981.65,1428.07 898.66,1428.07 881.85,1428.07 C865.04,1428.07 782.18,1428.07 745.15,1371.63 C737.43,1359.86 734.84,1343.21 738.35,1328.07 C738.46,1327.61 738.56,1327.16 738.67,1326.75 C739.3,1324.17 739.82,1322.49 740,1321.9 C764,1245.92 863.66,1245.92 881.84,1245.92 C900.02,1245.92 999.69,1245.92 1023.68,1321.9 C1024.17,1323.43 1024.61,1324.98 1025.01,1326.5 C1025.03,1326.59 1025.06,1326.68 1025.08,1326.76 L1025.09,1326.76 Z" id="Path" stroke="#465362" stroke-width="10" fill="#FFCDD2" fill-rule="nonzero" stroke-linecap="round" stroke-linejoin="round"></path>
                    <line x1="769.56" y1="1336.14" x2="780.64" y2="1325.95" id="Path" stroke="#FFFFFF" stroke-width="10" fill="none" stroke-linecap="round" stroke-linejoin="round"></line>
                    <line x1="847.98" y1="1332.27" x2="858.61" y2="1343.91" id="Path" stroke="#FFFFFF" stroke-width="10" fill="none" stroke-linecap="round" stroke-linejoin="round"></line>
                    <line x1="925.51" y1="1388.54" x2="934.82" y2="1379.33" id="Path" stroke="#FFFFFF" stroke-width="10" fill="none" stroke-linecap="round" stroke-linejoin="round"></line>
                    <line x1="961.4" y1="1304.24" x2="973.36" y2="1310" id="Path" stroke="#FFFFFF" stroke-width="10" fill="none" stroke-linecap="round" stroke-linejoin="round"></line>
                    <line x1="938.36" y1="1325.47" x2="932.44" y2="1336.99" id="Path" stroke="#FFFFFF" stroke-width="10" fill="none" stroke-linecap="round" stroke-linejoin="round"></line>
                    <line x1="985.32" y1="1343.23" x2="1000.39" y2="1345.44" id="Path" stroke="#FFFFFF" stroke-width="10" fill="none" stroke-linecap="round" stroke-linejoin="round"></line>
                    <line x1="889.63" y1="1264.83" x2="900.26" y2="1260.95" id="Path" stroke="#FFFFFF" stroke-width="10" fill="none" stroke-linecap="round" stroke-linejoin="round"></line>
                    <line x1="793.93" y1="1281.32" x2="806.78" y2="1278.16" id="Path" stroke="#FFFFFF" stroke-width="10" fill="none" stroke-linecap="round" stroke-linejoin="round"></line>
                    <line x1="800.35" y1="1370.59" x2="818.3" y2="1381.75" id="Path" stroke="#FFFFFF" stroke-width="10" fill="none" stroke-linecap="round" stroke-linejoin="round"></line>
                    <line x1="869.69" y1="1390.48" x2="884.31" y2="1380.78" id="Path" stroke="#FFFFFF" stroke-width="10" fill="none" stroke-linecap="round" stroke-linejoin="round"></line>
                    <line x1="889.18" y1="1321.59" x2="904.25" y2="1328.87" id="Path" stroke="#FFFFFF" stroke-width="10" fill="none" stroke-linecap="round" stroke-linejoin="round"></line>
                    <line x1="812.09" y1="1321.59" x2="816.08" y2="1336.99" id="Path" stroke="#FFFFFF" stroke-width="10" fill="none" stroke-linecap="round" stroke-linejoin="round"></line>
                    <line x1="772.22" y1="1363.17" x2="780.64" y2="1358.29" id="Path" stroke="#FFFFFF" stroke-width="10" fill="none" stroke-linecap="round" stroke-linejoin="round"></line>
                    <line x1="996.4" y1="1322.41" x2="1001.72" y2="1314.87" id="Path" stroke="#FFFFFF" stroke-width="10" fill="none" stroke-linecap="round" stroke-linejoin="round"></line>
                    <line x1="967.38" y1="1368.93" x2="984.44" y2="1374.02" id="Path" stroke="#FFFFFF" stroke-width="10" fill="none" stroke-linecap="round" stroke-linejoin="round"></line>
                    <line x1="847.54" y1="1266.77" x2="862.16" y2="1275.5" id="Path" stroke="#FFFFFF" stroke-width="10" fill="none" stroke-linecap="round" stroke-linejoin="round"></line>
                    <path d="M838.98,1278.29 C838.98,1304.33 927.38,1304.33 927.38,1278.29" id="Path" stroke="#465362" stroke-width="10" fill="none" stroke-linecap="round" stroke-linejoin="round"></path>
                    <path d="M2351.63,245.03 C2337.88,250.36 2332.34,255.9 2327.01,269.65 C2326.27,271.56 2323.59,271.56 2322.85,269.65 C2317.52,255.9 2311.98,250.36 2298.23,245.03 C2296.32,244.29 2296.32,241.61 2298.23,240.87 C2311.98,235.54 2317.52,230 2322.85,216.25 C2323.59,214.34 2326.27,214.34 2327.01,216.25 C2332.34,230 2337.88,235.54 2351.63,240.87 C2353.54,241.61 2353.54,244.29 2351.63,245.03 Z" id="Path" stroke="none" fill="#FFFFFF" fill-rule="nonzero"></path>
                    <path d="M2417.66,277.5 C2403.91,282.83 2398.37,288.37 2393.04,302.12 C2392.3,304.03 2389.62,304.03 2388.88,302.12 C2383.55,288.37 2378.01,282.83 2364.26,277.5 C2362.35,276.76 2362.35,274.08 2364.26,273.34 C2378.01,268.01 2383.55,262.47 2388.88,248.72 C2389.62,246.81 2392.3,246.81 2393.04,248.72 C2398.37,262.47 2403.91,268.01 2417.66,273.34 C2419.57,274.08 2419.57,276.76 2417.66,277.5 L2417.66,277.5 Z" id="Path" stroke="none" fill="#FFFFFF" fill-rule="nonzero"></path>
                    <path d="M2367.88,313.06 C2354.13,318.39 2348.59,323.93 2343.26,337.68 C2342.52,339.59 2339.84,339.59 2339.1,337.68 C2333.77,323.93 2328.23,318.39 2314.48,313.06 C2312.57,312.32 2312.57,309.64 2314.48,308.9 C2328.23,303.57 2333.77,298.03 2339.1,284.28 C2339.84,282.37 2342.52,282.37 2343.26,284.28 C2348.59,298.03 2354.13,303.57 2367.88,308.9 C2369.79,309.64 2369.79,312.32 2367.88,313.06 Z" id="Path" stroke="none" fill="#FFFFFF" fill-rule="nonzero"></path>
                    <rect id="Rectangle" stroke="#465362" stroke-width="10" fill="#465362" fill-rule="nonzero" stroke-linecap="round" stroke-linejoin="round" x="414.94" y="752.56" width="2563.19" height="462.96" rx="231.48"></rect>
                    <rect id="Rectangle" stroke="#465362" stroke-width="10" fill="#FFFFFF" fill-rule="nonzero" stroke-linecap="round" stroke-linejoin="round" x="375.95" y="713.57" width="2563.19" height="462.96" rx="231.48"></rect>
                    <path d="M595.6,979.84 L535.56,952.12 C529.32,949.18 527.66,945.88 527.66,939.45 C527.66,933.02 529.31,929.72 535.56,926.6 L595.6,898.87 C597.62,897.95 599.64,897.03 601.66,897.03 C604.42,897.03 605.88,899.05 605.88,904.19 C605.88,912.64 604.96,915.76 597.98,918.51 L548.4,939.26 L597.98,960.19 C605.14,963.13 605.88,966.43 605.88,974.51 C605.88,979.65 604.41,981.49 601.66,981.49 C599.64,981.49 597.62,980.76 595.6,979.84 Z" id="Path" stroke="none" fill="#465362" fill-rule="nonzero"></path>
                    <path d="M645.9,937.43 C641.68,926.78 635.43,907.32 635.43,889.88 C635.43,872.44 643.69,861.6 655.81,861.6 C667.93,861.6 676.37,872.43 676.37,890.06 C676.37,907.69 670.31,926.78 666.09,937.43 C663.15,943.67 659.85,947.71 655.99,947.71 C652.13,947.71 648.64,943.67 645.89,937.43 L645.9,937.43 Z M656.18,959.83 C666.65,959.83 674.91,968.28 674.91,978.74 C674.91,989.2 666.65,997.47 656.18,997.47 C645.71,997.47 637.45,989.21 637.45,978.74 C637.45,968.27 645.71,959.83 656.18,959.83 Z" id="Shape" stroke="none" fill="#465362" fill-rule="nonzero"></path>
                    <path d="M694.19,949.73 C694.19,946.79 695.29,942.2 696.39,939.26 C698.96,931.55 702.08,928.61 712,928.61 C717.14,928.61 722.65,928.98 727.79,928.98 C732.93,928.98 738.44,928.61 743.58,928.61 C751.84,928.61 754.23,932.65 754.23,936.32 C754.23,939.08 753.31,943.67 752.21,946.79 C749.27,954.5 746.34,957.26 736.24,957.26 C731.1,957.26 725.77,956.89 720.63,956.89 C715.49,956.89 709.98,957.26 704.84,957.26 C696.39,957.26 694.19,953.4 694.19,949.73 L694.19,949.73 Z" id="Path" stroke="none" fill="#465362" fill-rule="nonzero"></path>
                    <path d="M770.01,949.73 C770.01,946.79 771.11,942.2 772.22,939.26 C774.79,931.55 777.91,928.61 787.83,928.61 C792.97,928.61 798.48,928.98 803.62,928.98 C808.76,928.98 814.27,928.61 819.41,928.61 C827.67,928.61 830.06,932.65 830.06,936.32 C830.06,939.08 829.14,943.67 828.04,946.79 C825.1,954.5 822.16,957.26 812.06,957.26 C806.92,957.26 801.59,956.89 796.45,956.89 C791.31,956.89 785.8,957.26 780.66,957.26 C772.21,957.26 770.01,953.4 770.01,949.73 L770.01,949.73 Z" id="Path" stroke="none" fill="#465362" fill-rule="nonzero"></path>
                    <path d="M969.22,986.64 C969.22,982.05 972.53,980.03 978.04,978.56 C981.35,977.27 981.71,972.5 981.71,965.52 L981.71,941.28 C980.79,939.63 979.87,939.26 972.16,939.26 L946.27,939.26 C938.56,939.26 937.64,939.63 936.72,941.28 L936.72,965.52 C936.72,972.5 937.09,977.45 940.39,978.56 C945.9,980.03 949.2,982.05 949.2,986.64 C949.2,995.09 937.08,997.47 917.44,997.47 C897.8,997.47 885.68,995.08 885.68,986.64 C885.68,982.05 888.99,980.03 894.31,978.56 C897.62,977.27 898.17,972.5 898.17,965.52 L898.17,895.01 C898.17,888.03 897.62,883.26 894.31,881.97 C888.99,880.5 885.68,878.48 885.68,873.89 C885.68,865.63 897.8,863.06 917.44,863.06 C937.08,863.06 949.2,865.63 949.2,873.89 C949.2,878.48 945.89,880.5 940.39,881.97 C937.08,883.07 936.72,888.03 936.72,895.01 L936.72,918.33 C937.64,919.98 938.56,920.35 946.27,920.35 L972.16,920.35 C979.87,920.35 980.79,919.98 981.71,918.33 L981.71,895.01 C981.71,888.03 981.34,883.26 978.04,881.97 C972.53,880.5 969.22,878.48 969.22,873.89 C969.22,865.63 981.52,863.06 1000.98,863.06 C1020.44,863.06 1032.93,865.63 1032.93,873.89 C1032.93,878.48 1029.62,880.5 1024.12,881.97 C1020.81,883.07 1020.45,888.03 1020.45,895.01 L1020.45,965.52 C1020.45,972.5 1020.82,977.45 1024.12,978.56 C1029.63,980.03 1032.93,982.05 1032.93,986.64 C1032.93,995.09 1020.63,997.47 1000.98,997.47 C981.33,997.47 969.22,995.08 969.22,986.64 Z" id="Path" stroke="none" fill="#465362" fill-rule="nonzero"></path>
                    <path d="M1073.69,986.64 C1073.69,981.87 1077.55,979.85 1084.16,978.38 C1088.2,977.09 1089.12,972.32 1089.12,965.34 L1089.12,902.36 C1089.12,887.86 1088.2,882.72 1084.16,882.72 L1082.51,882.72 C1076.45,882.72 1071.68,883.82 1069.48,887.13 C1067.27,890.25 1065.26,895.21 1063.6,899.98 C1060.48,908.61 1057.54,913.02 1052.03,913.02 C1046.52,913.02 1042.11,907.33 1042.11,896.31 C1042.11,878.5 1050.74,859.95 1060.84,859.95 C1064.7,859.95 1067.45,861.79 1068.92,864.54 L1148.06,864.54 C1149.71,861.78 1152.28,859.95 1156.32,859.95 C1166.24,859.95 1175.05,878.49 1175.05,896.31 C1175.05,907.33 1170.64,913.02 1164.95,913.02 C1159.26,913.02 1156.5,908.61 1153.38,899.98 C1151.73,895.21 1149.71,890.43 1147.5,887.13 C1145.3,883.82 1140.52,882.72 1134.46,882.72 L1132.81,882.72 C1128.77,882.72 1127.85,887.86 1127.85,902.36 L1127.85,965.34 C1127.85,972.32 1128.95,976.91 1132.99,978.19 C1139.6,979.84 1143.27,981.86 1143.27,986.64 C1143.27,995.09 1129.87,997.47 1108.57,997.47 C1087.27,997.47 1073.68,995.08 1073.68,986.64 L1073.69,986.64 Z" id="Path" stroke="none" fill="#465362" fill-rule="nonzero"></path>
                    <path d="M1182.94,986.45 C1182.94,981.31 1186.8,978.74 1193.41,976.9 C1197.27,975.43 1198.18,968.64 1198.18,958.17 L1198.18,897.4 C1198.18,889.69 1197.44,884.92 1193.77,882.9 C1188.81,881.43 1183.67,879.41 1183.67,873.72 C1183.67,866.19 1193.77,863.44 1212.5,863.44 C1231.23,863.44 1234.9,865.46 1240.78,875.56 C1247.94,888.78 1259.69,911.92 1268.87,931.56 C1283.19,903.28 1289.62,888.78 1295.31,875.74 C1299.53,866.38 1305.78,863.44 1321.93,863.44 C1341.21,863.44 1350.76,866.2 1350.76,873.72 C1350.76,879.23 1345.99,881.43 1341.03,882.9 C1337.54,884.37 1336.99,889.69 1336.99,897.4 L1336.99,965.52 C1336.99,972.13 1337.36,977.27 1341.21,978.56 C1346.72,980.03 1350.02,982.05 1350.02,986.64 C1350.02,995.09 1337.9,997.47 1318.26,997.47 C1298.62,997.47 1285.76,995.08 1285.76,986.64 C1285.76,982.05 1289.43,980.03 1294.94,978.56 C1298.8,977.09 1299.71,972.5 1299.71,965.52 L1299.71,926.41 C1299.71,920.9 1299.71,916.86 1299.53,913.74 C1291.27,932.47 1283.74,948.44 1275.48,963.68 C1270.34,972.86 1266.85,978.18 1260.42,978.18 C1253.44,978.18 1249.77,973.04 1244.81,963.86 C1236.36,947.88 1227.73,930.44 1219.47,913.73 L1219.47,958.16 C1219.47,968.63 1220.94,974.5 1225.89,976.52 C1232.5,978.36 1236.91,981.11 1236.91,986.44 C1236.91,994.52 1225.34,997.46 1209.55,997.46 C1193.76,997.46 1182.93,994.52 1182.93,986.44 L1182.94,986.45 Z" id="Path" stroke="none" fill="#465362" fill-rule="nonzero"></path>
                    <path d="M1450.45,996 L1417.04,996 C1404.74,996 1395.19,996.37 1388.39,996.37 C1371.31,996.37 1362.87,994.17 1362.87,986.82 C1362.87,981.68 1367.28,979.29 1372.6,978.19 C1376.09,976.91 1376.46,971.95 1376.46,965.16 L1376.46,895.02 C1376.46,888.04 1375.54,883.27 1372.05,881.98 C1366.73,880.51 1363.42,878.49 1363.42,873.9 C1363.42,865.64 1376.82,863.07 1396.28,863.07 C1416.84,863.07 1428.41,865.64 1428.41,873.72 C1428.41,878.68 1424.92,880.51 1419.23,881.98 C1415.37,883.27 1415.01,888.59 1415.01,895.38 L1415.01,958.73 C1415.01,973.23 1415.93,977.64 1423.27,977.64 L1429.15,977.64 C1439.62,977.64 1447.33,976.54 1450.26,973.05 C1452.83,969.93 1454.85,963.32 1456.69,958.18 C1459.45,949.55 1462.57,944.23 1468.44,944.23 C1474.31,944.23 1479.09,950.29 1479.09,962.59 C1479.09,980.77 1470.09,1000.6 1459.08,1000.6 C1455.04,1000.6 1452.29,998.95 1450.45,996.01 L1450.45,996 Z" id="Path" stroke="none" fill="#465362" fill-rule="nonzero"></path>
                    <path d="M1525.17,986.82 C1525.17,982.23 1528.84,980.39 1533.8,978.74 C1536.37,978 1538.02,973.6 1538.02,967.54 L1538.02,924.57 L1532.14,924.57 C1525.16,924.57 1523.14,922.18 1523.14,916.31 C1523.14,910.44 1525.16,908.23 1532.14,908.23 L1536.18,908.23 C1533.06,902.91 1528.29,896.85 1528.29,886.93 C1528.29,871.51 1541.33,858.1 1563.91,858.1 C1583,858.1 1596.41,868.57 1596.41,882.15 C1596.41,890.78 1591.09,896.1 1583.19,896.1 C1575.29,896.1 1571.26,891.33 1569.05,885.45 C1566.85,879.94 1565.38,872.97 1559.32,872.97 C1555.1,872.97 1552.71,876.64 1552.71,881.6 C1552.71,894.82 1565.38,899.78 1571.44,908.22 L1583.56,908.22 C1590.17,908.22 1592.19,910.61 1592.19,916.3 C1592.19,921.99 1590.17,924.56 1583.56,924.56 L1574.01,924.56 L1574.01,966.98 C1574.01,974.87 1575.85,977.81 1578.6,978.73 C1584.66,980.57 1588.33,982.22 1588.33,986.81 C1588.33,995.26 1574.74,997.46 1556.01,997.46 C1537.28,997.46 1525.16,994.89 1525.16,986.81 L1525.17,986.82 Z" id="Path" stroke="none" fill="#465362" fill-rule="nonzero"></path>
                    <path d="M1599.53,950.28 C1599.53,920.53 1622.85,899.97 1656.82,899.97 C1687.48,899.97 1708.05,920.35 1708.05,948.81 C1708.05,978.74 1684.36,998.94 1651.13,998.94 C1620.1,998.94 1599.53,978.74 1599.53,950.28 L1599.53,950.28 Z M1660.12,983.7 C1667.65,983.7 1672.97,977.09 1672.97,965.52 C1672.97,946.61 1661.77,915.21 1647.63,915.21 C1640.28,915.21 1634.78,921.45 1634.78,933.39 C1634.78,952.48 1645.61,983.7 1660.12,983.7 L1660.12,983.7 Z" id="Shape" stroke="none" fill="#465362" fill-rule="nonzero"></path>
                    <path d="M1720.89,986.82 C1720.89,982.41 1724.01,980.58 1727.87,979.29 C1730.26,978.37 1730.63,974.15 1730.63,967.91 L1730.63,936.51 C1730.63,930.82 1729.71,925.31 1727.32,924.57 C1722.36,923.1 1719.97,920.71 1719.97,917.23 C1719.97,914.47 1721.26,912.27 1724.56,910.25 C1733.01,904.74 1749.35,901.25 1756.51,901.25 C1766.06,901.25 1766.61,907.31 1766.61,918.88 L1766.61,922.92 C1772.3,909.15 1782.22,900.15 1793.6,900.15 C1803.7,900.15 1811.78,907.49 1811.78,920.35 C1811.78,933.21 1805.17,940.91 1794.89,940.91 C1788.46,940.91 1783.87,937.79 1780.94,934.85 C1778.73,932.64 1776.72,930.44 1774.15,930.44 C1770.29,930.44 1766.62,936.13 1766.62,943.11 L1766.62,967.53 C1766.62,974.87 1767.35,977.81 1769.93,978.73 C1775.62,980.38 1779.11,982.4 1779.11,986.99 C1779.11,995.07 1766.44,997.46 1748.63,997.46 C1732.1,997.46 1720.91,994.89 1720.91,986.81 L1720.89,986.82 Z" id="Path" stroke="none" fill="#465362" fill-rule="nonzero"></path>
                    <path d="M1855.84,1021.52 C1855.84,1016.93 1859.33,1015.09 1863.18,1013.62 C1865.75,1012.52 1866.12,1008.48 1866.12,1002.24 L1866.12,936.51 C1866.12,931 1865.2,925.31 1862.81,924.57 C1857.85,923.1 1855.46,920.9 1855.46,917.23 C1855.46,914.47 1856.75,912.27 1860.05,910.25 C1868.68,904.93 1884.84,901.25 1892,901.25 C1901.55,901.25 1902.1,907.31 1902.1,918.88 L1902.1,920.35 C1907.79,908.6 1920.09,900.34 1934.23,900.34 C1954.98,900.34 1970.04,919.43 1970.04,947.53 C1970.04,978.19 1951.13,998.58 1925.42,998.58 C1916.79,998.58 1908.34,996.19 1902.1,992.7 L1902.1,1002.25 C1902.1,1009.41 1902.65,1012.35 1905.59,1013.45 C1910.73,1015.29 1914.22,1016.94 1914.22,1021.53 C1914.22,1029.79 1901.55,1032 1884.11,1032 C1867.59,1032 1855.84,1029.43 1855.84,1021.53 L1855.84,1021.52 Z M1916.43,984.25 C1926.16,984.25 1932.59,974.7 1932.59,953.95 C1932.59,933.2 1926.17,923.29 1917.17,923.29 C1908.17,923.29 1901.2,932.65 1901.2,955.6 C1901.2,976.72 1907.62,984.24 1916.44,984.24 L1916.43,984.25 Z" id="Shape" stroke="none" fill="#465362" fill-rule="nonzero"></path>
                    <path d="M1981.79,951.57 C1981.79,921.64 2004.19,900.34 2032.47,900.34 C2059.09,900.34 2073.97,918.15 2073.97,933.39 C2073.97,942.57 2068.46,948.45 2058.36,948.45 L2014.11,948.45 C2016.87,961.48 2026.04,969.2 2040.18,969.2 C2049.73,969.2 2056.34,965.89 2061.85,961.86 C2064.05,960.39 2066.26,959.1 2068.46,959.1 C2072.13,959.1 2074.52,961.49 2074.52,966.63 C2074.52,971.04 2072.32,976.55 2068.28,981.69 C2061.12,990.87 2047.53,998.95 2028.99,998.95 C2001.08,998.95 1981.8,979.3 1981.8,951.58 L1981.79,951.57 Z M2031.92,936.51 C2041.28,936.14 2045.32,932.84 2045.32,927.14 C2045.32,920.35 2040.36,914.47 2031.92,914.47 C2021.27,914.47 2014.11,923.65 2013.19,936.87 L2031.92,936.5 L2031.92,936.51 Z" id="Shape" stroke="none" fill="#465362" fill-rule="nonzero"></path>
                    <path d="M2086.26,950.28 C2086.26,920.53 2109.58,899.97 2143.55,899.97 C2174.21,899.97 2194.78,920.35 2194.78,948.81 C2194.78,978.74 2171.09,998.94 2137.86,998.94 C2106.83,998.94 2086.26,978.74 2086.26,950.28 L2086.26,950.28 Z M2146.85,983.7 C2154.38,983.7 2159.7,977.09 2159.7,965.52 C2159.7,946.61 2148.5,915.21 2134.36,915.21 C2127.01,915.21 2121.51,921.45 2121.51,933.39 C2121.51,952.48 2132.34,983.7 2146.85,983.7 L2146.85,983.7 Z" id="Shape" stroke="none" fill="#465362" fill-rule="nonzero"></path>
                    <path d="M2205.6,1021.52 C2205.6,1016.93 2209.09,1015.09 2212.94,1013.62 C2215.51,1012.52 2215.88,1008.48 2215.88,1002.24 L2215.88,936.51 C2215.88,931 2214.96,925.31 2212.57,924.57 C2207.61,923.1 2205.22,920.9 2205.22,917.23 C2205.22,914.47 2206.51,912.27 2209.81,910.25 C2218.44,904.93 2234.6,901.25 2241.76,901.25 C2251.31,901.25 2251.86,907.31 2251.86,918.88 L2251.86,920.35 C2257.55,908.6 2269.85,900.34 2283.99,900.34 C2304.74,900.34 2319.8,919.43 2319.8,947.53 C2319.8,978.19 2300.89,998.58 2275.18,998.58 C2266.55,998.58 2258.1,996.19 2251.86,992.7 L2251.86,1002.25 C2251.86,1009.41 2252.41,1012.35 2255.35,1013.45 C2260.49,1015.29 2263.98,1016.94 2263.98,1021.53 C2263.98,1029.79 2251.31,1032 2233.87,1032 C2217.35,1032 2205.6,1029.43 2205.6,1021.53 L2205.6,1021.52 Z M2266.19,984.25 C2275.92,984.25 2282.35,974.7 2282.35,953.95 C2282.35,933.2 2275.93,923.29 2266.93,923.29 C2257.93,923.29 2250.96,932.65 2250.96,955.6 C2250.96,976.72 2257.38,984.24 2266.2,984.24 L2266.19,984.25 Z" id="Shape" stroke="none" fill="#465362" fill-rule="nonzero"></path>
                    <path d="M2331.18,986.82 C2331.18,982.41 2334.49,980.58 2338.34,979.29 C2340.73,978.37 2341.1,974.15 2341.1,967.91 L2341.1,896.49 C2341.1,890.25 2339.81,884.56 2337.24,883.45 C2331.73,881.8 2328.61,879.41 2328.61,875.55 C2328.61,872.8 2329.9,870.41 2333.2,868.39 C2342.2,862.88 2359.09,859.39 2366.8,859.39 C2376.53,859.39 2377.27,865.45 2377.27,877.2 C2377.27,883.63 2377.09,891.52 2377.09,900.7 L2377.09,967.9 C2377.09,975.43 2377.46,978.37 2379.66,979.28 C2383.88,980.75 2386.82,982.4 2386.82,986.81 C2386.82,995.07 2375.25,997.46 2359.09,997.46 C2342.93,997.46 2331.18,994.89 2331.18,986.81 L2331.18,986.82 Z" id="Path" stroke="none" fill="#465362" fill-rule="nonzero"></path>
                    <path d="M2398.01,951.57 C2398.01,921.64 2420.41,900.34 2448.69,900.34 C2475.31,900.34 2490.19,918.15 2490.19,933.39 C2490.19,942.57 2484.68,948.45 2474.58,948.45 L2430.33,948.45 C2433.09,961.48 2442.26,969.2 2456.4,969.2 C2465.95,969.2 2472.56,965.89 2478.07,961.86 C2480.27,960.39 2482.48,959.1 2484.68,959.1 C2488.35,959.1 2490.74,961.49 2490.74,966.63 C2490.74,971.04 2488.54,976.55 2484.5,981.69 C2477.34,990.87 2463.75,998.95 2445.21,998.95 C2417.3,998.95 2398.02,979.3 2398.02,951.58 L2398.01,951.57 Z M2448.14,936.51 C2457.5,936.14 2461.54,932.84 2461.54,927.14 C2461.54,920.35 2456.58,914.47 2448.14,914.47 C2437.49,914.47 2430.33,923.65 2429.41,936.87 L2448.14,936.5 L2448.14,936.51 Z" id="Shape" stroke="none" fill="#465362" fill-rule="nonzero"></path>
                    <path d="M2545.81,949.73 C2545.81,946.79 2546.91,942.2 2548.02,939.26 C2550.59,931.55 2553.71,928.61 2563.63,928.61 C2568.77,928.61 2574.28,928.98 2579.42,928.98 C2584.56,928.98 2590.07,928.61 2595.21,928.61 C2603.47,928.61 2605.86,932.65 2605.86,936.32 C2605.86,939.08 2604.94,943.67 2603.84,946.79 C2600.9,954.5 2597.96,957.26 2587.86,957.26 C2582.72,957.26 2577.39,956.89 2572.25,956.89 C2567.11,956.89 2561.6,957.26 2556.46,957.26 C2548.01,957.26 2545.81,953.4 2545.81,949.73 L2545.81,949.73 Z" id="Path" stroke="none" fill="#465362" fill-rule="nonzero"></path>
                    <path d="M2621.64,949.73 C2621.64,946.79 2622.74,942.2 2623.84,939.26 C2626.41,931.55 2629.53,928.61 2639.45,928.61 C2644.59,928.61 2650.1,928.98 2655.24,928.98 C2660.38,928.98 2665.89,928.61 2671.03,928.61 C2679.29,928.61 2681.68,932.65 2681.68,936.32 C2681.68,939.08 2680.76,943.67 2679.66,946.79 C2676.72,954.5 2673.79,957.26 2663.69,957.26 C2658.55,957.26 2653.22,956.89 2648.08,956.89 C2642.94,956.89 2637.43,957.26 2632.29,957.26 C2623.84,957.26 2621.64,953.4 2621.64,949.73 L2621.64,949.73 Z" id="Path" stroke="none" fill="#465362" fill-rule="nonzero"></path>
                    <path d="M2709.22,974.52 C2709.22,966.44 2709.96,963.14 2717.12,960.2 L2766.7,939.27 L2717.12,918.52 C2710.14,915.76 2709.22,912.64 2709.22,904.2 C2709.22,899.06 2710.69,897.04 2713.44,897.04 C2715.46,897.04 2717.48,897.96 2719.5,898.88 L2779.54,926.61 C2785.78,929.73 2787.44,932.85 2787.44,939.46 C2787.44,946.07 2785.79,949.19 2779.54,952.13 L2719.5,979.85 C2717.48,980.77 2715.46,981.5 2713.44,981.5 C2710.68,981.5 2709.22,979.66 2709.22,974.52 Z" id="Path" stroke="none" fill="#465362" fill-rule="nonzero"></path>
                    <line x1="1664.22" y1="579.05" x2="1751.73" y2="529.11" id="Path" stroke="#465362" stroke-width="10" fill="none" stroke-linecap="round" stroke-linejoin="round"></line>
                    <path d="M1824.56,527.78 L1797.24,552.46 C1786.22,562.42 1770.28,561.63 1763.23,549.28 L1740.21,508.95 C1733.16,496.6 1740.59,482.48 1754.77,478.05 L1789.92,467.08 C1798.23,464.49 1808.04,469.06 1812.61,477.06 L1827.51,503.16 C1832.07,511.16 1831.02,521.93 1824.56,527.77 L1824.56,527.78 Z" id="Path" stroke="#465362" stroke-width="10" fill="#64B5F6" fill-rule="nonzero" stroke-linecap="round" stroke-linejoin="round"></path>
                    <line x1="1771.77" y1="495.05" x2="1791.25" y2="529.19" id="Path" stroke="#465362" stroke-width="10" fill="none" stroke-linecap="round" stroke-linejoin="round"></line>
                    <line x1="1794.91" y1="484.86" x2="1811.79" y2="514.45" id="Path" stroke="#465362" stroke-width="10" fill="none" stroke-linecap="round" stroke-linejoin="round"></line>
                    <line x1="1563.47" y1="579.05" x2="1664.22" y2="579.05" id="Path" stroke="#465362" stroke-width="10" fill="none" stroke-linecap="round" stroke-linejoin="round"></line>
                    <path d="M1499.55,613.99 L1535.51,621.89 C1550.02,625.08 1563.47,616.5 1563.47,602.27 L1563.47,555.83 C1563.47,541.6 1550.02,533.03 1535.51,536.21 L1499.55,544.11 C1491.05,545.98 1484.79,554.81 1484.79,564.02 L1484.79,594.08 C1484.79,603.29 1491.04,612.12 1499.55,613.99 Z" id="Path" stroke="#465362" stroke-width="10" fill="#64B5F6" fill-rule="nonzero" stroke-linecap="round" stroke-linejoin="round"></path>
                    <line x1="1529.18" y1="559.4" x2="1529.18" y2="598.7" id="Path" stroke="#465362" stroke-width="10" fill="none" stroke-linecap="round" stroke-linejoin="round"></line>
                    <line x1="1504.03" y1="562.02" x2="1504.03" y2="596.08" id="Path" stroke="#465362" stroke-width="10" fill="none" stroke-linecap="round" stroke-linejoin="round"></line>
                    <circle id="Oval" stroke="#465362" stroke-width="10" fill="#BBDEFB" fill-rule="nonzero" stroke-linecap="round" stroke-linejoin="round" cx="1664.22" cy="579.05" r="79.92"></circle>
                    <line x1="1623.26" y1="460.2" x2="1664.22" y2="432.06" id="Path" stroke="#465362" stroke-width="10" fill="none" stroke-linecap="round" stroke-linejoin="round"></line>
                    <line x1="1705.19" y1="460.2" x2="1664.22" y2="432.06" id="Path" stroke="#465362" stroke-width="10" fill="none" stroke-linecap="round" stroke-linejoin="round"></line>
                    <circle id="Oval" stroke="#465362" stroke-width="10" fill="#FFFFFF" fill-rule="nonzero" stroke-linecap="round" stroke-linejoin="round" cx="1664.22" cy="417.99" r="14.07"></circle>
                    <path d="M1724.69,458.56 C1724.69,470.2 1697.62,499.13 1664.22,499.13 C1630.82,499.13 1603.75,470.2 1603.75,458.56 C1603.75,449.49 1724.69,449.49 1724.69,458.56 Z" id="Path" stroke="#465362" stroke-width="10" fill="#FFFFFF" fill-rule="nonzero" stroke-linecap="round" stroke-linejoin="round"></path>
                    <path d="M1643.74,585.83 L1676.84,585.83 C1684.33,585.83 1690.4,579.76 1690.4,572.27 L1690.4,572.27" id="Path" stroke="#465362" stroke-width="10" fill="none" stroke-linecap="round" stroke-linejoin="round"></path>
                    <path d="M1608.09,558.17 C1610.62,555.64 1614.11,554.08 1617.97,554.08 C1621.83,554.08 1625.32,555.64 1627.85,558.17" id="Path" stroke="#465362" stroke-width="10" fill="none" stroke-linecap="round" stroke-linejoin="round"></path>
                    <path d="M1700.6,558.17 C1703.13,555.64 1706.62,554.08 1710.48,554.08 C1714.34,554.08 1717.83,555.64 1720.36,558.17" id="Path" stroke="#465362" stroke-width="10" fill="none" stroke-linecap="round" stroke-linejoin="round"></path>
                </g>
            </g>
        </g>
    </g>
</svg>