<?xml version="1.0" encoding="UTF-8"?>
<svg width="308px" height="141px" viewBox="0 0 308 141" version="1.1" xmlns="http://www.w3.org/2000/svg" xmlns:xlink="http://www.w3.org/1999/xlink">
    <title>HTML for People</title>
    <g id="Page-1" stroke="none" stroke-width="1" fill="" fill-rule="evenodd">
        <g id="logo" transform="translate(0.016, 0.189)" fill-rule="nonzero">
            <g id="html" transform="translate(2.488, 0)" fill="">
                <path d="M1.26697771,0.999 C0.489977705,1.776 0.156977705,2.775 0.156977705,4.329 C0.0459777054,5.883 0.0459777054,6.882 0.156977705,8.325 L0.0459777054,10.545 L0.156977705,12.654 L0.0459777054,14.763 L0.156977705,19.092 C0.0459777054,20.646 -0.0650222946,21.756 0.0459777054,23.31 L0.0459777054,25.641 L0.0459777054,25.863 C0.156977705,27.417 0.267977705,28.083 0.156977705,28.971 C0.0459777054,29.859 0.156977705,30.636 0.267977705,32.19 L0.378977705,34.521 L0.267977705,36.852 L0.267977705,39.072 L0.156977705,41.292 L0.378977705,43.512 L0.378977705,45.621 L0.267977705,47.841 L0.378977705,49.95 L0.378977705,50.283 C0.489977705,51.837 0.600977705,52.614 0.489977705,53.28 C0.378977705,54.057 0.378977705,55.056 0.489977705,56.721 L0.489977705,58.941 L0.489977705,59.274 C0.600977705,60.828 0.711977705,61.605 0.600977705,62.271 C0.489977705,63.048 0.600977705,63.936 0.711977705,65.712 L0.600977705,70.263 L0.600977705,72.594 C0.378977705,74.37 0.600977705,75.591 1.37797771,76.368 C1.71097771,76.812 2.26597771,77.145 2.82097771,77.256 C4.15297771,77.589 5.15197771,77.478 6.59497771,77.589 L6.70597771,77.589 L10.9239777,77.478 L15.2529777,77.478 C16.6959777,77.589 17.6949777,77.256 18.3609777,76.368 C19.0269777,75.591 19.2489777,74.592 19.3599777,73.149 L19.1379777,70.707 L19.2489777,68.598 L19.2489777,66.156 L19.2489777,65.934 C19.1379777,64.38 19.0269777,63.492 19.1379777,61.938 L19.2489777,59.496 L19.1379777,57.165 L19.0269777,54.945 L19.1379777,52.614 L18.8049777,48.507 C18.8049777,46.953 19.2489777,45.954 20.0259777,45.177 C20.9139777,44.4 21.9129777,44.178 23.4669777,44.289 L25.5759777,44.178 L30.1269777,44.178 L32.3469777,44.067 L34.5669777,44.067 C36.2319777,44.067 37.3419777,44.4 38.1189777,45.177 C38.8959777,45.954 39.2289777,46.953 39.2289777,48.618 C39.1179777,49.395 39.2289777,50.061 39.2289777,50.838 C39.3399777,52.281 39.4509777,53.28 39.3399777,54.834 L39.3399777,55.167 L39.2289777,57.276 L39.3399777,59.496 L39.3399777,61.605 L39.4509777,63.936 L39.5619777,66.045 L39.4509777,70.596 L39.4509777,73.149 C39.2289777,74.925 39.4509777,76.035 40.2279777,76.812 C40.5609777,77.256 41.1159777,77.589 41.7819777,77.7 C43.0029777,78.033 43.8909777,77.811 44.5569777,77.922 C45.0009777,78.033 45.4449777,78.033 45.9999777,78.033 C47.1099777,77.922 48.1089777,77.811 49.5519777,77.811 L51.9939777,77.922 L53.9919777,78.033 C55.5459777,77.922 56.4339777,77.589 57.2109777,76.812 C57.8769777,76.146 58.2099777,75.258 58.0989777,73.593 L58.2099777,71.151 L57.9879777,69.042 L57.9879777,66.6 L57.8769777,64.491 L57.8769777,62.16 L57.9879777,60.051 L57.8769777,57.609 L57.7659777,55.389 L57.8769777,53.169 L57.7659777,48.729 L57.7659777,46.509 L57.7659777,44.178 L57.7659777,42.18 L57.7659777,39.96 L57.7659777,39.627 C57.6549777,38.073 57.6549777,37.074 57.5439777,35.631 C57.5439777,34.965 57.5439777,34.299 57.4329777,33.411 L57.5439777,31.302 L57.5439777,29.082 L57.6549777,26.862 L57.5439777,24.753 L57.5439777,20.202 L57.4329777,18.093 L57.4329777,15.984 L57.2109777,11.433 L57.2109777,9.213 L57.2109777,7.104 L57.2109777,6.882 C57.0999777,5.328 57.0999777,4.551 57.2109777,3.885 C57.3219777,3.108 56.8779777,2.442 56.1009777,1.665 C55.2129777,0.777 54.1029777,0.555 52.6599777,0.666 L50.2179777,0.555 L47.9979777,0.555 L45.7779777,0.666 L43.5579777,0.666 C41.7819777,0.555 40.7829777,0.777 40.0059777,1.554 C39.2289777,2.442 38.8959777,3.33 39.0069777,4.884 L39.0069777,6.771 L38.8959777,8.769 L38.8959777,10.878 L38.7849777,13.098 L38.7849777,15.207 L38.8959777,17.316 C39.0069777,18.87 39.0069777,19.536 38.8959777,20.202 C38.7849777,20.979 38.7849777,21.756 38.8959777,23.31 C38.8959777,24.753 38.5629777,25.641 37.8969777,26.307 C37.1199777,27.084 36.1209777,27.306 34.4559777,27.306 L32.2359777,27.306 L32.0139777,27.306 C30.5709777,27.417 29.4609777,27.417 28.0179777,27.306 L27.6849777,27.306 L25.5759777,27.417 L23.2449777,27.417 C21.5799777,27.306 20.5809777,27.084 19.8039777,26.307 C18.9159777,25.53 18.5829777,24.531 18.5829777,22.866 L18.6939777,20.646 L18.4719777,18.093 C18.3609777,16.539 18.3609777,15.873 18.4719777,14.874 C18.5829777,14.319 18.4719777,13.875 18.4719777,13.209 C18.3609777,11.988 18.4719777,11.1 18.5829777,9.546 L18.5829777,9.324 L18.4719777,6.993 L18.4719777,4.773 C18.3609777,2.997 18.0279777,1.998 17.2509777,1.221 C16.4739777,0.444 15.3639777,0.111 13.6989777,0.222 L11.3679777,0.222 L9.25897771,0 L6.81697771,0.111 L4.70797771,0 C2.93197771,0 1.93297771,0.333 1.26697771,0.999 Z" id="Path"></path>
                <path d="M79.0009777,1.443 C78.2239777,2.331 77.8909777,3.33 77.8909777,4.884 L77.8909777,7.215 L78.1129777,9.657 L78.1129777,12.099 C78.2239777,13.653 78.5569777,14.652 79.4449777,15.54 C79.8889777,15.984 80.3329777,16.317 80.9989777,16.539 C82.2199777,16.872 83.3299777,16.761 84.7729777,16.872 L85.1059777,16.872 L87.2149777,16.761 L89.4349777,16.872 L91.7659777,16.872 L93.9859777,16.65 C95.5399777,16.65 96.4279777,16.983 97.3159777,17.871 C98.0929777,18.759 98.4259777,19.314 98.5369777,20.202 C98.5369777,21.09 98.5369777,21.645 98.4259777,22.311 C98.3149777,23.088 98.4259777,23.976 98.5369777,25.53 L98.4259777,27.972 L98.5369777,30.081 L98.5369777,32.19 L98.5369777,34.632 L98.6479777,36.852 L98.5369777,38.961 L98.5369777,41.07 L98.7589777,43.512 L98.8699777,45.51 C98.7589777,47.286 98.7589777,48.507 98.8699777,50.061 L98.9809777,52.392 L98.7589777,54.612 L98.7589777,56.832 L98.9809777,58.941 L98.9809777,61.05 L98.9809777,61.494 C99.0919777,63.048 98.9809777,64.047 98.8699777,65.49 L98.8699777,70.263 L98.7589777,72.594 C98.6479777,74.37 99.0919777,75.369 99.8689777,76.146 C100.756978,76.923 102.199978,77.478 104.974978,77.589 L105.307978,77.589 L114.298978,77.7 C115.963978,77.589 116.962978,77.256 117.739978,76.479 C118.516978,75.702 118.849978,74.592 118.738978,73.038 L118.738978,70.707 L118.738978,68.709 L118.738978,66.489 L118.849978,64.158 L118.849978,63.825 C118.738978,62.271 118.738978,61.383 118.849978,59.829 L118.849978,59.607 L118.849978,57.276 L118.627978,55.056 L118.849978,50.505 L118.849978,48.174 L118.849978,46.065 L118.627978,43.734 L118.738978,41.625 L118.627978,39.183 L118.849978,37.074 L118.849978,34.632 L118.849978,30.303 L118.627978,27.972 L118.738978,25.752 L118.738978,21.201 C118.960978,19.647 119.515978,18.537 120.403978,17.649 C121.291978,16.761 122.290978,16.428 123.622978,16.539 L128.173978,16.539 L132.613978,16.317 C134.278978,16.317 135.277978,15.984 136.054978,15.207 C136.387978,14.763 136.720978,14.319 136.831978,13.653 C137.053978,12.321 136.831978,11.655 136.942978,10.767 C137.053978,9.99 136.942978,9.213 136.831978,7.548 L136.831978,5.328 C136.720978,3.774 136.387978,2.886 135.610978,1.998 C134.833978,1.221 133.723978,0.777 132.169978,0.555 L129.616978,0.555 L127.396978,0.333 L124.843978,0.222 L122.512978,0.222 L117.961978,0.111 L115.852978,0.222 L113.632978,0.222 L111.412978,0 L106.861978,0 L106.639978,0 C105.196978,0.111 104.086978,0.111 102.643978,0 L102.310978,0 L99.9799777,0 L95.6509777,0.222 L93.3199777,0.222 L91.2109777,0 L88.9909777,0 L86.6599777,0.222 L84.5509777,0.111 L82.2199777,0.111 C80.6659777,0.222 79.6669777,0.555 79.0009777,1.443 Z" id="Path"></path>
                <path d="M156.734978,76.812 C157.400978,77.589 158.399978,77.922 159.953978,77.811 C161.729978,77.922 162.839978,77.922 164.393978,77.7 L168.944978,77.7 L169.499978,77.7 C172.385978,77.811 173.939978,77.589 174.716978,76.812 C175.493978,76.035 175.826978,74.925 175.826978,73.149 L175.493978,70.929 L175.493978,66.489 L175.604978,64.047 L175.604978,54.945 L175.382978,52.725 L175.493978,50.394 L175.382978,48.285 L175.382978,45.843 C175.493978,44.4 175.493978,43.29 175.382978,41.514 L175.382978,39.294 L175.493978,37.074 L175.937978,36.852 C176.159978,36.741 176.603978,37.407 177.269978,38.517 L178.157978,40.515 L179.045978,42.624 L179.600978,44.622 L180.488978,46.62 L180.488978,46.731 C181.265978,48.063 181.820978,48.84 182.375978,50.283 L182.486978,50.616 L183.929978,54.39 L185.039978,56.388 L185.816978,58.386 L185.816978,58.497 C186.482978,59.829 186.815978,60.828 187.370978,62.16 C187.592978,62.937 188.036978,63.603 188.369978,64.38 L189.257978,66.267 C190.034978,67.71 190.700978,68.487 191.699978,69.264 C192.698978,70.041 193.697978,70.374 195.140978,70.374 C196.583978,70.374 197.582978,70.152 198.692978,69.375 C199.691978,68.709 200.357978,67.932 201.023978,66.6 L201.911978,64.602 L202.910978,62.493 L204.020978,60.384 L205.019978,58.497 L205.796978,56.61 L206.684978,54.39 L207.572978,52.392 L208.571978,50.616 L209.681978,48.507 L210.680978,46.62 L211.457978,44.733 L212.345978,42.624 L213.344978,40.737 L214.454978,38.739 C215.009978,37.407 215.453978,36.741 215.786978,36.852 C216.119978,36.963 216.341978,37.851 216.341978,39.183 L216.230978,41.514 L216.119978,43.512 L216.341978,45.843 L216.341978,52.725 C216.230978,54.168 216.230978,55.278 216.341978,57.054 L216.230978,59.163 L216.230978,61.383 L216.119978,63.714 L216.119978,66.045 L216.008978,70.596 L215.897978,73.149 C215.897978,74.925 216.230978,75.924 217.007978,76.701 C217.784978,77.478 219.338978,77.811 222.113978,77.811 L224.777978,77.811 C226.553978,77.922 227.663978,77.922 229.217978,77.7 L229.883978,77.7 C232.658978,77.7 234.101978,77.478 234.989978,76.701 C235.766978,76.035 236.099978,75.036 235.988978,73.482 L235.877978,71.373 L235.988978,67.044 C235.877978,65.601 235.877978,64.602 235.988978,63.048 L235.988978,62.715 L236.099978,60.384 L236.099978,60.162 C235.988978,58.608 235.877978,57.72 235.988978,56.166 L235.988978,54.057 L236.099978,51.615 L236.210978,49.617 L236.321978,44.955 L236.210978,42.735 L236.210978,40.737 L236.321978,38.406 L236.210978,36.297 L236.321978,34.188 L236.321978,29.748 L236.543978,25.308 L236.432978,22.977 L236.321978,20.646 L236.210978,18.315 L236.321978,16.206 L236.099978,13.875 L235.988978,11.433 L235.877978,9.213 L235.988978,7.104 L235.988978,4.773 C235.877978,2.997 235.433978,1.998 234.656978,1.221 C233.879978,0.444 232.880978,0.222 231.548978,0.222 L229.439978,0.111 L226.997978,0.111 L226.886978,0.111 C225.443978,0.222 224.555978,0.222 223.889978,0.111 C223.112978,0 221.891978,0.111 219.449978,0.222 L218.672978,0.222 L217.562978,0.111 C216.785978,0 216.008978,0.333 214.898978,1.11 C213.788978,1.887 212.900978,2.886 212.234978,4.107 L211.235978,6.327 L210.125978,8.325 L209.126978,10.323 L208.238978,12.21 L207.128978,14.097 L204.131978,20.202 L203.021978,22.089 L202.133978,24.087 L201.134978,26.307 L199.913978,28.305 L198.914978,30.192 L197.915978,32.301 C197.249978,33.522 196.694978,34.077 196.028978,34.077 C195.362978,34.077 194.585978,33.522 193.919978,32.079 L192.920978,30.303 C192.476978,29.415 192.143978,28.638 191.699978,27.972 C191.033978,26.751 190.478978,25.863 189.923978,24.531 L189.701978,24.087 L188.813978,22.311 L187.925978,20.313 L186.704978,18.093 L185.927978,16.095 L184.928978,14.097 L184.817978,13.986 C184.040978,12.765 183.485978,11.766 182.930978,10.434 L182.819978,10.101 L181.931978,8.325 L180.710978,6.327 L179.711978,4.107 C179.156978,2.775 178.379978,1.887 177.269978,1.11 C176.159978,0.333 174.938978,0.111 173.495978,0.222 L171.275978,0.111 L168.944978,0.111 L166.946978,0.222 C166.058978,0.111 165.281978,0.111 164.504978,0.111 C163.061978,0.111 161.951978,0.111 160.508978,0 L160.175978,0 C158.621978,0 157.622978,0.444 157.067978,1.221 C156.401978,2.22 156.068978,3.663 156.068978,6.327 L156.068978,13.653 L155.846978,15.984 L155.957978,18.204 L156.068978,20.202 L155.957978,22.422 L155.846978,24.864 L155.846978,33.855 L155.846978,33.966 C155.957978,35.52 155.957978,36.408 155.846978,37.962 L155.846978,38.184 L155.957978,40.515 L156.068978,42.735 L155.957978,44.955 L155.957978,47.397 L155.846978,49.617 L155.957978,51.615 L155.957978,53.835 L155.846978,56.166 L155.846978,56.499 C155.957978,58.053 156.068978,58.83 155.957978,59.496 C155.846978,60.273 155.846978,61.272 155.957978,62.826 L155.957978,67.266 L155.846978,71.595 C155.735978,73.26 155.624978,74.148 155.735978,74.814 C155.735978,75.591 156.068978,76.035 156.734978,76.812 Z" id="Path"></path>
                <path d="M261.108978,1.11 C260.220978,1.887 259.887978,2.886 259.887978,4.44 L259.998978,6.882 L259.887978,9.102 L259.887978,11.1 L259.998978,13.542 L259.887978,15.651 L259.887978,17.871 L259.776978,20.091 L259.887978,22.2 L259.998978,24.642 L259.887978,26.751 L259.887978,28.971 L259.776978,31.191 L259.776978,33.411 C259.665978,34.965 259.776978,36.075 259.887978,37.74 L259.776978,40.182 L259.776978,42.291 L259.776978,46.731 L259.776978,49.062 C259.665978,49.839 259.665978,50.616 259.665978,51.282 C259.554978,52.725 259.554978,53.724 259.443978,55.278 L259.443978,55.611 L259.443978,57.942 L259.554978,59.94 L259.665978,62.16 L259.554978,64.602 L259.554978,66.6 L259.332978,71.04 L259.332978,71.706 C259.332978,74.481 259.665978,76.035 260.442978,76.812 C261.219978,77.589 262.107978,77.811 263.439978,77.7 C264.882978,77.589 265.659978,77.589 266.325978,77.7 C266.991978,77.811 268.212978,77.811 270.654978,77.7 C271.431978,77.589 272.319978,77.7 273.762978,77.811 L273.873978,77.811 L276.204978,77.811 L278.202978,77.7 L280.422978,77.811 L282.753978,77.7 L284.751978,77.7 L287.193978,77.811 L291.522978,77.922 L293.520978,77.811 L295.851978,77.811 L298.071978,78.144 L300.291978,78.144 C301.845978,78.033 302.733978,77.7 303.510978,76.923 C304.176978,76.257 304.509978,75.147 304.509978,73.482 L304.509978,71.151 L304.620978,68.82 L304.509978,66.489 C304.620978,64.935 304.287978,63.936 303.510978,63.048 C302.733978,62.16 301.179978,61.938 298.404978,61.938 L298.293978,61.938 L296.073978,61.827 L293.742978,62.049 L293.076978,62.049 C291.633978,61.938 290.634978,61.938 289.635978,61.938 C288.192978,61.938 287.082978,62.049 285.639978,61.938 L283.197978,61.827 C281.754978,61.827 280.866978,61.605 280.089978,60.828 C279.312978,60.162 278.979978,59.163 278.979978,57.498 L278.979978,55.5 L279.201978,53.28 L279.201978,51.171 L279.201978,50.727 C279.090978,49.173 279.090978,48.285 279.201978,46.731 L279.201978,46.398 L279.090978,44.289 L279.201978,41.847 L279.201978,37.407 L278.979978,35.298 L278.979978,30.636 C279.090978,29.082 279.201978,27.861 279.090978,26.307 L278.979978,23.976 L278.979978,21.756 C279.090978,20.091 279.090978,18.981 278.979978,17.316 L278.979978,14.985 L279.201978,12.876 L279.090978,8.325 C278.979978,6.882 279.090978,5.883 279.201978,4.44 C279.201978,2.997 278.868978,2.109 278.091978,1.332 C277.314978,0.666 276.315978,0.333 274.761978,0.333 L272.874978,0.222 L270.654978,0.333 L269.877978,0.333 C268.434978,0.222 267.324978,0.222 266.325978,0.222 C264.882978,0.222 263.994978,0.333 263.328978,0.222 C262.662978,0.111 261.885978,0.444 261.108978,1.11 Z" id="Path"></path>
            </g>
            <g id="for-people" transform="translate(-0, 92.891)" fill="">
                <path d="M6.604,36.972 C7.8,36.972 8.788,35.984 8.788,34.788 L8.788,15.86 L14.456,15.86 C15.652,15.86 16.64,14.872 16.64,13.676 C16.64,12.48 15.652,11.492 14.456,11.492 L8.788,11.492 L8.788,11.128 C8.788,6.864 10.348,4.368 12.688,4.368 C13.832,4.368 14.924,5.044 15.236,5.928 C15.548,6.76 16.38,7.384 17.316,7.384 C18.512,7.384 19.5,6.396 19.5,5.2 C19.5,4.94 19.448,4.628 19.344,4.42 C18.408,1.768 15.652,0 12.688,0 C7.696,0 4.42,4.472 4.42,11.128 L4.42,11.492 L2.184,11.492 C0.988,11.492 0,12.48 0,13.676 C0,14.872 0.988,15.86 2.184,15.86 L4.42,15.86 L4.42,34.788 C4.42,35.984 5.408,36.972 6.604,36.972 Z" id="Path"></path>
                <path d="M27.456,37.492 C33.852,37.492 38.168,32.24 38.168,24.648 C38.168,16.9 33.8,11.44 27.456,11.44 C21.06,11.44 16.692,16.9 16.692,24.648 C16.692,32.292 21.008,37.492 27.456,37.492 Z M27.456,33.124 C23.556,33.124 21.06,29.9 21.06,24.648 C21.06,19.292 23.556,15.808 27.456,15.808 C31.252,15.808 33.8,19.292 33.8,24.648 C33.8,29.9 31.304,33.124 27.456,33.124 Z" id="Shape"></path>
                <path d="M45.344,36.972 C46.54,36.972 47.528,35.984 47.528,34.788 L47.528,22.568 C47.632,18.304 49.608,15.808 52.78,15.808 C54.34,15.808 55.744,16.536 56.056,17.368 C56.368,18.2 57.2,18.824 58.136,18.824 C59.332,18.824 60.32,17.836 60.32,16.64 C60.32,16.38 60.268,16.068 60.164,15.86 C59.176,13.156 56.108,11.44 52.78,11.44 C50.804,11.44 49.036,11.96 47.58,13 C47.372,12.012 46.488,11.284 45.448,11.284 C44.252,11.284 43.264,12.272 43.264,13.468 L43.16,22.516 L43.16,22.568 L43.16,34.788 C43.16,35.984 44.148,36.972 45.344,36.972 Z" id="Path"></path>
                <path d="M78.936,36.972 C80.132,36.972 81.12,35.984 81.12,34.788 L81.12,21.424 L87.568,21.424 C93.652,21.424 97.76,17.212 97.76,10.92 C97.76,4.992 93.288,0.468 87.568,0.468 C86.476,0.468 85.592,0.468 84.656,0.468 C83.876,0.468 83.044,0.468 82.108,0.468 C81.12,0.468 80.132,0.468 78.988,0.468 C77.532,0.468 76.752,1.196 76.752,2.652 L76.752,34.788 C76.752,35.984 77.74,36.972 78.936,36.972 Z M81.12,17.056 L81.12,4.836 C81.432,4.836 81.796,4.836 82.108,4.836 C83.044,4.836 83.824,4.836 84.708,4.836 C85.54,4.836 86.476,4.836 87.568,4.836 C90.896,4.836 93.392,7.384 93.392,10.92 C93.392,14.82 91.208,17.056 87.568,17.056 L81.12,17.056 Z" id="Shape"></path>
                <path d="M107.796,37.492 C111.488,37.492 115.024,35.568 117.312,32.396 C117.572,32.032 117.728,31.564 117.728,31.096 C117.728,29.9 116.74,28.912 115.544,28.912 C114.816,28.912 114.14,29.276 113.776,29.848 C112.268,31.928 110.084,33.124 107.796,33.124 C104,33.124 101.4,30.108 101.4,25.532 C101.4,25.376 101.4,25.272 101.4,25.116 L116.324,25.116 C117.676,25.116 118.56,24.388 118.56,22.984 C118.612,16.484 114.244,11.648 108.316,11.648 C101.712,11.648 97.032,17.42 97.032,25.532 C97.032,32.448 101.556,37.492 107.796,37.492 Z M102.18,20.748 C103.324,17.784 105.56,16.016 108.316,16.016 C111.124,16.016 113.256,17.836 113.932,20.748 L102.18,20.748 Z" id="Shape"></path>
                <path d="M133.276,37.492 C139.672,37.492 143.988,32.24 143.988,24.648 C143.988,16.9 139.62,11.44 133.276,11.44 C126.88,11.44 122.512,16.9 122.512,24.648 C122.512,32.292 126.828,37.492 133.276,37.492 Z M133.276,33.124 C129.376,33.124 126.88,29.9 126.88,24.648 C126.88,19.292 129.376,15.808 133.276,15.808 C137.072,15.808 139.62,19.292 139.62,24.648 C139.62,29.9 137.124,33.124 133.276,33.124 Z" id="Shape"></path>
                <path d="M150.176,47.008 C151.372,47.008 152.36,46.02 152.36,44.824 L152.36,36.556 C153.66,37.18 155.22,37.544 156.832,37.544 C163.228,37.544 167.388,32.24 167.388,24.232 C167.388,16.38 163.592,11.388 157.508,11.388 C155.48,11.388 153.556,11.96 151.944,12.948 C151.528,12.376 150.852,12.012 150.124,12.012 C148.928,12.012 147.94,13 147.94,14.196 L147.992,19.084 L147.992,44.824 C147.992,46.02 148.98,47.008 150.176,47.008 Z M156.832,33.176 C154.388,33.176 152.36,31.772 152.36,30.368 L152.36,19.084 C152.36,17.524 154.96,15.756 157.508,15.756 C160.992,15.756 163.02,18.72 163.02,24.232 C163.02,29.9 160.628,33.176 156.832,33.176 Z" id="Shape"></path>
                <path d="M174.044,37.18 C175.24,37.18 176.228,36.192 176.228,34.996 L176.228,2.652 C176.228,1.456 175.24,0.468 174.044,0.468 C172.848,0.468 171.86,1.456 171.86,2.652 L171.86,34.996 C171.86,36.192 172.848,37.18 174.044,37.18 Z" id="Path"></path>
                <path d="M190.944,37.492 C194.636,37.492 198.172,35.568 200.46,32.396 C200.72,32.032 200.876,31.564 200.876,31.096 C200.876,29.9 199.888,28.912 198.692,28.912 C197.964,28.912 197.288,29.276 196.924,29.848 C195.416,31.928 193.232,33.124 190.944,33.124 C187.148,33.124 184.548,30.108 184.548,25.532 C184.548,25.376 184.548,25.272 184.548,25.116 L199.472,25.116 C200.824,25.116 201.708,24.388 201.708,22.984 C201.76,16.484 197.392,11.648 191.464,11.648 C184.86,11.648 180.18,17.42 180.18,25.532 C180.18,32.448 184.704,37.492 190.944,37.492 Z M185.328,20.748 C186.472,17.784 188.708,16.016 191.464,16.016 C194.272,16.016 196.404,17.836 197.08,20.748 L185.328,20.748 Z" id="Shape"></path>
            </g>
        </g>
    </g>
</svg>