
<svg id="hero" viewBox="0 0 3000 1575" version="1.1" xmlns="http://www.w3.org/2000/svg" xmlns:xlink="http://www.w3.org/1999/xlink">
    <defs>
        <rect id="path-535ywfpbwe-1" x="0" y="0" width="3000" height="1575"></rect>
    </defs>
    <g id="Page-1" stroke="none" stroke-width="1" fill="none" fill-rule="evenodd">
        <g id="BWatson_Cover_01">
            <mask id="mask-535ywfpbwe-2" fill="white">
                <use xlink:href="#path-535ywfpbwe-1"></use>
            </mask>
            <g id="Rectangle"></g>
            <g id="Group" mask="url(#mask-535ywfpbwe-2)">
                <g transform="translate(-157.55, -157.55)">
                    <rect id="Rectangle" stroke="#465362" stroke-width="10" fill="#BBDEFB" fill-rule="nonzero" stroke-linecap="round" stroke-linejoin="round" x="58.65" y="17.18" width="3197.81" height="1847.5"></rect>
                    <g id="rocket" stroke="none" stroke-width="1" fill="none" fill-rule="evenodd" transform="translate(229.67, 206.93)">
                        <g id="exhaust" transform="translate(6.88, 583.62)" fill="#FFFFFF" fill-rule="nonzero">
                            <path d="M48.02,0 L50.84,380.355 C50.84,393.605 40.08,404.365 26.83,404.365 C13.58,404.365 2.82,393.605 2.82,380.355 L0,0 L48.02,0 Z" id="left"></path>
                            <path d="M74.32,0 L140.73,0 L140.73,371.155 C140.73,389.485 125.85,404.365 107.52,404.365 C89.19,404.365 74.31,389.485 74.31,371.155 L74.31,0 L74.32,0 Z" id="center"></path>
                            <path d="M211,0 L211,380.355 C211,393.605 200.24,404.365 186.99,404.365 C173.74,404.365 162.98,393.605 162.98,380.355 L162.98,0 L211,0 Z" id="right"></path>
                        </g>
                        <polygon id="Path" stroke="#465362" stroke-width="10" fill="#FFB74D" fill-rule="nonzero" stroke-linecap="round" stroke-linejoin="round" points="167.25 609.41 113.76 609.41 60.28 609.41 60.28 336.48 81.55 218.29 145.98 218.29 167.25 336.48"></polygon>
                        <path d="M107.44,680.74 L80.29,680.74 C80.29,664.7 86.37,651.7 93.87,651.7 C101.37,651.7 107.45,664.7 107.45,680.74 L107.44,680.74 Z" id="Path" stroke="#465362" stroke-width="10" fill="#465362" fill-rule="nonzero" stroke-linecap="round" stroke-linejoin="round"></path>
                        <path d="M147.58,680.74 L120.43,680.74 C120.43,664.7 126.51,651.7 134.01,651.7 C141.51,651.7 147.59,664.7 147.59,680.74 L147.58,680.74 Z" id="Path" stroke="#465362" stroke-width="10" fill="#465362" fill-rule="nonzero" stroke-linecap="round" stroke-linejoin="round"></path>
                        <path d="M132.28,83.62 C129.68,61.35 126.16,31.07 123.55,8.71 C122.97,3.74 118.77,-5.68434189e-14 113.77,-5.68434189e-14 L113.77,-5.68434189e-14 C108.77,-5.68434189e-14 104.56,3.75 103.99,8.71 L95.26,83.61 C86.82,89.48 81.29,99.24 81.29,110.29 L81.29,218.28 L146.25,218.28 L146.25,110.29 C146.25,99.23 140.72,89.47 132.28,83.61 L132.28,83.62 Z" id="Path" stroke="#465362" stroke-width="10" fill="#FFFFFF" fill-rule="nonzero" stroke-linecap="round" stroke-linejoin="round"></path>
                        <path d="M60.28,609.41 L167.25,609.41 L167.25,622.58 C167.25,639.39 153.6,653.04 136.79,653.04 L90.73,653.04 C73.92,653.04 60.27,639.39 60.27,622.58 L60.27,609.41 L60.27,609.41 L60.28,609.41 Z" id="Path" stroke="#465362" stroke-width="10" fill="#FFFFFF" fill-rule="nonzero" stroke-linecap="round" stroke-linejoin="round"></path>
                        <circle id="Oval" fill="#1565C0" fill-rule="nonzero" cx="113.76" cy="154.3" r="19.75"></circle>
                        <rect id="Rectangle" fill="#465362" fill-rule="nonzero" x="96.59" y="352.73" width="17.17" height="17.17"></rect>
                        <rect id="Rectangle" fill="#465362" fill-rule="nonzero" x="113.76" y="369.91" width="17.17" height="17.17"></rect>
                        <rect id="Rectangle" fill="#FFFFFF" fill-rule="nonzero" transform="translate(122.355, 361.325) rotate(180) translate(-122.355, -361.325)" x="113.77" y="352.74" width="17.17" height="17.17"></rect>
                        <rect id="Rectangle" fill="#FFFFFF" fill-rule="nonzero" transform="translate(105.175, 378.495) rotate(180) translate(-105.175, -378.495)" x="96.59" y="369.91" width="17.17" height="17.17"></rect>
                        <rect id="Rectangle" fill="#465362" fill-rule="nonzero" x="96.59" y="544.5" width="17.17" height="17.17"></rect>
                        <rect id="Rectangle" fill="#465362" fill-rule="nonzero" x="113.76" y="561.67" width="17.17" height="17.17"></rect>
                        <rect id="Rectangle" fill="#FFFFFF" fill-rule="nonzero" transform="translate(122.355, 553.085) rotate(180) translate(-122.355, -553.085)" x="113.77" y="544.5" width="17.17" height="17.17"></rect>
                        <rect id="Rectangle" fill="#FFFFFF" fill-rule="nonzero" transform="translate(105.175, 570.265) rotate(180) translate(-105.175, -570.265)" x="96.59" y="561.68" width="17.17" height="17.17"></rect>
                        <polygon id="Path" stroke="#465362" stroke-width="10" fill="#FFFFFF" fill-rule="nonzero" stroke-linecap="round" stroke-linejoin="round" points="52.64 661.11 14.73 661.11 9.68 685.77 57.69 685.77"></polygon>
                        <polygon id="Path" stroke="#465362" stroke-width="10" fill="#FFFFFF" fill-rule="nonzero" stroke-linecap="round" stroke-linejoin="round" points="60.28 631.22 7.09 631.22 0 665.83 67.37 665.83"></polygon>
                        <polygon id="Path" stroke="#465362" stroke-width="10" fill="#FFFFFF" fill-rule="nonzero" stroke-linecap="round" stroke-linejoin="round" points="33.68 358.88 7.09 423.15 7.09 631.23 60.28 631.23 60.28 423.15"></polygon>
                        <line x1="7.09" y1="425.99" x2="60.28" y2="425.99" id="Path" stroke="#465362" stroke-width="10" stroke-linecap="round" stroke-linejoin="round"></line>
                        <line x1="7.09" y1="527.19" x2="60.28" y2="527.19" id="Path" stroke="#465362" stroke-width="10" stroke-linecap="round" stroke-linejoin="round"></line>
                        <line x1="7.09" y1="631.23" x2="60.28" y2="631.23" id="Path" stroke="#465362" stroke-width="10" stroke-linecap="round" stroke-linejoin="round"></line>
                        <polygon id="Path" stroke="#465362" stroke-width="10" fill="#FFFFFF" fill-rule="nonzero" stroke-linecap="round" stroke-linejoin="round" points="212.8 661.11 174.89 661.11 169.83 685.77 217.85 685.77"></polygon>
                        <polygon id="Path" stroke="#465362" stroke-width="10" fill="#FFFFFF" fill-rule="nonzero" stroke-linecap="round" stroke-linejoin="round" points="220.44 631.22 167.25 631.22 160.16 665.83 227.52 665.83"></polygon>
                        <polygon id="Path" stroke="#465362" stroke-width="10" fill="#FFFFFF" fill-rule="nonzero" stroke-linecap="round" stroke-linejoin="round" points="193.84 358.88 167.25 423.15 167.25 631.23 220.44 631.23 220.44 423.15"></polygon>
                        <line x1="167.25" y1="425.99" x2="220.44" y2="425.99" id="Path" stroke="#465362" stroke-width="10" stroke-linecap="round" stroke-linejoin="round"></line>
                        <line x1="167.25" y1="527.19" x2="220.44" y2="527.19" id="Path" stroke="#465362" stroke-width="10" stroke-linecap="round" stroke-linejoin="round"></line>
                        <line x1="167.25" y1="631.23" x2="220.44" y2="631.23" id="Path" stroke="#465362" stroke-width="10" stroke-linecap="round" stroke-linejoin="round"></line>
                    </g>
                    <rect id="Rectangle" stroke="none" fill="#BBDEFB" fill-rule="evenodd" x="145.55" y="930.55" width="673" height="275"></rect>
                    <rect id="Rectangle" stroke="#465362" stroke-width="10" fill="#FFE0B2" fill-rule="nonzero" stroke-linecap="round" stroke-linejoin="round" x="58.65" y="1216.84" width="3197.81" height="647.85"></rect>
                    <g id="solar-system" stroke="none" stroke-width="1" fill="none" fill-rule="evenodd" transform="translate(2445.29, 0)" stroke-linecap="round" stroke-linejoin="round">
                        <g id="venus" transform="translate(197.59, 0)" stroke="#465362" stroke-width="10">
                            <g id="Group-3">
                                <circle id="Oval" fill="#81C784" fill-rule="nonzero" cx="51.45" cy="828.5" r="51.45"></circle>
                                <line x1="51.45" y1="777.04" x2="51.45" y2="0" id="Path"></line>
                            </g>
                        </g>
                        <g id="saturn" transform="translate(337.935, 24.53)" stroke="#465362" stroke-width="10">
                            <g id="Group-4">
                                <circle id="Oval" fill="#BB9C87" fill-rule="nonzero" cx="159.545015" cy="803.97" r="91.14"></circle>
                                <path d="M317.826129,855.327824 C328.549448,822.285602 266.363812,772.497084 178.930625,744.122058 C91.497437,715.747031 11.9258668,719.530541 1.20254808,752.572763 C-9.52077065,785.614986 52.6648648,835.403503 140.098052,863.77853 C227.53124,892.153556 307.10281,888.370047 317.826129,855.327824 Z" id="Oval" fill="#ECEFF1" fill-rule="nonzero"></path>
                                <path d="M246.235015,832.1 C230.695015,879.98 57.3150146,823.71 72.8550146,775.83 C88.3950146,727.95 139.805015,701.74 187.675015,717.28 C235.555015,732.82 261.765015,784.23 246.225015,832.1 L246.235015,832.1 Z" id="Path" fill="#BB9C87" fill-rule="nonzero"></path>
                                <line x1="161.295015" y1="712.8" x2="161.295015" y2="0" id="Path"></line>
                            </g>
                        </g>
                        <g id="mars" transform="translate(381.28, 1.07)" stroke="#465362" stroke-width="10">
                            <g id="Group-5" transform="translate(-0, 0)">
                                <circle id="Oval" fill="#FF8080" fill-rule="nonzero" cx="42.66" cy="657.52" r="42.66"></circle>
                                <line x1="42.66" y1="614.86" x2="42.66" y2="0" id="Path"></line>
                            </g>
                        </g>
                        <g id="jupiter" transform="translate(181.66, 57.97)" stroke="#465362" stroke-width="10">
                            <g id="Group-6">
                                <line x1="89.26" y1="504.49" x2="89.26" y2="0" id="Path"></line>
                                <path d="M178.52,593.75 C178.52,643.05 138.56,683.01 89.26,683.01 C64.79,683.01 42.62,673.16 26.5,657.2 C18.48,649.29 11.96,639.85 7.4,629.38 C2.64,618.47 0,606.42 0,593.75 C0,579.34 3.41,565.73 9.49,553.68 C14.86,543 22.32,533.54 31.34,525.85 C46.92,512.54 67.15,504.5 89.26,504.5 C111.37,504.5 131.59,512.54 147.18,525.85 C156.2,533.54 163.66,543 169.03,553.68 C175.11,565.73 178.52,579.35 178.52,593.75 L178.52,593.75 Z" id="Path" fill="#FFCC80" fill-rule="nonzero"></path>
                                <ellipse id="Oval" fill="#FF8080" fill-rule="nonzero" cx="117.6" cy="619.63" rx="30.61" ry="13.92"></ellipse>
                                <path d="M169.03,553.67 L9.49,553.67 C14.86,542.99 22.32,533.53 31.34,525.84 L147.18,525.84 C156.2,533.53 163.66,542.99 169.03,553.67 Z" id="Path" fill="#FFB74D" fill-rule="nonzero"></path>
                                <path d="M69.17,643.28 C69.17,647.12 67.62,650.6 65.1,653.13 C62.57,655.65 59.1,657.2 55.25,657.2 L26.49,657.2 C18.47,649.29 11.95,639.85 7.39,629.38 L55.25,629.38 C62.94,629.38 69.17,635.61 69.17,643.29 L69.17,643.28 Z" id="Path" fill="#FFB74D" fill-rule="nonzero"></path>
                            </g>
                        </g>
                        <g id="sun" transform="translate(179.75, 33.45)" stroke="#465362" stroke-width="10">
                            <g id="Group-7">
                                <circle id="Oval" fill="#FFF176" fill-rule="nonzero" cx="134.15" cy="371.76" r="134.15"></circle>
                                <line x1="134.15" y1="237.61" x2="134.15" y2="0" id="Path"></line>
                            </g>
                        </g>
                        <g id="mercury" transform="translate(86.44, 57.78)" stroke="#465362" stroke-width="10">
                            <g id="Group-8">
                                <circle id="Oval" fill="#CFD8DC" fill-rule="nonzero" cx="43.99" cy="443.87" r="43.99"></circle>
                                <line x1="43.99" y1="396.96" x2="43.99" y2="0" id="Path"></line>
                            </g>
                        </g>
                        <g id="neptune" transform="translate(0, 57.78)" stroke="#465362" stroke-width="10">
                            <g id="Group-9">
                                <path d="M133.44,632.13 C133.44,642.86 130.91,652.99 126.4,661.97 C122.44,669.89 116.95,676.91 110.32,682.64 C98.63,692.74 83.39,698.85 66.72,698.85 C38.53,698.85 14.42,681.37 4.65,656.65 C2.45,651.07 0.97,645.13 0.34,638.93 C0.12,636.69 0,634.43 0,632.13 C0,629.03 0.21,625.97 0.63,622.98 C2.12,612.07 6.25,602 12.36,593.44 C24.46,576.48 44.3,565.42 66.72,565.42 C89.14,565.42 108.98,576.48 121.08,593.44 C127.19,602 131.32,612.07 132.81,622.98 C133.23,625.97 133.44,629.03 133.44,632.13 L133.44,632.13 Z" id="Path" fill="#64B5F6" fill-rule="nonzero"></path>
                                <line x1="66.72" y1="565.42" x2="66.72" y2="0" id="Path"></line>
                            </g>
                        </g>
                        <g id="earth" transform="translate(478.69, 73.58)" stroke="#465362" stroke-width="10">
                            <g id="Group-2">
                                <path d="M134.16,459.58 C134.16,469.85 131.86,479.57 127.73,488.26 C122.83,498.63 115.34,507.54 106.1,514.15 C95.11,522.02 81.63,526.66 67.08,526.66 C52.53,526.66 39.05,522.02 28.06,514.15 C17.09,506.28 8.58,495.19 3.93,482.26 C1.38,475.18 0,467.55 0,459.58 C0,437.09 11.08,417.18 28.07,405.01 C33.87,400.85 40.36,397.6 47.33,395.46 C53.58,393.54 60.21,392.51 67.08,392.51 C81.63,392.51 95.1,397.15 106.09,405.02 C115.33,411.64 122.82,420.54 127.72,430.91 C131.84,439.61 134.15,449.33 134.15,459.59 L134.16,459.58 Z" id="Path" fill="#64B5F6" fill-rule="nonzero"></path>
                                <path d="M62.92,432.09 C62.92,460.16 40.17,482.91 12.1,482.91 C9.32,482.91 6.59,482.68 3.94,482.26 C1.39,475.18 0.01,467.55 0.01,459.58 C0.01,437.09 11.09,417.18 28.08,405.01 C33.88,400.85 40.37,397.6 47.34,395.46 C56.95,404.7 62.93,417.7 62.93,432.09 L62.92,432.09 Z" id="Path" fill="#81C784" fill-rule="nonzero"></path>
                                <path d="M134.16,459.58 C134.16,469.85 131.86,479.57 127.73,488.26 C116.48,483.61 108.55,472.52 108.55,459.58 C108.55,446.64 116.48,435.56 127.73,430.9 C131.85,439.6 134.16,449.32 134.16,459.58 Z" id="Path" fill="#81C784" fill-rule="nonzero"></path>
                                <path d="M106.1,405.01 C95.11,412.88 81.64,417.52 67.09,417.52 C52.54,417.52 39.07,412.88 28.08,405.01 C39.07,397.14 52.54,392.5 67.09,392.5 C81.64,392.5 95.11,397.14 106.1,405.01 Z" id="Path" fill="#FFFFFF" fill-rule="nonzero"></path>
                                <path d="M106.1,514.15 C95.11,522.02 81.63,526.66 67.08,526.66 C52.53,526.66 39.05,522.02 28.06,514.15 C39.05,506.27 52.53,501.64 67.08,501.64 C81.63,501.64 95.11,506.28 106.1,514.15 Z" id="Path" fill="#FFFFFF" fill-rule="nonzero"></path>
                                <line x1="67.08" y1="392.5" x2="67.08" y2="0" id="Path"></line>
                            </g>
                        </g>
                    </g>
                    <path d="M0,892.7 L843.96,892.7 C858.41,892.7 870.13,904.43 870.13,918.87 L870.13,918.87 C870.13,933.32 858.4,945.04 843.96,945.04 L0,945.04 L0,892.69 L0,892.69 L0,892.7 Z" id="Path" stroke="#465362" stroke-width="10" fill="#FFFFFF" fill-rule="nonzero" stroke-linecap="round" stroke-linejoin="round"></path>
                    <path d="M1904.67,1343.62 L1904.67,1360.64 C1904.67,1371.3 1896.08,1380.91 1884.37,1380.91 L1398.59,1380.91 C1386.88,1380.91 1378.29,1371.3 1378.29,1360.64 L1378.29,1343.62 C1378.29,1340.82 1378.88,1337.94 1380.17,1335.15 L1416.29,1256.61 C1419.6,1249.41 1426.8,1244.8 1434.72,1244.8 L1848.24,1244.8 C1856.16,1244.8 1863.35,1249.41 1866.66,1256.61 L1902.79,1335.15 C1904.08,1337.94 1904.67,1340.82 1904.67,1343.62 L1904.67,1343.62 Z" id="Path" stroke="#465362" stroke-width="10" fill="#64B5F6" fill-rule="nonzero" stroke-linecap="round" stroke-linejoin="round"></path>
                    <rect id="Rectangle" stroke="#465362" stroke-width="10" fill="#64B5F6" fill-rule="nonzero" stroke-linecap="round" stroke-linejoin="round" x="1478.34" y="930.63" width="320.39" height="357.55"></rect>
                    <path d="M2271.84,349.73 L2271.84,1122.23 C2271.84,1148.42 2250.61,1169.65 2224.42,1169.65 L1052.64,1169.65 C1026.44,1169.65 1005.21,1148.42 1005.21,1122.23 L1005.21,349.73 C1005.21,323.54 1026.44,302.3 1052.64,302.3 L2224.42,302.3 C2250.61,302.3 2271.84,323.54 2271.84,349.73 Z" id="Path" stroke="#465362" stroke-width="10" fill="#64B5F6" fill-rule="nonzero" stroke-linecap="round" stroke-linejoin="round"></path>
                    <path d="M2271.84,349.73 L2271.84,1038.67 L1005.21,1038.67 L1005.21,349.73 C1005.21,323.54 1026.44,302.3 1052.64,302.3 L2224.42,302.3 C2250.61,302.3 2271.84,323.54 2271.84,349.73 Z" id="Path" stroke="#465362" stroke-width="10" fill="#FFFFFF" fill-rule="nonzero" stroke-linecap="round" stroke-linejoin="round"></path>
                    <rect id="Rectangle" stroke="#465362" stroke-width="10" fill="#FF8080" fill-rule="nonzero" stroke-linecap="round" stroke-linejoin="round" transform="translate(1638.535, 668.87) rotate(90) translate(-1638.535, -668.87)" x="1318.735" y="82.325" width="639.6" height="1173.09"></rect>
                    <path d="M2067.89,1590.51 L2009.02,1462.54 C2003.62,1450.82 1991.9,1443.3 1979,1443.3 L1298.06,1443.3 C1285.16,1443.3 1273.44,1450.81 1268.04,1462.54 L1209.17,1590.51 C1207.07,1595.06 1206.1,1599.75 1206.1,1604.32 L1206.1,1611.17 C1206.1,1628.56 1220.11,1644.21 1239.19,1644.21 L2037.86,1644.21 C2056.94,1644.21 2070.95,1628.56 2070.95,1611.17 L2070.95,1604.32 C2070.95,1599.74 2069.98,1595.06 2067.88,1590.51 L2067.89,1590.51 Z" id="Path" stroke="#465362" stroke-width="10" fill="#64B5F6" fill-rule="nonzero" stroke-linecap="round" stroke-linejoin="round"></path>
                    <path d="M1120.28,778.05 C1169.07,840.99 1233.87,894.35 1311.61,915.72 C1410.18,943.2 1515.58,919.87 1605.79,875.86 C1686.77,836.25 1759,780.11 1822.11,716.01 C1885.33,651.72 1939.72,579.03 1985.69,501.65 L2042.17,537.56 C1935.95,693.32 1795.21,832.51 1619.72,906.84 C1521.97,947.54 1409.15,965.56 1307.02,930.44 C1273.57,918.93 1242.26,901.73 1214.15,880.33 C1177.07,851.99 1145.82,816.87 1119.47,778.64 C1119.47,778.64 1120.28,778.05 1120.28,778.05 L1120.28,778.05 L1120.28,778.05 Z" id="Path" stroke="none" fill="#FFCDD2" fill-rule="nonzero"></path>
                    <path d="M2035.31,1568.41 L1976.93,1441.49 C1975.53,1438.43 1972.45,1436.47 1969.09,1436.47 L1307.98,1436.47 C1304.62,1436.47 1301.54,1438.44 1300.14,1441.49 L1241.76,1568.41 C1241.17,1569.71 1240.94,1570.92 1240.94,1572.02 L1240.94,1586.47 C1240.94,1588.51 1241.72,1590.14 1242.34,1591.09 C1243.29,1592.58 1245.49,1595.06 1249.6,1595.06 L2027.48,1595.06 C2031.59,1595.06 2033.78,1592.57 2034.74,1591.09 C2035.36,1590.14 2036.14,1588.51 2036.14,1586.47 L2036.14,1572.02 C2036.14,1570.92 2035.91,1569.71 2035.32,1568.41 L2035.31,1568.41 Z" id="Path" stroke="#465362" stroke-width="10" fill="#FFFFFF" fill-rule="nonzero" stroke-linecap="round" stroke-linejoin="round"></path>
                    <rect id="Rectangle" stroke="#465362" stroke-width="10" fill="#FFFFFF" fill-rule="nonzero" stroke-linecap="round" stroke-linejoin="round" x="1151.64" y="580.93" width="973.78" height="175.88" rx="87.94"></rect>
                    <circle id="Oval" stroke="#465362" stroke-width="10" fill="#FFFFFF" fill-rule="nonzero" stroke-linecap="round" stroke-linejoin="round" cx="2089.33" cy="402.3" r="11.76"></circle>
                    <ellipse id="Oval" stroke="#465362" stroke-width="10" fill="#FFFFFF" fill-rule="nonzero" stroke-linecap="round" stroke-linejoin="round" transform="translate(2077.7895, 421.6416) rotate(-57.73) translate(-2077.7895, -421.6416)" cx="2077.7895" cy="421.641632" rx="22" ry="49.52"></ellipse>
                    <line x1="1959.35" y1="505" x2="2039.74" y2="479.85" id="Path" stroke="#465362" stroke-width="10" fill="none" stroke-linecap="round" stroke-linejoin="round"></line>
                    <path d="M1917.08,548.83 L1947.74,546.16 C1960.11,545.08 1968.7,534.88 1965.15,523.53 L1953.56,486.48 C1950.01,475.13 1937.14,471.64 1926.36,477.81 L1899.64,493.09 C1893.32,496.7 1890.54,505.31 1892.83,512.66 L1900.33,536.64 C1902.63,543.99 1909.82,549.48 1917.08,548.84 L1917.08,548.83 Z" id="Path" stroke="#465362" stroke-width="10" fill="#64B5F6" fill-rule="nonzero" stroke-linecap="round" stroke-linejoin="round"></path>
                    <line x1="1927.09" y1="497.88" x2="1936.9" y2="529.24" id="Path" stroke="#465362" stroke-width="10" fill="none" stroke-linecap="round" stroke-linejoin="round"></line>
                    <line x1="1907.68" y1="506.25" x2="1916.18" y2="533.42" id="Path" stroke="#465362" stroke-width="10" fill="none" stroke-linecap="round" stroke-linejoin="round"></line>
                    <line x1="2051.59" y1="563.24" x2="2039.74" y2="479.85" id="Path" stroke="#465362" stroke-width="10" fill="none" stroke-linecap="round" stroke-linejoin="round"></line>
                    <path d="M2030.2,620.25 L2019.43,591.42 C2015.08,579.79 2020.6,567.65 2032.38,565.97 L2070.82,560.5 C2082.59,558.83 2091.28,568.95 2090.35,581.33 L2088.05,612.02 C2087.51,619.28 2080.93,625.5 2073.31,626.58 L2048.43,630.12 C2040.81,631.2 2032.76,627.07 2030.21,620.25 L2030.2,620.25 Z" id="Path" stroke="#465362" stroke-width="10" fill="#64B5F6" fill-rule="nonzero" stroke-linecap="round" stroke-linejoin="round"></path>
                    <line x1="2071.89" y1="589.31" x2="2039.37" y2="593.93" id="Path" stroke="#465362" stroke-width="10" fill="none" stroke-linecap="round" stroke-linejoin="round"></line>
                    <line x1="2072.69" y1="610.43" x2="2044.49" y2="614.44" id="Path" stroke="#465362" stroke-width="10" fill="none" stroke-linecap="round" stroke-linejoin="round"></line>
                    <circle id="Oval" stroke="#465362" stroke-width="10" fill="#BBDEFB" fill-rule="nonzero" stroke-linecap="round" stroke-linejoin="round" cx="2039.73" cy="479.85" r="66.81"></circle>
                    <path d="M2072.33,470.31 C2065.71,480.8 2051.83,483.94 2041.34,477.31 C2030.85,470.69 2027.71,456.81 2034.34,446.32 L2072.33,470.31 Z" id="Path" stroke="#465362" stroke-width="10" fill="#FFFFFF" fill-rule="nonzero" stroke-linecap="round" stroke-linejoin="round"></path>
                    <rect id="Rectangle" stroke="none" fill="#465362" fill-rule="nonzero" transform="translate(2020.6631, 437.5835) rotate(32.27) translate(-2020.6631, -437.5835)" x="2012.65809" y="426.863457" width="16.01" height="21.44" rx="8.005"></rect>
                    <rect id="Rectangle" stroke="none" fill="#465362" fill-rule="nonzero" transform="translate(2086.0664, 478.8836) rotate(32.27) translate(-2086.0664, -478.8836)" x="2078.06138" y="468.163559" width="16.01" height="21.44" rx="8.005"></rect>
                    <rect id="Rectangle" stroke="#465362" stroke-width="10" fill="#FFF59D" fill-rule="nonzero" stroke-linecap="round" stroke-linejoin="round" x="506.13" y="276.82" width="106.33" height="615.88"></rect>
                    <line x1="506.13" y1="310.49" x2="612.46" y2="310.49" id="Path" stroke="#465362" stroke-width="10" fill="none" stroke-linecap="round" stroke-linejoin="round"></line>
                    <line x1="506.13" y1="855.46" x2="612.46" y2="855.46" id="Path" stroke="#465362" stroke-width="10" fill="none" stroke-linecap="round" stroke-linejoin="round"></line>
                    <path d="M545.16,509.38 C541.12,509.31 540.09,509.09 538.33,507.98 C536.05,506.51 534.73,504.01 534.73,501.29 C534.73,498.57 536.05,496 538.33,494.53 C540.09,493.43 541.49,493.13 545.16,493.13 L574.7,493.13 C578.15,493.13 579.62,493.5 581.31,494.82 C583.29,496.36 584.47,498.71 584.47,501.21 C584.47,503.71 583.22,506.28 581.31,507.75 C579.55,509.07 578.52,509.37 574.33,509.37 L567.42,509.37 L567.42,519.21 L574.11,519.21 C578,519.21 579.47,519.5 581.31,520.9 C583.29,522.37 584.47,524.65 584.47,527.15 C584.47,529.65 583.29,532.15 581.38,533.61 C579.76,534.86 577.85,535.37 574.69,535.37 L545.01,535.37 C541.63,535.37 540.31,535.08 538.62,534.05 C536.2,532.58 534.73,530.01 534.73,527.22 C534.73,524.65 535.91,522.22 537.96,520.75 C539.72,519.5 541.12,519.21 545.01,519.21 L552.06,519.21 L552.06,509.37 L545.15,509.37 L545.16,509.38 Z" id="Path" stroke="none" fill="#465362" fill-rule="nonzero"></path>
                    <path d="M569.04,548.91 C569.04,546.12 569.7,544.28 571.17,542.81 C572.71,541.34 574.55,540.53 576.53,540.53 C579.32,540.53 582.26,542.37 583.29,544.72 C584.02,546.41 584.1,547.07 584.1,553.46 L584.1,569.77 C584.1,572.803333 584.05,574.64 583.95,575.28 C583.44,579.17 580.42,581.89 576.6,581.89 C574.47,581.89 572.27,580.86 570.8,579.25 C569.62,578 569.04,575.94 569.04,573 L569.04,569.4 L544.65,569.4 C541.71,569.4 540.09,569.03 538.4,568 C536.05,566.53 534.73,564.11 534.73,561.31 C534.73,558.51 535.98,556.17 538.11,554.62 C539.8,553.52 541.2,553.22 544.5,553.22 L569.04,553.22 L569.04,548.89 L569.04,548.91 Z" id="Path" stroke="none" fill="#465362" fill-rule="nonzero"></path>
                    <path d="M580.13,619.22 C582.7,620.47 584.46,623.33 584.46,626.35 C584.46,628.33 583.58,630.54 582.26,631.93 C580.94,633.33 579.54,633.99 576.9,634.43 L545.31,640.01 C544.28,640.23 543.33,640.3 542.59,640.3 C538.18,640.3 534.73,636.77 534.73,632.37 C534.73,628.26 537.23,625.02 540.9,624.36 L550.08,622.52 L541.41,619.36 C537,617.74 534.72,614.88 534.72,611.06 C534.72,607.24 536.78,604.52 541.33,602.83 L550.07,599.6 L542.28,598.28 C537.58,597.47 534.71,594.39 534.71,590.2 C534.71,585.42 538.38,582.04 543.53,582.04 C544.19,582.04 544.85,582.11 545.51,582.19 L576.88,587.77 C581.58,588.58 584.45,591.52 584.45,595.7 C584.45,599.15 582.32,602.39 579.01,603.78 L562.77,611.05 L580.11,619.21 L580.13,619.22 Z" id="Path" stroke="none" fill="#465362" fill-rule="nonzero"></path>
                    <path d="M550.23,669.98 C550.23,672.7 549.79,674.24 548.76,675.71 C547.36,677.62 545.09,678.8 542.74,678.8 C540.61,678.8 538.33,677.84 536.94,676.3 C535.62,674.83 535.1,673.14 535.1,670.35 L535.1,654.92 C535.1,651.69 535.91,649.56 537.67,648.09 C539.87,646.11 540.98,645.89 547.74,645.89 L575.37,645.89 C580.88,645.89 584.48,649.05 584.48,653.9 C584.48,656.4 583.3,658.82 581.54,660.22 C579.56,661.69 578.09,662.06 573.46,662.06 L550.24,662.06 L550.24,669.99 L550.23,669.98 Z" id="Path" stroke="none" fill="#465362" fill-rule="nonzero"></path>
                    <rect id="Rectangle" stroke="#465362" stroke-width="10" fill="#A5D6A7" fill-rule="nonzero" stroke-linecap="round" stroke-linejoin="round" x="612.46" y="276.82" width="106.33" height="615.88"></rect>
                    <line x1="612.46" y1="310.49" x2="718.79" y2="310.49" id="Path" stroke="#465362" stroke-width="10" fill="none" stroke-linecap="round" stroke-linejoin="round"></line>
                    <line x1="612.46" y1="855.46" x2="718.79" y2="855.46" id="Path" stroke="#465362" stroke-width="10" fill="none" stroke-linecap="round" stroke-linejoin="round"></line>
                    <path d="M646.64,562.5 C642.53,557.72 640.17,551.63 640.17,545.38 C640.17,531.05 651.63,519.45 665.81,519.45 C679.99,519.45 691.6,531.13 691.6,545.46 C691.6,551.41 689.54,557.14 685.65,561.84 C682.49,565.81 679.18,567.79 675.95,567.79 C671.54,567.79 667.87,564.19 667.87,559.71 C667.87,557.8 668.68,555.74 669.85,554.64 L672.42,552.29 C674.33,550.53 675.36,547.96 675.36,545.31 C675.36,539.95 671.17,535.69 665.81,535.69 C660.45,535.69 656.26,539.95 656.26,545.24 C656.26,547.88 657.44,550.53 659.49,552.44 L661.25,554.13 C662.65,555.45 663.6,557.66 663.6,559.71 C663.6,563.97 659.85,567.79 655.67,567.79 C652.73,567.79 649.65,565.95 646.63,562.5 L646.64,562.5 Z" id="Path" stroke="none" fill="#465362" fill-rule="nonzero"></path>
                    <path d="M652.59,572.05 C656.7,572.05 659.94,575.28 659.94,579.4 C659.94,581.38 659.28,583.07 657.59,585.13 C654.87,588.66 654.58,589.1 654.58,590.27 C654.58,591.52 655.46,592.33 656.71,592.33 C657.59,592.33 658.18,591.96 658.77,591.08 C659.06,590.64 659.21,590.42 660.17,587.85 C660.61,586.53 661.05,585.21 661.57,583.88 C664.07,576.75 668.7,573.23 675.53,573.23 C685.08,573.23 691.62,580.58 691.62,591.23 C691.62,600.05 686.92,606.95 680.89,606.95 C677,606.95 674.2,604.31 674.2,600.63 C674.2,598.43 674.93,596.66 676.99,593.94 C678.39,592.25 678.75,591.44 678.75,590.56 C678.75,589.53 677.87,588.65 676.84,588.65 C675.37,588.65 674.71,589.68 673.46,593.5 C672.21,597.69 670.23,601.66 668.32,603.93 C665.82,606.94 661.41,608.85 656.79,608.85 C652.17,608.85 648.12,607.16 645.11,604.22 C641.8,600.91 640.19,596.51 640.19,590.48 C640.19,580.05 645.63,572.04 652.61,572.04 L652.59,572.05 Z" id="Path" stroke="none" fill="#465362" fill-rule="nonzero"></path>
                    <path d="M652.59,613.49 C656.7,613.49 659.94,616.72 659.94,620.84 C659.94,622.82 659.28,624.51 657.59,626.57 C654.87,630.1 654.58,630.54 654.58,631.71 C654.58,632.96 655.46,633.77 656.71,633.77 C657.59,633.77 658.18,633.4 658.77,632.52 C659.06,632.08 659.21,631.86 660.17,629.29 C660.61,627.97 661.05,626.65 661.57,625.32 C664.07,618.19 668.7,614.67 675.53,614.67 C685.08,614.67 691.62,622.02 691.62,632.67 C691.62,641.49 686.92,648.39 680.89,648.39 C677,648.39 674.2,645.75 674.2,642.07 C674.2,639.87 674.93,638.1 676.99,635.38 C678.39,633.69 678.75,632.88 678.75,632 C678.75,630.97 677.87,630.09 676.84,630.09 C675.37,630.09 674.71,631.12 673.46,634.94 C672.21,639.13 670.23,643.1 668.32,645.37 C665.82,648.38 661.41,650.29 656.79,650.29 C652.17,650.29 648.12,648.6 645.11,645.66 C641.8,642.35 640.19,637.95 640.19,631.92 C640.19,621.49 645.63,613.48 652.61,613.48 L652.59,613.49 Z" id="Path" stroke="none" fill="#465362" fill-rule="nonzero"></path>
                    <path d="M2960.51087,1360.04 L2960.11,1388.43 C2960.1,1389.21 2959.98,1389.99 2959.75,1390.78 L2902.17,1585.76 C2897.66,1601.03 2876,1611.63 2854.05,1608.93 L2675.08,1586.95 C2659.46,1585.04 2650.29,1576.68 2650.42842,1566.62 L2650.83,1538.22 C2650.88,1534.87 2651.95,1531.34 2654.16,1527.8 L2768.33,1344.56 C2773.38,1336.46 2789.74,1331.18 2805.06,1332.58 L2935.8,1344.47 C2950.25,1345.79 2960.62,1352.44 2960.51087,1360.06 L2960.51087,1360.04 Z" id="Path" stroke="#465362" stroke-width="10" fill="#465362" fill-rule="nonzero" stroke-linecap="round" stroke-linejoin="round"></path>
                    <path d="M2854.44,1580.53 L2675.47,1558.55 C2654.65,1555.99 2645.29,1542.02 2654.15,1527.79 L2768.32,1344.54 C2773.36,1336.44 2789.73,1331.16 2805.05,1332.56 L2935.79,1344.45 C2951.71,1345.9 2962.66,1353.83 2960.14,1362.38 L2902.56,1557.36 C2898.05,1572.62 2876.39,1583.23 2854.44,1580.53 L2854.44,1580.53 Z" id="Path" stroke="#465362" stroke-width="10" fill="#B0BEC5" fill-rule="nonzero" stroke-linecap="round" stroke-linejoin="round"></path>
                    <path d="M2889.2,1354.81 L2837.9,1350.05 C2834.27,1349.71 2832.12,1347.9 2833.09,1346 L2833.09,1346 C2834.06,1344.12 2837.75,1342.87 2841.34,1343.2 L2892.08,1347.86 C2895.73,1348.19 2898.06,1350.01 2897.29,1351.93 L2897.29,1351.93 C2896.51,1353.86 2892.89,1355.15 2889.2,1354.81 L2889.2,1354.81 Z" id="Path" stroke="none" fill="#465362" fill-rule="nonzero"></path>
                    <path d="M2786.84,1409.97 C2786.48,1409.56 2786.43,1409.11 2786.7,1408.61 L2787.93,1406.32 L2774.92,1405.01 C2774.28,1404.94 2773.78,1404.76 2773.44,1404.45 C2773.1,1404.15 2772.96,1403.79 2773.02,1403.38 L2773.79,1399.18 C2773.85,1398.92 2774.01,1398.66 2774.26,1398.39 C2774.51,1398.13 2774.84,1397.9 2775.23,1397.73 L2798.58,1386.99 C2799.26,1386.64 2800.04,1386.51 2800.9,1386.59 L2809.81,1387.46 C2810.56,1387.53 2811.11,1387.76 2811.45,1388.13 C2811.8,1388.5 2811.85,1388.92 2811.61,1389.39 L2806.21,1399.92 L2807.59,1400.06 C2808.35,1400.14 2808.92,1400.37 2809.28,1400.77 C2809.65,1401.17 2809.71,1401.61 2809.46,1402.1 L2807.29,1406.39 C2807.04,1406.88 2806.55,1407.28 2805.83,1407.57 C2805.1,1407.87 2804.35,1407.98 2803.58,1407.9 L2802.18,1407.76 L2801,1410.06 C2800.75,1410.56 2800.26,1410.96 2799.55,1411.26 C2798.84,1411.56 2798.09,1411.67 2797.32,1411.6 L2788.52,1410.71 C2787.75,1410.63 2787.18,1410.39 2786.82,1409.98 L2786.84,1409.97 Z M2793.65,1399.29 C2793.93,1399.32 2794.21,1399.29 2794.5,1399.23 C2794.79,1399.16 2795.01,1399.05 2795.18,1398.9 C2795.27,1398.81 2795.5,1398.41 2795.88,1397.71 C2796.23,1397.05 2796.42,1396.66 2796.44,1396.53 C2796.47,1396.4 2796.37,1396.27 2796.15,1396.13 C2795.96,1396.02 2795.72,1395.94 2795.45,1395.92 C2795.21,1395.9 2794.99,1395.92 2794.8,1395.96 C2794.6,1396.01 2794.16,1396.19 2793.48,1396.49 C2792.79,1396.79 2791.87,1397.21 2790.7,1397.74 C2790.14,1398 2789.99,1398.28 2790.25,1398.58 C2790.51,1398.88 2791,1399.07 2791.72,1399.14 C2792.37,1399.18 2793.02,1399.23 2793.66,1399.3 L2793.65,1399.29 Z" id="Shape" stroke="none" fill="#FFFFFF" fill-rule="nonzero"></path>
                    <path d="M2812.97,1401.73 C2812.54,1401.32 2812.45,1400.88 2812.69,1400.4 L2815.54,1394.73 C2815.78,1394.26 2816.28,1393.88 2817.05,1393.6 C2817.82,1393.32 2818.62,1393.22 2819.45,1393.31 L2828.53,1394.21 C2829.37,1394.29 2829.99,1394.53 2830.41,1394.93 C2830.83,1395.33 2830.92,1395.76 2830.69,1396.24 L2827.97,1401.93 C2827.74,1402.42 2827.25,1402.8 2826.49,1403.09 C2825.74,1403.38 2824.94,1403.48 2824.09,1403.4 L2814.89,1402.48 C2814.04,1402.4 2813.41,1402.15 2812.97,1401.74 L2812.97,1401.73 Z M2807.77,1412.09 C2807.34,1411.67 2807.24,1411.21 2807.49,1410.71 L2810.43,1404.86 C2810.68,1404.37 2811.19,1403.98 2811.97,1403.7 C2812.75,1403.42 2813.56,1403.31 2814.41,1403.4 L2823.62,1404.32 C2824.47,1404.41 2825.1,1404.65 2825.52,1405.06 C2825.94,1405.47 2826.03,1405.92 2825.8,1406.41 L2822.99,1412.28 C2822.75,1412.78 2822.25,1413.18 2821.48,1413.48 C2820.71,1413.78 2819.9,1413.88 2819.04,1413.8 L2809.7,1412.85 C2808.84,1412.76 2808.19,1412.51 2807.76,1412.09 L2807.77,1412.09 Z" id="Shape" stroke="none" fill="#FFFFFF" fill-rule="nonzero"></path>
                    <path d="M2833.62,1413.98 C2831.38,1412.59 2829.96,1410.85 2829.34,1408.76 C2828.72,1406.68 2828.99,1404.44 2830.14,1402.03 C2831.26,1399.66 2833.03,1397.62 2835.44,1395.9 C2837.83,1394.19 2840.61,1392.94 2843.79,1392.17 C2846.95,1391.39 2850.2,1391.17 2853.55,1391.5 C2856.9,1391.83 2859.68,1392.64 2861.9,1393.95 C2864.13,1395.26 2865.61,1396.92 2866.33,1398.94 C2867.05,1400.97 2866.92,1403.19 2865.9,1405.6 C2864.88,1408.01 2863.2,1410.12 2860.82,1411.91 C2858.42,1413.72 2855.59,1415.04 2852.33,1415.88 C2849.05,1416.72 2845.68,1416.96 2842.21,1416.61 C2838.74,1416.26 2835.88,1415.38 2833.64,1413.99 L2833.62,1413.98 Z M2850.07,1406.39 C2851.03,1405.37 2851.73,1404.37 2852.16,1403.39 C2852.69,1402.19 2852.64,1401.34 2852.02,1400.85 C2851.4,1400.36 2850.58,1400.06 2849.57,1399.96 C2848.56,1399.86 2847.59,1400.02 2846.64,1400.44 C2845.69,1400.86 2844.98,1401.59 2844.51,1402.63 C2844.1,1403.53 2843.9,1404.56 2843.91,1405.72 C2843.91,1406.88 2844.72,1407.54 2846.31,1407.7 C2847.86,1407.86 2849.12,1407.42 2850.08,1406.39 L2850.07,1406.39 Z" id="Shape" stroke="none" fill="#FFFFFF" fill-rule="nonzero"></path>
                    <path d="M2880.45,1419.46 C2880.03,1419.04 2879.92,1418.57 2880.12,1418.07 L2881.04,1415.72 L2867.7,1414.37 C2867.04,1414.3 2866.52,1414.11 2866.13,1413.8 C2865.74,1413.49 2865.55,1413.12 2865.56,1412.7 L2865.75,1408.39 C2865.78,1408.12 2865.9,1407.85 2866.12,1407.58 C2866.34,1407.31 2866.64,1407.08 2867.01,1406.9 L2889.08,1395.88 C2889.72,1395.52 2890.48,1395.38 2891.37,1395.47 L2900.49,1396.36 C2901.26,1396.44 2901.84,1396.66 2902.24,1397.04 C2902.64,1397.42 2902.76,1397.85 2902.58,1398.33 L2898.61,1409.14 L2900.03,1409.28 C2900.81,1409.36 2901.42,1409.6 2901.84,1410.01 C2902.27,1410.42 2902.39,1410.87 2902.21,1411.37 L2900.62,1415.77 C2900.44,1416.27 2900,1416.68 2899.31,1416.98 C2898.62,1417.29 2897.88,1417.4 2897.09,1417.32 L2895.66,1417.18 L2894.79,1419.54 C2894.6,1420.05 2894.17,1420.46 2893.49,1420.77 C2892.81,1421.08 2892.07,1421.2 2891.28,1421.12 L2882.26,1420.21 C2881.47,1420.13 2880.86,1419.88 2880.44,1419.46 L2880.45,1419.46 Z M2885.82,1408.5 C2886.11,1408.53 2886.39,1408.5 2886.67,1408.44 C2886.95,1408.37 2887.17,1408.26 2887.31,1408.1 C2887.39,1408.01 2887.57,1407.6 2887.84,1406.88 C2888.1,1406.2 2888.23,1405.8 2888.24,1405.67 C2888.24,1405.54 2888.13,1405.4 2887.89,1405.25 C2887.68,1405.13 2887.43,1405.06 2887.15,1405.03 C2886.91,1405.01 2886.69,1405.03 2886.5,1405.07 C2886.31,1405.12 2885.89,1405.31 2885.24,1405.62 C2884.59,1405.93 2883.71,1406.36 2882.61,1406.9 C2882.08,1407.16 2881.97,1407.45 2882.27,1407.76 C2882.57,1408.07 2883.09,1408.26 2883.83,1408.34 C2884.49,1408.38 2885.16,1408.44 2885.81,1408.5 L2885.82,1408.5 Z" id="Shape" stroke="none" fill="#FFFFFF" fill-rule="nonzero"></path>
                    <path d="M2847.38,1546.79 L2710.77,1530.6 C2696.58,1528.92 2689.7,1519.69 2695.24,1510.2 L2695.24,1510.2 C2700.65,1500.94 2715.93,1494.85 2729.54,1496.39 L2860.43,1511.27 C2874.57,1512.88 2883.5,1521.92 2880.25,1531.67 L2880.25,1531.67 C2876.92,1541.67 2862.14,1548.54 2847.36,1546.79 L2847.38,1546.79 Z" id="Path" stroke="none" fill="#CFD8DC" fill-rule="nonzero"></path>
                    <path d="M2739.7,1515.36 C2735.87,1522.69 2723.91,1527.7 2713.07,1526.42 C2702.26,1525.15 2696.97,1518.14 2701.14,1510.89 C2705.24,1503.77 2716.96,1499.07 2727.43,1500.26 C2737.93,1501.46 2743.46,1508.17 2739.7,1515.36 L2739.7,1515.36 Z" id="Path" stroke="none" fill="#ECEFF1" fill-rule="nonzero"></path>
                    <path d="M2542.38,1093.43 C2497.62,1093.43 2461.33,1108.53 2461.33,1127.15 L2461.33,1352.61 C2461.33,1371.23 2497.62,1386.33 2542.38,1386.33 C2587.14,1386.33 2623.43,1371.23 2623.43,1352.61 L2623.43,1127.15 C2623.43,1108.53 2587.14,1093.43 2542.38,1093.43 L2542.38,1093.43 Z" id="Path" stroke="#465362" stroke-width="10" fill="#FFFFFF" fill-rule="nonzero" stroke-linecap="round" stroke-linejoin="round"></path>
                    <path d="M2623.84,1061.5 L2616.96,1078.29 L2594.95,1131.97 C2593.33,1132.87 2591.41,1133.79 2589.14,1134.71 C2588.81,1134.85 2588.47,1134.99 2588.12,1135.12 C2580.41,1138.13 2571.11,1140.29 2560.98,1141.47 L2591.2,1067.74 L2598.09,1050.94 C2599.72,1046.96 2604.28,1045.05 2608.26,1046.68 L2619.59,1051.33 C2623.57,1052.96 2625.48,1057.51 2623.84,1061.5 L2623.84,1061.5 Z" id="Path" stroke="#465362" stroke-width="10" fill="#FF8080" fill-rule="nonzero" stroke-linecap="round" stroke-linejoin="round"></path>
                    <path d="M2616.96,1078.29 L2594.95,1131.97 C2593.33,1132.87 2591.41,1133.79 2589.14,1134.71 C2588.81,1134.85 2588.47,1134.99 2588.12,1135.12 C2580.41,1138.13 2571.11,1140.29 2560.98,1141.47 L2591.2,1067.74 L2616.96,1078.29 L2616.96,1078.29 Z" id="Path" stroke="#465362" stroke-width="10" fill="#FFB74D" fill-rule="nonzero" stroke-linecap="round" stroke-linejoin="round"></path>
                    <path d="M2512.74,1078.7 L2527.77,1141.87 C2519.19,1141.11 2511.12,1139.66 2503.98,1137.6 L2476.92,1023.82 C2475.5,1017.86 2479.18,1011.89 2485.13,1010.48 C2485.99,1010.27 2486.86,1010.18 2487.71,1010.18 C2492.72,1010.18 2497.26,1013.6 2498.47,1018.69 L2499.75,1024.08 L2512.74,1078.7 L2512.74,1078.7 Z" id="Path" stroke="#465362" stroke-width="10" fill="#64B5F6" fill-rule="nonzero" stroke-linecap="round" stroke-linejoin="round"></path>
                    <rect id="Rectangle" stroke="#465362" stroke-width="10" fill="#64B5F6" fill-rule="nonzero" stroke-linecap="round" stroke-linejoin="round" transform="translate(2505.2199, 1051.6457) rotate(-13.38) translate(-2505.2199, -1051.6457)" x="2496.11986" y="1023.51067" width="18.2" height="56.27" rx="9.1"></rect>
                    <path d="M2571.7,1030.13 L2571.34,1032.96 L2567.89,1060.37 L2557.63,1141.82 C2552.69,1142.29 2547.57,1142.53 2542.37,1142.53 C2539.66,1142.53 2536.98,1142.47 2534.34,1142.33 L2545.04,1057.48 L2548.46,1030.32 L2548.85,1027.25 L2556.31,1028.19 L2563.68,1029.12 L2571.7,1030.13 L2571.7,1030.13 Z" id="Path" stroke="#465362" stroke-width="10" fill="#81C784" fill-rule="nonzero" stroke-linecap="round" stroke-linejoin="round"></path>
                    <path d="M2591.42,1022.57 C2589.34,1039.08 2572.41,1065.5 2555.91,1063.42 C2539.41,1061.34 2529.56,1031.54 2531.64,1015.04 C2533.72,998.53 2548.79,986.84 2565.3,988.92 C2581.81,991 2593.5,1006.07 2591.42,1022.58 L2591.42,1022.57 Z" id="Path" stroke="#465362" stroke-width="10" fill="#81C784" fill-rule="nonzero" stroke-linecap="round" stroke-linejoin="round"></path>
                    <path d="M2550.79,1013.92 C2553.27,1017.12 2558.54,1029.25 2555.34,1031.74 C2552.14,1034.23 2541.69,1026.11 2539.21,1022.91 C2536.73,1019.71 2537.31,1015.11 2540.51,1012.63 C2543.71,1010.15 2548.31,1010.73 2550.79,1013.93 L2550.79,1013.92 Z" id="Path" stroke="none" fill="#465362" fill-rule="nonzero"></path>
                    <path d="M2572.58,1016.66 C2569.38,1019.14 2561.27,1029.59 2563.75,1032.79 C2566.23,1035.99 2578.37,1030.72 2581.57,1028.24 C2584.77,1025.76 2585.35,1021.16 2582.87,1017.96 C2580.39,1014.76 2575.79,1014.18 2572.59,1016.66 L2572.58,1016.66 Z" id="Path" stroke="none" fill="#465362" fill-rule="nonzero"></path>
                    <path d="M2481.72,1125.09 C2481.93,1126.05 2484.94,1130.36 2495.6,1134.71 C2495.94,1134.85 2496.28,1134.99 2496.63,1135.12 C2498.94,1136.02 2501.4,1136.85 2503.98,1137.6 C2511.12,1139.66 2519.19,1141.11 2527.77,1141.87 C2529.93,1142.08 2532.12,1142.23 2534.34,1142.33 C2536.98,1142.47 2539.66,1142.53 2542.37,1142.53 C2547.57,1142.53 2552.69,1142.29 2557.63,1141.82 C2558.75,1141.72 2559.86,1141.6 2560.97,1141.47 L2560.97,1141.47 C2571.1,1140.29 2580.4,1138.13 2588.11,1135.12 C2588.46,1134.99 2588.8,1134.85 2589.13,1134.71 C2591.4,1133.79 2593.32,1132.87 2594.94,1131.97 C2600.94,1128.68 2602.85,1125.85 2603.02,1125.09" id="Path" stroke="#465362" stroke-width="10" fill="none" stroke-linecap="round" stroke-linejoin="round"></path>
                    <path d="M2312.14,1465.72 L2257.19,1490.2 C2245.32,1495.49 2231.82,1495.79 2219.72,1491.05 C2166.25,1470.08 2112.78,1449.1 2059.31,1428.13 C2038.75,1420.07 2038.1,1391.21 2058.27,1382.22 L2087.96,1368.99 C2106.25,1360.84 2126.04,1356.54 2146.07,1356.51975 C2160.19,1356.5 2175.72,1357.66 2192.26,1360.77 C2249.59,1371.51 2291.85,1400.46 2318.56,1424.39 C2332.03,1436.45 2328.66,1458.36 2312.14,1465.72 L2312.14,1465.72 Z" id="Path" stroke="#465362" stroke-width="10" fill="#FFFFFF" fill-rule="nonzero" stroke-linecap="round" stroke-linejoin="round"></path>
                    <path d="M869.1,838.92 C863.82,855.85 852.58,871 836.23,880.95 C800.55,902.65 754.04,891.31 732.34,855.63 C710.64,819.95 721.98,773.44 757.66,751.74 C774.01,741.8 792.63,738.79 810.1,741.89 C787.91,759.6 781.81,791.44 796.95,816.34 C812.09,841.24 843.17,850.47 869.1,838.92 Z" id="Path" stroke="#465362" stroke-width="10" fill="#FFF9C4" fill-rule="nonzero" stroke-linecap="round" stroke-linejoin="round"></path>
                    <circle id="Oval" stroke="none" fill="#FFCC80" fill-rule="nonzero" cx="755.38" cy="789.42" r="8.86"></circle>
                    <circle id="Oval" stroke="none" fill="#FFCC80" fill-rule="nonzero" cx="759.38" cy="841.85" r="15.66"></circle>
                    <circle id="Oval" stroke="none" fill="#FFCC80" fill-rule="nonzero" cx="800.6" cy="852.3" r="9.86"></circle>
                    <path d="M1235.09,682.09 L1212.28,671.56 C1209.91,670.44 1209.28,669.19 1209.28,666.75 C1209.28,664.31 1209.91,663.05 1212.28,661.87 L1235.09,651.34 C1235.86,650.99 1236.62,650.64 1237.39,650.64 C1238.44,650.64 1238.99,651.41 1238.99,653.36 C1238.99,656.57 1238.64,657.75 1235.99,658.8 L1217.16,666.68 L1235.99,674.63 C1238.71,675.75 1238.99,677 1238.99,680.07 C1238.99,682.02 1238.43,682.72 1237.39,682.72 C1236.62,682.72 1235.86,682.44 1235.09,682.09 L1235.09,682.09 Z" id="Path" stroke="none" fill="#465362" fill-rule="nonzero"></path>
                    <path d="M1254.2,665.98 C1252.6,661.93 1250.22,654.54 1250.22,647.91 C1250.22,641.28 1253.36,637.17 1257.96,637.17 C1262.56,637.17 1265.77,641.29 1265.77,647.98 C1265.77,654.67 1263.47,661.93 1261.86,665.98 C1260.74,668.35 1259.49,669.89 1258.02,669.89 C1256.55,669.89 1255.23,668.36 1254.18,665.98 L1254.2,665.98 Z M1258.1,674.49 C1262.08,674.49 1265.21,677.7 1265.21,681.68 C1265.21,685.66 1262.07,688.79 1258.1,688.79 C1254.13,688.79 1250.99,685.65 1250.99,681.68 C1250.99,677.71 1254.13,674.49 1258.1,674.49 Z" id="Shape" stroke="none" fill="#465362" fill-rule="nonzero"></path>
                    <path d="M1272.54,670.65 C1272.54,669.53 1272.96,667.79 1273.38,666.67 C1274.36,663.74 1275.54,662.62 1279.31,662.62 C1281.26,662.62 1283.36,662.76 1285.31,662.76 C1287.26,662.76 1289.36,662.62 1291.31,662.62 C1294.45,662.62 1295.36,664.15 1295.36,665.55 C1295.36,666.6 1295.01,668.34 1294.59,669.53 C1293.47,672.46 1292.36,673.51 1288.52,673.51 C1286.57,673.51 1284.54,673.37 1282.59,673.37 C1280.64,673.37 1278.54,673.51 1276.59,673.51 C1273.38,673.51 1272.54,672.05 1272.54,670.65 Z" id="Path" stroke="none" fill="#465362" fill-rule="nonzero"></path>
                    <path d="M1301.35,670.65 C1301.35,669.53 1301.77,667.79 1302.19,666.67 C1303.17,663.74 1304.35,662.62 1308.12,662.62 C1310.07,662.62 1312.17,662.76 1314.12,662.76 C1316.07,662.76 1318.17,662.62 1320.12,662.62 C1323.26,662.62 1324.17,664.15 1324.17,665.55 C1324.17,666.6 1323.82,668.34 1323.4,669.53 C1322.28,672.46 1321.17,673.51 1317.33,673.51 C1315.38,673.51 1313.35,673.37 1311.4,673.37 C1309.45,673.37 1307.35,673.51 1305.4,673.51 C1302.19,673.51 1301.35,672.05 1301.35,670.65 Z" id="Path" stroke="none" fill="#465362" fill-rule="nonzero"></path>
                    <path d="M1377.03,684.67 C1377.03,682.93 1378.29,682.16 1380.38,681.6 C1381.64,681.11 1381.77,679.3 1381.77,676.65 L1381.77,667.44 C1381.42,666.81 1381.07,666.67 1378.14,666.67 L1368.3,666.67 C1365.37,666.67 1365.02,666.81 1364.67,667.44 L1364.67,676.65 C1364.67,679.3 1364.81,681.18 1366.06,681.6 C1368.15,682.16 1369.41,682.93 1369.41,684.67 C1369.41,687.88 1364.81,688.79 1357.34,688.79 C1349.87,688.79 1345.27,687.88 1345.27,684.67 C1345.27,682.93 1346.53,682.16 1348.55,681.6 C1349.81,681.11 1350.01,679.3 1350.01,676.65 L1350.01,649.86 C1350.01,647.21 1349.8,645.4 1348.55,644.91 C1346.53,644.35 1345.27,643.58 1345.27,641.84 C1345.27,638.7 1349.87,637.72 1357.34,637.72 C1364.81,637.72 1369.41,638.7 1369.41,641.84 C1369.41,643.58 1368.15,644.35 1366.06,644.91 C1364.8,645.33 1364.67,647.21 1364.67,649.86 L1364.67,658.72 C1365.02,659.35 1365.37,659.49 1368.3,659.49 L1378.14,659.49 C1381.07,659.49 1381.42,659.35 1381.77,658.72 L1381.77,649.86 C1381.77,647.21 1381.63,645.4 1380.38,644.91 C1378.29,644.35 1377.03,643.58 1377.03,641.84 C1377.03,638.7 1381.7,637.72 1389.1,637.72 C1396.5,637.72 1401.24,638.7 1401.24,641.84 C1401.24,643.58 1399.98,644.35 1397.89,644.91 C1396.63,645.33 1396.5,647.21 1396.5,649.86 L1396.5,676.65 C1396.5,679.3 1396.64,681.18 1397.89,681.6 C1399.98,682.16 1401.24,682.93 1401.24,684.67 C1401.24,687.88 1396.57,688.79 1389.1,688.79 C1381.63,688.79 1377.03,687.88 1377.03,684.67 Z" id="Path" stroke="none" fill="#465362" fill-rule="nonzero"></path>
                    <path d="M1416.72,684.67 C1416.72,682.86 1418.18,682.09 1420.7,681.53 C1422.24,681.04 1422.58,679.23 1422.58,676.58 L1422.58,652.65 C1422.58,647.14 1422.23,645.19 1420.7,645.19 L1420.07,645.19 C1417.77,645.19 1415.95,645.61 1415.12,646.86 C1414.28,648.05 1413.52,649.93 1412.89,651.74 C1411.7,655.02 1410.59,656.69 1408.5,656.69 C1406.41,656.69 1404.73,654.53 1404.73,650.34 C1404.73,643.57 1408.01,636.53 1411.84,636.53 C1413.31,636.53 1414.35,637.23 1414.91,638.27 L1444.97,638.27 C1445.6,637.22 1446.57,636.53 1448.11,636.53 C1451.88,636.53 1455.22,643.58 1455.22,650.34 C1455.22,654.52 1453.55,656.69 1451.38,656.69 C1449.21,656.69 1448.17,655.02 1446.99,651.74 C1446.36,649.93 1445.59,648.11 1444.76,646.86 C1443.93,645.61 1442.11,645.19 1439.81,645.19 L1439.18,645.19 C1437.65,645.19 1437.3,647.14 1437.3,652.65 L1437.3,676.58 C1437.3,679.23 1437.72,680.97 1439.25,681.46 C1441.76,682.09 1443.16,682.86 1443.16,684.67 C1443.16,687.88 1438.07,688.79 1429.98,688.79 C1421.89,688.79 1416.73,687.88 1416.73,684.67 L1416.72,684.67 Z" id="Path" stroke="none" fill="#465362" fill-rule="nonzero"></path>
                    <path d="M1458.22,684.6 C1458.22,682.65 1459.68,681.67 1462.2,680.97 C1463.66,680.41 1464.01,677.83 1464.01,673.85 L1464.01,650.76 C1464.01,647.83 1463.73,646.02 1462.34,645.25 C1460.46,644.69 1458.5,643.92 1458.5,641.76 C1458.5,638.9 1462.34,637.85 1469.45,637.85 C1476.56,637.85 1477.96,638.62 1480.19,642.45 C1482.91,647.47 1487.38,656.26 1490.86,663.73 C1496.3,652.99 1498.74,647.48 1500.9,642.52 C1502.5,638.96 1504.88,637.85 1511.01,637.85 C1518.33,637.85 1521.96,638.9 1521.96,641.76 C1521.96,643.85 1520.15,644.69 1518.26,645.25 C1516.93,645.81 1516.73,647.83 1516.73,650.76 L1516.73,676.64 C1516.73,679.15 1516.87,681.1 1518.33,681.59 C1520.42,682.15 1521.68,682.92 1521.68,684.66 C1521.68,687.87 1517.08,688.78 1509.61,688.78 C1502.14,688.78 1497.26,687.87 1497.26,684.66 C1497.26,682.92 1498.65,682.15 1500.75,681.59 C1502.21,681.03 1502.56,679.29 1502.56,676.64 L1502.56,661.78 C1502.56,659.69 1502.56,658.15 1502.49,656.97 C1499.35,664.08 1496.49,670.15 1493.35,675.94 C1491.4,679.43 1490.07,681.45 1487.63,681.45 C1484.98,681.45 1483.58,679.5 1481.7,676.01 C1478.49,669.94 1475.21,663.31 1472.07,656.97 L1472.07,673.85 C1472.07,677.83 1472.63,680.06 1474.51,680.83 C1477.02,681.53 1478.7,682.57 1478.7,684.6 C1478.7,687.67 1474.31,688.79 1468.31,688.79 C1462.31,688.79 1458.2,687.67 1458.2,684.6 L1458.22,684.6 Z" id="Path" stroke="none" fill="#465362" fill-rule="nonzero"></path>
                    <path d="M1559.85,688.23 L1547.16,688.23 C1542.49,688.23 1538.86,688.37 1536.28,688.37 C1529.79,688.37 1526.58,687.53 1526.58,684.74 C1526.58,682.79 1528.25,681.88 1530.28,681.46 C1531.61,680.97 1531.74,679.09 1531.74,676.51 L1531.74,649.86 C1531.74,647.21 1531.39,645.4 1530.07,644.91 C1528.05,644.35 1526.79,643.58 1526.79,641.84 C1526.79,638.7 1531.88,637.72 1539.28,637.72 C1547.09,637.72 1551.49,638.7 1551.49,641.77 C1551.49,643.65 1550.16,644.35 1548,644.91 C1546.54,645.4 1546.4,647.42 1546.4,650 L1546.4,674.07 C1546.4,679.58 1546.75,681.25 1549.54,681.25 L1551.77,681.25 C1555.75,681.25 1558.68,680.83 1559.79,679.51 C1560.77,678.32 1561.53,675.81 1562.23,673.86 C1563.28,670.58 1564.46,668.56 1566.69,668.56 C1568.92,668.56 1570.74,670.86 1570.74,675.54 C1570.74,682.45 1567.32,689.98 1563.14,689.98 C1561.6,689.98 1560.56,689.35 1559.86,688.24 L1559.85,688.23 Z" id="Path" stroke="none" fill="#465362" fill-rule="nonzero"></path>
                    <path d="M1588.24,684.74 C1588.24,683 1589.63,682.3 1591.52,681.67 C1592.5,681.39 1593.12,679.72 1593.12,677.41 L1593.12,661.09 L1590.89,661.09 C1588.24,661.09 1587.47,660.18 1587.47,657.95 C1587.47,655.72 1588.24,654.88 1590.89,654.88 L1592.42,654.88 C1591.23,652.86 1589.42,650.55 1589.42,646.79 C1589.42,640.93 1594.37,635.84 1602.95,635.84 C1610.2,635.84 1615.3,639.82 1615.3,644.98 C1615.3,648.26 1613.28,650.28 1610.28,650.28 C1607.28,650.28 1605.75,648.47 1604.91,646.23 C1604.07,644.14 1603.52,641.49 1601.21,641.49 C1599.61,641.49 1598.7,642.88 1598.7,644.77 C1598.7,649.79 1603.51,651.68 1605.81,654.88 L1610.41,654.88 C1612.92,654.88 1613.69,655.79 1613.69,657.95 C1613.69,660.11 1612.92,661.09 1610.41,661.09 L1606.78,661.09 L1606.78,677.2 C1606.78,680.2 1607.48,681.32 1608.52,681.66 C1610.82,682.36 1612.22,682.99 1612.22,684.73 C1612.22,687.94 1607.06,688.78 1599.94,688.78 C1592.82,688.78 1588.22,687.8 1588.22,684.73 L1588.24,684.74 Z" id="Path" stroke="none" fill="#465362" fill-rule="nonzero"></path>
                    <path d="M1616.49,670.86 C1616.49,659.56 1625.35,651.75 1638.25,651.75 C1649.9,651.75 1657.71,659.49 1657.71,670.3 C1657.71,681.67 1648.71,689.34 1636.09,689.34 C1624.3,689.34 1616.49,681.67 1616.49,670.85 L1616.49,670.86 Z M1639.51,683.56 C1642.37,683.56 1644.39,681.05 1644.39,676.65 C1644.39,669.47 1640.13,657.54 1634.76,657.54 C1631.97,657.54 1629.88,659.91 1629.88,664.45 C1629.88,671.7 1634,683.56 1639.51,683.56 Z" id="Shape" stroke="none" fill="#465362" fill-rule="nonzero"></path>
                    <path d="M1662.59,684.74 C1662.59,683.07 1663.78,682.37 1665.24,681.88 C1666.15,681.53 1666.29,679.93 1666.29,677.55 L1666.29,665.62 C1666.29,663.46 1665.94,661.36 1665.03,661.09 C1663.15,660.53 1662.24,659.63 1662.24,658.3 C1662.24,657.25 1662.73,656.42 1663.98,655.65 C1667.19,653.56 1673.4,652.23 1676.12,652.23 C1679.75,652.23 1679.96,654.53 1679.96,658.93 L1679.96,660.46 C1682.12,655.23 1685.89,651.81 1690.21,651.81 C1694.05,651.81 1697.12,654.6 1697.12,659.48 C1697.12,664.36 1694.61,667.29 1690.7,667.29 C1688.26,667.29 1686.51,666.1 1685.4,664.99 C1684.56,664.15 1683.8,663.32 1682.82,663.32 C1681.35,663.32 1679.96,665.48 1679.96,668.13 L1679.96,677.41 C1679.96,680.2 1680.24,681.32 1681.22,681.67 C1683.38,682.3 1684.71,683.06 1684.71,684.81 C1684.71,687.88 1679.9,688.79 1673.13,688.79 C1666.85,688.79 1662.6,687.81 1662.6,684.74 L1662.59,684.74 Z" id="Path" stroke="none" fill="#465362" fill-rule="nonzero"></path>
                    <path d="M1713.86,697.93 C1713.86,696.19 1715.19,695.49 1716.65,694.93 C1717.63,694.51 1717.77,692.98 1717.77,690.61 L1717.77,665.64 C1717.77,663.55 1717.42,661.38 1716.51,661.11 C1714.63,660.55 1713.72,659.72 1713.72,658.32 C1713.72,657.27 1714.21,656.44 1715.46,655.67 C1718.74,653.65 1724.88,652.25 1727.6,652.25 C1731.23,652.25 1731.44,654.55 1731.44,658.95 L1731.44,659.51 C1733.6,655.05 1738.28,651.91 1743.65,651.91 C1751.53,651.91 1757.25,659.16 1757.25,669.84 C1757.25,681.49 1750.06,689.23 1740.3,689.23 C1737.02,689.23 1733.81,688.32 1731.44,687 L1731.44,690.63 C1731.44,693.35 1731.65,694.47 1732.77,694.88 C1734.72,695.58 1736.05,696.21 1736.05,697.95 C1736.05,701.09 1731.24,701.93 1724.61,701.93 C1718.33,701.93 1713.87,700.95 1713.87,697.95 L1713.86,697.93 Z M1736.88,683.77 C1740.58,683.77 1743.02,680.14 1743.02,672.26 C1743.02,664.38 1740.58,660.61 1737.16,660.61 C1733.74,660.61 1731.09,664.17 1731.09,672.89 C1731.09,680.91 1733.53,683.77 1736.88,683.77 L1736.88,683.77 Z" id="Shape" stroke="none" fill="#465362" fill-rule="nonzero"></path>
                    <path d="M1761.71,671.35 C1761.71,659.98 1770.22,651.89 1780.96,651.89 C1791.07,651.89 1796.72,658.66 1796.72,664.45 C1796.72,667.94 1794.63,670.17 1790.79,670.17 L1773.98,670.17 C1775.03,675.12 1778.51,678.05 1783.89,678.05 C1787.52,678.05 1790.03,676.79 1792.12,675.26 C1792.96,674.7 1793.79,674.21 1794.63,674.21 C1796.02,674.21 1796.93,675.12 1796.93,677.07 C1796.93,678.74 1796.09,680.84 1794.56,682.79 C1791.84,686.28 1786.68,689.35 1779.63,689.35 C1769.03,689.35 1761.7,681.89 1761.7,671.35 L1761.71,671.35 Z M1780.76,665.63 C1784.32,665.49 1785.85,664.23 1785.85,662.07 C1785.85,659.49 1783.97,657.26 1780.76,657.26 C1776.71,657.26 1773.99,660.75 1773.65,665.77 L1780.76,665.63 Z" id="Shape" stroke="none" fill="#465362" fill-rule="nonzero"></path>
                    <path d="M1801.4,670.86 C1801.4,659.56 1810.26,651.75 1823.16,651.75 C1834.81,651.75 1842.62,659.49 1842.62,670.3 C1842.62,681.67 1833.62,689.34 1821,689.34 C1809.21,689.34 1801.4,681.67 1801.4,670.85 L1801.4,670.86 Z M1824.42,683.56 C1827.28,683.56 1829.3,681.05 1829.3,676.65 C1829.3,669.47 1825.04,657.54 1819.67,657.54 C1816.88,657.54 1814.79,659.91 1814.79,664.45 C1814.79,671.7 1818.91,683.56 1824.42,683.56 Z" id="Shape" stroke="none" fill="#465362" fill-rule="nonzero"></path>
                    <path d="M1846.74,697.93 C1846.74,696.19 1848.07,695.49 1849.53,694.93 C1850.51,694.51 1850.65,692.98 1850.65,690.61 L1850.65,665.64 C1850.65,663.55 1850.3,661.38 1849.39,661.11 C1847.51,660.55 1846.6,659.72 1846.6,658.32 C1846.6,657.27 1847.09,656.44 1848.34,655.67 C1851.62,653.65 1857.76,652.25 1860.48,652.25 C1864.11,652.25 1864.32,654.55 1864.32,658.95 L1864.32,659.51 C1866.48,655.05 1871.16,651.91 1876.53,651.91 C1884.41,651.91 1890.13,659.16 1890.13,669.84 C1890.13,681.49 1882.94,689.23 1873.18,689.23 C1869.9,689.23 1866.69,688.32 1864.32,687 L1864.32,690.63 C1864.32,693.35 1864.53,694.47 1865.65,694.88 C1867.6,695.58 1868.93,696.21 1868.93,697.95 C1868.93,701.09 1864.12,701.93 1857.49,701.93 C1851.21,701.93 1846.75,700.95 1846.75,697.95 L1846.74,697.93 Z M1869.76,683.77 C1873.46,683.77 1875.9,680.14 1875.9,672.26 C1875.9,664.38 1873.46,660.61 1870.04,660.61 C1866.62,660.61 1863.97,664.17 1863.97,672.89 C1863.97,680.91 1866.41,683.77 1869.76,683.77 L1869.76,683.77 Z" id="Shape" stroke="none" fill="#465362" fill-rule="nonzero"></path>
                    <path d="M1894.45,684.74 C1894.45,683.07 1895.71,682.37 1897.17,681.88 C1898.08,681.53 1898.22,679.93 1898.22,677.55 L1898.22,650.42 C1898.22,648.05 1897.73,645.89 1896.75,645.47 C1894.66,644.84 1893.47,643.94 1893.47,642.47 C1893.47,641.42 1893.96,640.52 1895.21,639.75 C1898.63,637.66 1905.05,636.33 1907.98,636.33 C1911.68,636.33 1911.96,638.63 1911.96,643.1 C1911.96,645.54 1911.89,648.54 1911.89,652.03 L1911.89,677.56 C1911.89,680.42 1912.03,681.54 1912.87,681.89 C1914.47,682.45 1915.59,683.08 1915.59,684.75 C1915.59,687.89 1911.2,688.8 1905.06,688.8 C1898.92,688.8 1894.46,687.82 1894.46,684.75 L1894.45,684.74 Z" id="Path" stroke="none" fill="#465362" fill-rule="nonzero"></path>
                    <path d="M1919.84,671.35 C1919.84,659.98 1928.35,651.89 1939.09,651.89 C1949.2,651.89 1954.85,658.66 1954.85,664.45 C1954.85,667.94 1952.76,670.17 1948.92,670.17 L1932.11,670.17 C1933.16,675.12 1936.64,678.05 1942.02,678.05 C1945.65,678.05 1948.16,676.79 1950.25,675.26 C1951.09,674.7 1951.92,674.21 1952.76,674.21 C1954.15,674.21 1955.06,675.12 1955.06,677.07 C1955.06,678.74 1954.22,680.84 1952.69,682.79 C1949.97,686.28 1944.81,689.35 1937.76,689.35 C1927.16,689.35 1919.83,681.89 1919.83,671.35 L1919.84,671.35 Z M1938.88,665.63 C1942.44,665.49 1943.97,664.23 1943.97,662.07 C1943.97,659.49 1942.09,657.26 1938.88,657.26 C1934.83,657.26 1932.11,660.75 1931.77,665.77 L1938.88,665.63 Z" id="Shape" stroke="none" fill="#465362" fill-rule="nonzero"></path>
                    <path d="M1975.99,670.65 C1975.99,669.53 1976.41,667.79 1976.83,666.67 C1977.81,663.74 1978.99,662.62 1982.76,662.62 C1984.71,662.62 1986.81,662.76 1988.76,662.76 C1990.71,662.76 1992.81,662.62 1994.76,662.62 C1997.9,662.62 1998.81,664.15 1998.81,665.55 C1998.81,666.6 1998.46,668.34 1998.04,669.53 C1996.92,672.46 1995.81,673.51 1991.97,673.51 C1990.02,673.51 1987.99,673.37 1986.04,673.37 C1984.09,673.37 1981.99,673.51 1980.04,673.51 C1976.83,673.51 1975.99,672.05 1975.99,670.65 Z" id="Path" stroke="none" fill="#465362" fill-rule="nonzero"></path>
                    <path d="M2004.8,670.65 C2004.8,669.53 2005.22,667.79 2005.64,666.67 C2006.62,663.74 2007.8,662.62 2011.57,662.62 C2013.52,662.62 2015.62,662.76 2017.57,662.76 C2019.52,662.76 2021.62,662.62 2023.57,662.62 C2026.71,662.62 2027.62,664.15 2027.62,665.55 C2027.62,666.6 2027.27,668.34 2026.85,669.53 C2025.73,672.46 2024.62,673.51 2020.78,673.51 C2018.83,673.51 2016.8,673.37 2014.85,673.37 C2012.9,673.37 2010.8,673.51 2008.85,673.51 C2005.64,673.51 2004.8,672.05 2004.8,670.65 Z" id="Path" stroke="none" fill="#465362" fill-rule="nonzero"></path>
                    <path d="M2038.07,680.07 C2038.07,677 2038.35,675.74 2041.07,674.63 L2059.9,666.68 L2041.07,658.8 C2038.42,657.75 2038.07,656.57 2038.07,653.36 C2038.07,651.41 2038.63,650.64 2039.67,650.64 C2040.44,650.64 2041.2,650.99 2041.97,651.34 L2064.78,661.87 C2067.15,663.06 2067.78,664.24 2067.78,666.75 C2067.78,669.26 2067.15,670.45 2064.78,671.56 L2041.97,682.09 C2041.2,682.44 2040.44,682.72 2039.67,682.72 C2038.62,682.72 2038.07,682.02 2038.07,680.07 L2038.07,680.07 Z" id="Path" stroke="none" fill="#465362" fill-rule="nonzero"></path>
                    <g id="donut-before" stroke="none" stroke-width="1" fill="none" fill-rule="evenodd" transform="translate(667.33, 1245.92)" stroke-linecap="round" stroke-linejoin="round">
                        <path d="M214.51,61.42 C96.04,61.42 0,101.37 0,150.66 L0,159.18 C0,179.91 17,198.99 45.5,214.14 C70.5,242.91 136.73,263.47 214.51,263.47 C292.29,263.47 358.52,242.91 383.52,214.14 C412.03,198.99 429.02,179.91 429.02,159.18 L429.02,150.66 C429.02,101.38 332.98,61.42 214.51,61.42 Z" id="Path" stroke="#465362" stroke-width="10" fill="#FFFFFF" fill-rule="nonzero"></path>
                        <path d="M358.92,125.89 C362.98,109.25 360.39,90.57 352.4,77.44 C315.12,16.18 231.46,16.18 214.51,16.18 C197.56,16.18 114.04,16.18 76.71,77.3 C68.92,90.05 66.32,108.08 69.86,124.48 C69.97,124.98 70.08,125.46 70.18,125.91 C70.81,128.7 71.34,130.53 71.52,131.16 C95.71,213.44 196.18,213.44 214.51,213.44 C232.84,213.44 333.31,213.44 357.5,131.16 C357.99,129.5 358.44,127.82 358.84,126.18 C358.86,126.09 358.89,125.99 358.91,125.9 L358.92,125.89 Z" id="Path" stroke="#465362" stroke-width="10" fill="#977763" fill-rule="nonzero"></path>
                        <path d="M357.76,80.84 C361.79,96.21 359.22,113.46 351.3,125.58 C314.32,182.15 231.33,182.15 214.52,182.15 C197.71,182.15 114.85,182.15 77.82,125.71 C70.1,113.94 67.51,97.29 71.02,82.15 C71.13,81.69 71.23,81.24 71.34,80.83 C71.97,78.25 72.49,76.57 72.67,75.98 C96.67,0 196.33,0 214.51,0 C232.69,0 332.36,0 356.35,75.98 C356.84,77.51 357.28,79.06 357.68,80.58 C357.7,80.67 357.73,80.76 357.75,80.84 L357.76,80.84 Z" id="Path" stroke="#465362" stroke-width="10" fill="#FFCDD2" fill-rule="nonzero"></path>
                        <line x1="102.23" y1="90.22" x2="113.31" y2="80.03" id="Path" stroke="#FFFFFF" stroke-width="10"></line>
                        <line x1="180.65" y1="86.35" x2="191.28" y2="97.99" id="Path" stroke="#FFFFFF" stroke-width="10"></line>
                        <line x1="258.18" y1="142.62" x2="267.49" y2="133.41" id="Path" stroke="#FFFFFF" stroke-width="10"></line>
                        <line x1="294.07" y1="58.32" x2="306.03" y2="64.08" id="Path" stroke="#FFFFFF" stroke-width="10"></line>
                        <line x1="271.03" y1="79.55" x2="265.11" y2="91.07" id="Path" stroke="#FFFFFF" stroke-width="10"></line>
                        <line x1="317.99" y1="97.31" x2="333.06" y2="99.52" id="Path" stroke="#FFFFFF" stroke-width="10"></line>
                        <line x1="222.3" y1="18.91" x2="232.93" y2="15.03" id="Path" stroke="#FFFFFF" stroke-width="10"></line>
                        <line x1="126.6" y1="35.4" x2="139.45" y2="32.24" id="Path" stroke="#FFFFFF" stroke-width="10"></line>
                        <line x1="133.02" y1="124.67" x2="150.97" y2="135.83" id="Path" stroke="#FFFFFF" stroke-width="10"></line>
                        <line x1="202.36" y1="144.56" x2="216.98" y2="134.86" id="Path" stroke="#FFFFFF" stroke-width="10"></line>
                        <line x1="221.85" y1="75.67" x2="236.92" y2="82.95" id="Path" stroke="#FFFFFF" stroke-width="10"></line>
                        <line x1="144.76" y1="75.67" x2="148.75" y2="91.07" id="Path" stroke="#FFFFFF" stroke-width="10"></line>
                        <line x1="104.89" y1="117.25" x2="113.31" y2="112.37" id="Path" stroke="#FFFFFF" stroke-width="10"></line>
                        <line x1="329.07" y1="76.49" x2="334.39" y2="68.95" id="Path" stroke="#FFFFFF" stroke-width="10"></line>
                        <line x1="300.05" y1="123.01" x2="317.11" y2="128.1" id="Path" stroke="#FFFFFF" stroke-width="10"></line>
                        <line x1="180.21" y1="20.85" x2="194.83" y2="29.58" id="Path" stroke="#FFFFFF" stroke-width="10"></line>
                        <path d="M171.65,32.37 C171.65,58.41 260.05,58.41 260.05,32.37" id="Path" stroke="#465362" stroke-width="10"></path>
                    </g>
                    <g id="donut-after" opacity="0" stroke="none" stroke-width="1" fill="none" fill-rule="evenodd" transform="translate(667.33, 1245.92)">
                        <path d="M214.51,61.43 C96.04,61.43 0,101.39 0,150.67 L0,159.19 C0,179.92 17,199 45.5,214.15 C70.5,242.92 136.73,263.48 214.51,263.48 C292.29,263.48 358.52,242.92 383.52,214.15 C412.03,199 429.02,179.92 429.02,159.19 L429.02,150.67 C429.02,101.39 332.98,61.43 214.51,61.43 Z" id="Path" stroke="#465362" stroke-width="10" fill="#FFFFFF" fill-rule="nonzero" stroke-linecap="round" stroke-linejoin="round"></path>
                        <path d="M352.4,77.46 C342.83,62.13 327.95,56.62 323.24,54.96 C301.02,47.1 274.48,53.25 257.96,69.72 C252.57,75.11 240.65,87 242.16,104.21 C243.77,122.53 259.36,132.87 261.65,134.33 C259.75,137 245.78,157.19 248.82,180.13 C249.3,183.71 250.19,187.37 251.61,191.04 C254.63,198.84 259.23,204.64 263.37,208.72 C240.92,213.46 221.59,213.46 214.51,213.46 C196.17,213.46 95.71,213.46 71.51,131.17 C71.33,130.54 70.8,128.72 70.17,125.93 C70.07,125.47 69.96,124.99 69.85,124.49 C67.88,115.36 67.81,105.74 69.49,96.8 C70.81,89.67 73.25,82.98 76.7,77.32 C114.03,16.19 197.58,16.19 214.51,16.19 C227.45,16.19 279.34,16.19 319.74,43.51 C332.22,51.95 343.6,63 352.4,77.46 Z" id="Path" stroke="#465362" stroke-width="10" fill="#977763" fill-rule="nonzero" stroke-linecap="round" stroke-linejoin="round"></path>
                        <path d="M359.61,96.92 C356.49,83.38 345.32,67.52 327.37,63.23 C311.51,59.43 298.47,66.6 295.18,68.54 C264.58,66.36 242.56,85.91 242.16,104.21 C241.79,121.07 259.86,133.17 261.65,134.33 C259.75,137 245.78,157.19 248.82,180.13 C232.85,182.17 220.07,182.17 214.51,182.17 C197.71,182.17 114.84,182.17 77.81,125.72 C72.53,117.68 69.65,107.37 69.49,96.8 C69.4,91.91 69.9,86.96 71.01,82.16 C71.12,81.7 71.23,81.25 71.33,80.84 C71.96,78.26 72.48,76.57 72.66,75.99 C96.66,0 196.32,0 214.51,0 C232.7,0 332.35,0 356.35,75.99 C356.76,77.28 357.14,78.59 357.48,79.87 C357.55,80.11 357.62,80.35 357.68,80.59 C357.71,80.68 357.73,80.77 357.75,80.85 C359.12,86.08 359.73,91.53 359.61,96.92 Z" id="Path" stroke="#465362" stroke-width="10" fill="#FFCDD2" fill-rule="nonzero" stroke-linecap="round" stroke-linejoin="round"></path>
                        <line x1="102.23" y1="90.24" x2="113.31" y2="80.05" id="Path" stroke="#FFFFFF" stroke-width="10" stroke-linecap="round" stroke-linejoin="round"></line>
                        <line x1="180.65" y1="86.36" x2="191.28" y2="98.01" id="Path" stroke="#FFFFFF" stroke-width="10" stroke-linecap="round" stroke-linejoin="round"></line>
                        <line x1="222.3" y1="18.93" x2="232.93" y2="15.04" id="Path" stroke="#FFFFFF" stroke-width="10" stroke-linecap="round" stroke-linejoin="round"></line>
                        <line x1="126.6" y1="35.42" x2="139.45" y2="32.25" id="Path" stroke="#FFFFFF" stroke-width="10" stroke-linecap="round" stroke-linejoin="round"></line>
                        <line x1="133.02" y1="124.69" x2="150.97" y2="135.85" id="Path" stroke="#FFFFFF" stroke-width="10" stroke-linecap="round" stroke-linejoin="round"></line>
                        <line x1="202.36" y1="144.58" x2="216.98" y2="134.88" id="Path" stroke="#FFFFFF" stroke-width="10" stroke-linecap="round" stroke-linejoin="round"></line>
                        <line x1="221.85" y1="75.69" x2="236.92" y2="82.97" id="Path" stroke="#FFFFFF" stroke-width="10" stroke-linecap="round" stroke-linejoin="round"></line>
                        <path d="M360.62,104.84 C359.33,122.29 351.12,138.93 338.45,149.1 C329.59,156.2 320.04,158.97 313.5,160.15 C313.14,160.22 312.79,160.27 312.45,160.33 C295.29,160.63 280.45,166.65 271.41,176.07 C267.68,179.95 264.94,184.4 263.42,189.27 C262.29,192.9 260.96,199.58 263.4,208.71 C263.41,208.73 263.41,208.75 263.42,208.77 C263.4,208.75 263.39,208.74 263.37,208.72 C259.23,204.64 254.63,198.84 251.61,191.04 C250.19,187.37 249.3,183.71 248.82,180.13 C245.78,157.19 259.75,137 261.65,134.33 C259.86,133.17 241.79,121.07 242.16,104.21 C242.56,85.91 264.58,66.36 295.18,68.54 C298.47,66.6 311.51,59.43 327.37,63.22 C345.32,67.52 356.48,83.38 359.61,96.91 C360.34,100.08 360.56,102.83 360.62,104.83 L360.62,104.84 Z" id="Path" stroke="#465362" stroke-width="10" fill="#E8D0C1" fill-rule="nonzero" stroke-linecap="round" stroke-linejoin="round"></path>
                        <line x1="144.76" y1="75.69" x2="148.75" y2="91.09" id="Path" stroke="#FFFFFF" stroke-width="10" stroke-linecap="round" stroke-linejoin="round"></line>
                        <line x1="104.89" y1="117.26" x2="113.31" y2="112.39" id="Path" stroke="#FFFFFF" stroke-width="10" stroke-linecap="round" stroke-linejoin="round"></line>
                        <line x1="180.21" y1="20.87" x2="194.83" y2="29.6" id="Path" stroke="#FFFFFF" stroke-width="10" stroke-linecap="round" stroke-linejoin="round"></line>
                        <path d="M171.65,32.39 C171.65,58.43 260.05,58.43 260.05,32.39" id="Path" stroke="#465362" stroke-width="10" stroke-linecap="round" stroke-linejoin="round"></path>
                        <path d="M263.4,208.71 C263.4,208.71 263.41,208.75 263.42,208.77 C263.4,208.75 263.39,208.74 263.37,208.72 C263.38,208.72 263.39,208.72 263.4,208.72 L263.4,208.71 Z" id="Path" stroke="#465362" stroke-width="10" fill="#E2C7B5" fill-rule="nonzero" stroke-linecap="round" stroke-linejoin="round"></path>
                        <path d="M359.61,96.92 C358.28,89.8 355.84,83.11 352.4,77.46 C357.11,85.01 358.87,92.27 359.61,96.92 L359.61,96.92 Z" id="Path" stroke="#465362" stroke-width="10" fill="#E2C7B5" fill-rule="nonzero" stroke-linecap="round" stroke-linejoin="round"></path>
                        <path d="M338.91,180.78 C338.91,183.78 336.25,185.59 334.28,187.56 C332.31,189.53 330.5,193.65 327.5,193.65 C324.5,193.65 320.38,191.84 318.41,189.87 C316.44,187.9 316.04,183.78 316.04,180.78 C316.04,177.78 317.11,174.33 319.08,172.36 C321.05,170.39 324.49,170.15 327.5,170.15 C330.51,170.15 333.78,170.56 335.75,172.53 C337.72,174.5 338.91,177.77 338.91,180.78 L338.91,180.78 Z" id="Path" fill="#E8D0C1" fill-rule="nonzero"></path>
                        <path d="M305.37,211.14 C305.37,214.14 304.73,217.33 302.76,219.3 C300.79,221.27 297.6,221.230061 294.6,221.230061 C291.6,221.230061 288.64,221.03 286.68,219.06 C284.72,217.09 285.36,214.14 285.36,211.14 C285.36,208.14 284.25,204.72 286.22,202.75 C288.19,200.78 291.6,198.75 294.61,198.75 C297.62,198.75 300.93,200.89 302.89,202.86 C304.85,204.83 305.38,208.14 305.38,211.14 L305.37,211.14 Z" id="Path" fill="#E8D0C1" fill-rule="nonzero"></path>
                        <path d="M372.77,182.17 C372.77,184.29 372.13,185.75 370.74,187.14 C369.35,188.53 367.89,189.83 365.77,189.83 C363.65,189.83 361.63,189.08 360.24,187.69 C358.85,186.3 358.21,184.28 358.21,182.16 C358.21,180.04 359.04,178.21 360.43,176.82 C361.82,175.43 363.65,175.85 365.77,175.85 C367.89,175.85 369.74,175.41 371.13,176.8 C372.52,178.19 372.77,180.03 372.77,182.16 L372.77,182.17 Z" id="Path" fill="#E8D0C1" fill-rule="nonzero"></path>
                    </g>
                    <g id="coffee-before" stroke="none" stroke-width="1" fill="none" fill-rule="evenodd" transform="translate(276.2, 1312.86)">
                        <path d="M153.19,181.93 C68.59,181.93 0,210.46 0,245.66 L0,251.75 C0,286.95 68.59,315.48 153.19,315.48 C237.79,315.48 306.38,286.95 306.38,251.75 L306.38,245.66 C306.38,210.46 237.79,181.93 153.19,181.93 Z" id="Path" stroke="#465362" stroke-width="10" fill="#FFB74D" fill-rule="nonzero" stroke-linecap="round" stroke-linejoin="round"></path>
                        <circle id="Oval" stroke="#465362" stroke-width="10" fill="#FFFFFF" fill-rule="nonzero" stroke-linecap="round" stroke-linejoin="round" cx="253.12" cy="93.16" r="57.79"></circle>
                        <path d="M153.19,0 C85.92,0 31.39,22.68 31.39,50.67 L31.39,226.81 C31.39,254.79 85.92,277.48 153.19,277.48 C220.46,277.48 274.99,254.8 274.99,226.81 L274.99,50.67 C274.99,22.69 220.46,0 153.19,0 Z" id="Path" stroke="#465362" stroke-width="10" fill="#FFFFFF" fill-rule="nonzero" stroke-linecap="round" stroke-linejoin="round"></path>
                        <path d="M256.68,44.04 C256.31,45.67 251.17,53.05 232.98,60.46 C232.41,60.69 231.83,60.92 231.23,61.15 C210.33,69.3 182.6,73.79 153.18,73.79 C123.76,73.79 96.04,69.3 75.14,61.15 C74.55,60.92 73.95,60.69 73.38,60.46 C55.19,53.04 50.06,45.67 49.69,44.04" id="Path" stroke="#465362" stroke-width="10" fill="#FFFFFF" fill-rule="nonzero" stroke-linecap="round" stroke-linejoin="round"></path>
                        <path d="M232.99,60.45 C232.42,60.68 231.84,60.91 231.24,61.14 C210.34,69.29 182.61,73.78 153.19,73.78 C123.77,73.78 96.05,69.29 75.15,61.14 C74.56,60.91 73.96,60.68 73.39,60.45 C73.96,60.21 74.56,59.98 75.15,59.75 C96.05,51.6 123.78,47.12 153.19,47.12 C182.6,47.12 210.34,51.61 231.24,59.75 C231.83,59.98 232.42,60.21 232.99,60.45 Z" id="Path" stroke="#465362" stroke-width="10" fill="#B9937E" fill-rule="nonzero" stroke-linecap="round" stroke-linejoin="round"></path>
                        <path d="M166.98,122.86 C170.25,132.8 173.53,142.69 176.8,152.53 C187.39,151.9 197.95,150.75 208.45,149.08 C217.88,147.52 221.77,158.81 214.17,165.82 C205.69,173.53 197.17,180.9 188.63,187.92 C191.89,197.64 195.15,207.31 198.41,216.94 C201.33,225.59 191.03,234.45 183.34,229.44 C174.79,223.92 166.21,218.06 157.63,211.86 C149.05,218.06 140.48,223.92 131.92,229.44 C124.23,234.45 113.93,225.59 116.85,216.94 C120.11,207.32 123.37,197.65 126.63,187.92 C118.08,180.89 109.56,173.53 101.09,165.82 C93.49,158.81 97.38,147.52 106.81,149.08 C117.31,150.75 127.87,151.9 138.46,152.53 C141.73,142.69 145,132.8 148.28,122.86 C151.22,114.01 164.04,114.01 166.98,122.86 L166.98,122.86 Z" id="Path" fill="#FFB74D" fill-rule="nonzero"></path>
                        <circle id="Oval" fill="#FFB74D" fill-rule="nonzero" cx="100.82" cy="114.78" r="10.69"></circle>
                        <circle id="Oval" fill="#FFB74D" fill-rule="nonzero" cx="243.67" cy="181.93" r="10.69"></circle>
                        <circle id="Oval" fill="#FFB74D" fill-rule="nonzero" cx="85.15" cy="181.93" r="4.98"></circle>
                        <circle id="Oval" fill="#FFB74D" fill-rule="nonzero" cx="216.03" cy="104.1" r="15.92"></circle>
                        <circle id="Oval" fill="#FFB74D" fill-rule="nonzero" cx="65.22" cy="216.77" r="8.16"></circle>
                    </g>
                    <g id="coffee-after" opacity="0" stroke="none" stroke-width="1" fill="none" fill-rule="evenodd" transform="translate(276.55, 1312.55)">
                        <path d="M153.19,181.93 C68.59,181.93 0,210.46 0,245.66 L0,251.75 C0,286.95 68.59,315.48 153.19,315.48 C237.79,315.48 306.38,286.95 306.38,251.75 L306.38,245.66 C306.38,210.46 237.79,181.93 153.19,181.93 Z" id="Path" stroke="#465362" stroke-width="10" fill="#FFB74D" fill-rule="nonzero" stroke-linecap="round" stroke-linejoin="round"></path>
                        <circle id="Oval" stroke="#465362" stroke-width="10" fill="#FFFFFF" fill-rule="nonzero" stroke-linecap="round" stroke-linejoin="round" cx="253.12" cy="93.17" r="57.79"></circle>
                        <path d="M153.19,0 C85.92,0 31.39,22.68 31.39,50.67 L31.39,226.81 C31.39,254.79 85.92,277.48 153.19,277.48 C220.46,277.48 274.99,254.8 274.99,226.81 L274.99,50.67 C274.99,22.69 220.46,0 153.19,0 Z" id="Path" stroke="#465362" stroke-width="10" fill="#FFFFFF" fill-rule="nonzero" stroke-linecap="round" stroke-linejoin="round"></path>
                        <path d="M256.68,44.04 C256.31,45.67 251.17,53.05 232.98,60.46 C232.41,60.69 231.83,60.92 231.23,61.15 C210.33,69.3 182.6,73.79 153.18,73.79 C123.76,73.79 96.04,69.3 75.14,61.15 C74.55,60.92 73.95,60.69 73.38,60.46 C55.19,53.04 50.06,45.67 49.69,44.04" id="Path" stroke="#465362" stroke-width="10" stroke-linecap="round" stroke-linejoin="round"></path>
                        <path d="M166.97,122.86 C170.24,132.8 173.52,142.69 176.79,152.53 C187.38,151.9 197.94,150.75 208.44,149.08 C217.87,147.52 221.76,158.81 214.16,165.82 C205.68,173.53 197.16,180.9 188.62,187.92 C191.88,197.64 195.14,207.31 198.4,216.94 C201.32,225.59 191.02,234.45 183.33,229.44 C174.78,223.92 166.2,218.06 157.62,211.86 C149.04,218.06 140.47,223.92 131.91,229.44 C124.22,234.45 113.92,225.59 116.84,216.94 C120.1,207.32 123.36,197.65 126.62,187.92 C118.07,180.89 109.55,173.53 101.08,165.82 C93.48,158.81 97.37,147.52 106.8,149.08 C117.3,150.75 127.86,151.9 138.45,152.53 C141.72,142.69 144.99,132.8 148.27,122.86 C151.21,114.01 164.03,114.01 166.97,122.86 L166.97,122.86 Z" id="Path" fill="#FFB74D" fill-rule="nonzero"></path>
                        <circle id="Oval" fill="#FFB74D" fill-rule="nonzero" cx="100.82" cy="114.79" r="10.69"></circle>
                        <circle id="Oval" fill="#FFB74D" fill-rule="nonzero" cx="243.67" cy="181.93" r="10.69"></circle>
                        <circle id="Oval" fill="#FFB74D" fill-rule="nonzero" cx="85.15" cy="181.93" r="4.98"></circle>
                        <circle id="Oval" fill="#FFB74D" fill-rule="nonzero" cx="216.02" cy="104.1" r="15.92"></circle>
                        <circle id="Oval" fill="#FFB74D" fill-rule="nonzero" cx="65.22" cy="216.77" r="8.16"></circle>
                    </g>
                    <g id="sparkle" stroke="none" stroke-width="1" fill="none" fill-rule="evenodd" transform="translate(2296.7975, 214.8175)">
                        <path d="M54.8325,30.2125 C41.0825,35.5425 35.5425,41.0825 30.2125,54.8325 C29.4725,56.7425 26.7925,56.7425 26.0525,54.8325 C20.7225,41.0825 15.1825,35.5425 1.4325,30.2125 C-0.4775,29.4725 -0.4775,26.7925 1.4325,26.0525 C15.1825,20.7225 20.7225,15.1825 26.0525,1.4325 C26.7925,-0.4775 29.4725,-0.4775 30.2125,1.4325 C35.5425,15.1825 41.0825,20.7225 54.8325,26.0525 C56.7425,26.7925 56.7425,29.4725 54.8325,30.2125 Z" id="Path" fill="#FFFFFF" fill-rule="nonzero"></path>
                        <path d="M120.8625,62.6825 C107.1125,68.0125 101.5725,73.5525 96.2425,87.3025 C95.5025,89.2125 92.8225,89.2125 92.0825,87.3025 C86.7525,73.5525 81.2125,68.0125 67.4625,62.6825 C65.5525,61.9425 65.5525,59.2625 67.4625,58.5225 C81.2125,53.1925 86.7525,47.6525 92.0825,33.9025 C92.8225,31.9925 95.5025,31.9925 96.2425,33.9025 C101.5725,47.6525 107.1125,53.1925 120.8625,58.5225 C122.7725,59.2625 122.7725,61.9425 120.8625,62.6825 L120.8625,62.6825 Z" id="Path" fill="#FFFFFF" fill-rule="nonzero"></path>
                        <path d="M71.0825,98.2425 C57.3325,103.5725 51.7925,109.1125 46.4625,122.8625 C45.7225,124.7725 43.0425,124.7725 42.3025,122.8625 C36.9725,109.1125 31.4325,103.5725 17.6825,98.2425 C15.7725,97.5025 15.7725,94.8225 17.6825,94.0825 C31.4325,88.7525 36.9725,83.2125 42.3025,69.4625 C43.0425,67.5525 45.7225,67.5525 46.4625,69.4625 C51.7925,83.2125 57.3325,88.7525 71.0825,94.0825 C72.9925,94.8225 72.9925,97.5025 71.0825,98.2425 Z" id="Path" fill="#FFFFFF" fill-rule="nonzero"></path>
                    </g>
                    <path d="M553.04,892.45 L143.55,892.45 C143.55,876.777694 156.13,864.064141 171.65,864.064141 C179.29,864.064141 186.21,867.144073 191.28,872.132552 C198.83,855.925044 215.15,844.695918 234.06,844.695918 C244.6,844.695918 254.34,848.189872 262.2,854.066987 C262.81,853.380314 263.45,852.703739 264.09,852.04736 C275.29,815.835447 308.75,789.55 348.3,789.55 C387.85,789.55 421.31,815.835447 432.5,852.04736 C433.15,852.703739 433.78,853.370216 434.4,854.066987 C442.26,848.179774 452,844.695918 462.54,844.695918 C481.45,844.695918 497.77,855.925044 505.32,872.132552 C510.39,867.133974 517.31,864.064141 524.95,864.064141 C540.47,864.064141 553.05,876.777694 553.05,892.45 L553.04,892.45 Z" id="cloud" stroke="#465362" stroke-width="10" fill="#FFFFFF" fill-rule="nonzero" opacity="0" stroke-linecap="round" stroke-linejoin="round"></path>
                </g>
            </g>
        </g>
    </g>
</svg>