<?xml version="1.0" encoding="UTF-8"?>
<svg width="2322px" height="495px" viewBox="0 0 2322 495" version="1.1" xmlns="http://www.w3.org/2000/svg" xmlns:xlink="http://www.w3.org/1999/xlink">
    <title>HTML for people</title>
    <g id="Page-1" stroke="none" stroke-width="1" fill="none" fill-rule="evenodd">
        <g id="logo" transform="translate(10, 10)">
            <rect id="logo-border" stroke="#465362" stroke-width="17" fill="#FFFFFF" fill-rule="nonzero" stroke-linecap="round" stroke-linejoin="round" x="736.625" y="176.75" width="1566.86261" height="283" rx="123.44"></rect>
            <g id="logo-text" transform="translate(829.3611, 265.1187)" fill="#465362" fill-rule="nonzero">
                <path d="M41.5306627,74.3952528 L4.82594783,57.4528516 C1.00874919,55.6531513 0,53.6356529 0,49.7038237 C0,45.7719945 1.00874919,43.7544961 4.82594783,41.8516283 L41.5306627,24.8977641 C42.768673,24.3360742 43.9952203,23.7743843 45.2332307,23.7743843 C46.9183004,23.7743843 47.812419,25.0123947 47.812419,28.1532728 C47.812419,33.3116494 47.2507291,35.2259802 42.9864712,36.9110499 L12.6781432,49.5891931 L42.9864712,62.3819669 C47.3653597,64.1816672 47.812419,66.1991656 47.812419,71.139744 C47.812419,74.2806222 46.9183004,75.4040019 45.2332307,75.4040019 C43.9952203,75.4040019 42.768673,74.9569426 41.5306627,74.3952528 L41.5306627,74.3952528 Z" id="Path"></path>
                <path d="M72.2860499,48.4772764 C69.7068616,41.9662589 65.889663,30.0676037 65.889663,19.4069588 C65.889663,8.746314 70.9334089,2.12066591 78.3500081,2.12066591 C85.7666073,2.12066591 90.9249838,8.746314 90.9249838,19.5215894 C90.9249838,30.2968649 87.2224157,41.9662589 84.6432275,48.4772764 C82.8435272,52.294475 80.8260288,54.7590327 78.4646387,54.7590327 C76.1032485,54.7590327 73.9711196,52.294475 72.2860499,48.4772764 L72.2860499,48.4772764 Z M78.5678062,62.1641688 C84.9641931,62.1641688 90.0194021,67.3225454 90.0194021,73.7303953 C90.0194021,80.1382453 84.9641931,85.1819913 78.5678062,85.1819913 C72.1714193,85.1819913 67.1162103,80.1267822 67.1162103,73.7303953 C67.1162103,67.3340084 72.1714193,62.1641688 78.5678062,62.1641688 Z" id="Shape"></path>
                <path d="M101.803427,55.9970431 C101.803427,54.1973428 102.479747,51.4003564 103.144605,49.6006562 C104.715044,44.889339 106.629375,43.0896387 112.68187,43.0896387 C115.822748,43.0896387 119.192887,43.3188999 122.333765,43.3188999 C125.474644,43.3188999 128.844783,43.0896387 131.985661,43.0896387 C137.04087,43.0896387 138.496679,45.5541964 138.496679,47.8009559 C138.496679,49.4860256 137.934989,52.294475 137.258668,54.1973428 C135.458968,58.9086601 133.670731,60.5937297 127.492142,60.5937297 C124.351264,60.5937297 121.095755,60.3644686 117.954877,60.3644686 C114.813999,60.3644686 111.443859,60.5937297 108.302981,60.5937297 C103.144605,60.5937297 101.791964,58.2323396 101.791964,55.98558 L101.803427,55.9970431 Z" id="Path"></path>
                <path d="M148.148574,55.9970431 C148.148574,54.1973428 148.824895,51.4003564 149.501215,49.6006562 C151.071654,44.889339 152.974522,43.0896387 159.03848,43.0896387 C162.179358,43.0896387 165.549498,43.3188999 168.690376,43.3188999 C171.831254,43.3188999 175.201393,43.0896387 178.342272,43.0896387 C183.397481,43.0896387 184.853289,45.5541964 184.853289,47.8009559 C184.853289,49.4860256 184.291599,52.294475 183.615279,54.1973428 C181.815578,58.9086601 180.027341,60.5937297 173.848752,60.5937297 C170.707874,60.5937297 167.452366,60.3644686 164.311487,60.3644686 C161.170609,60.3644686 157.80047,60.5937297 154.659592,60.5937297 C149.501215,60.5937297 148.148574,58.2323396 148.148574,55.98558 L148.148574,55.9970431 Z" id="Path"></path>
                <path d="M269.932113,78.5563432 C269.932113,75.7478937 271.949611,74.5213464 275.31975,73.6157647 C277.337249,72.8248137 277.56651,69.9131967 277.56651,65.6489388 L277.56651,50.8272035 C277.00482,49.8184543 276.44313,49.5891931 271.731813,49.5891931 L255.901329,49.5891931 C251.190011,49.5891931 250.628321,49.8184543 250.066632,50.8272035 L250.066632,65.6489388 C250.066632,69.9131967 250.295893,72.9394443 252.313391,73.6157647 C255.68353,74.5098833 257.701029,75.7478937 257.701029,78.5563432 C257.701029,83.7147197 250.295893,85.1819913 238.282607,85.1819913 C226.269321,85.1819913 218.864185,83.7261828 218.864185,78.5563432 C218.864185,75.7478937 220.881683,74.5213464 224.137192,73.6157647 C226.154691,72.8248137 226.498582,69.9131967 226.498582,65.6489388 L226.498582,22.547837 C226.498582,18.2835791 226.166154,15.360499 224.137192,14.581011 C220.881683,13.6868924 218.864185,12.448882 218.864185,9.6404326 C218.864185,4.58522359 226.269321,3.01478451 238.282607,3.01478451 C250.295893,3.01478451 257.701029,4.58522359 257.701029,9.6404326 C257.701029,12.448882 255.68353,13.6754294 252.313391,14.581011 C250.295893,15.2573315 250.066632,18.2835791 250.066632,22.547837 L250.066632,36.8078824 C250.628321,37.8166316 251.190011,38.0458927 255.901329,38.0458927 L271.731813,38.0458927 C276.44313,38.0458927 277.00482,37.8166316 277.56651,36.8078824 L277.56651,22.547837 C277.56651,18.2835791 277.337249,15.360499 275.31975,14.581011 C271.949611,13.6868924 269.932113,12.448882 269.932113,9.6404326 C269.932113,4.58522359 277.451879,3.01478451 289.350535,3.01478451 C301.24919,3.01478451 308.883587,4.58522359 308.883587,9.6404326 C308.883587,12.448882 306.866089,13.6754294 303.495949,14.581011 C301.478451,15.2573315 301.24919,18.2835791 301.24919,22.547837 L301.24919,65.6489388 C301.24919,69.9131967 301.478451,72.9394443 303.495949,73.6157647 C306.866089,74.5098833 308.883587,75.7478937 308.883587,78.5563432 C308.883587,83.7147197 301.36382,85.1819913 289.350535,85.1819913 C277.337249,85.1819913 269.932113,83.7261828 269.932113,78.5563432 Z" id="Path"></path>
                <path d="M333.792814,78.5563432 C333.792814,75.6447262 336.154204,74.4067158 340.189201,73.5125972 C342.653759,72.7216461 343.215449,69.8100292 343.215449,65.5457712 L343.215449,27.0413561 C343.215449,18.1804115 342.653759,15.0280703 340.189201,15.0280703 L339.180452,15.0280703 C335.477884,15.0280703 332.554804,15.7043908 331.213626,17.7218892 C329.860985,19.624757 328.634438,22.6624676 327.625689,25.5740846 C325.722821,30.8470917 323.923121,33.5409106 320.552981,33.5409106 C317.182842,33.5409106 314.489023,30.0561406 314.489023,23.327325 C314.489023,12.437419 319.76203,1.10045366 325.940619,1.10045366 C328.302009,1.10045366 329.975616,2.22383344 330.881197,3.90890311 L379.255306,3.90890311 C380.264055,2.22383344 381.834494,1.10045366 384.310515,1.10045366 C390.374473,1.10045366 395.762111,12.437419 395.762111,23.327325 C395.762111,30.0561406 393.068292,33.5409106 389.583522,33.5409106 C386.098752,33.5409106 384.425146,30.8470917 382.510815,25.5740846 C381.502066,22.6510045 380.264055,19.7393876 378.922878,17.7218892 C377.5817,15.7043908 374.65862,15.0280703 370.956052,15.0280703 L369.947302,15.0280703 C367.482745,15.0280703 366.921055,18.1689485 366.921055,27.0413561 L366.921055,65.5457712 C366.921055,69.8100292 367.597375,72.6184786 370.061933,73.3979666 C374.09693,74.4067158 376.343689,75.6447262 376.343689,78.5563432 C376.343689,83.7147197 368.147602,85.1819913 355.125567,85.1819913 C342.103532,85.1819913 333.804277,83.7261828 333.804277,78.5563432 L333.792814,78.5563432 Z" id="Path"></path>
                <path d="M400.565133,78.4417126 C400.565133,75.3008344 402.926523,73.7303953 406.96152,72.6070156 C409.32291,71.712897 409.8846,67.5518065 409.8846,61.1554196 L409.8846,24.0036455 C409.8846,19.2923283 409.437541,16.3692482 407.190781,15.1427009 C404.164533,14.2485823 401.012192,13.0105719 401.012192,9.52580201 C401.012192,4.92911536 407.190781,3.24404569 418.630914,3.24404569 C430.071047,3.24404569 432.329269,4.48205606 435.917207,10.6491818 C440.296095,18.7306384 447.483433,32.8760531 453.088869,44.8778759 C461.846646,27.591583 465.767012,18.7306384 469.251782,10.7523493 C471.830971,5.03228289 475.648169,3.23258263 485.529326,3.23258263 C497.313351,3.23258263 503.148048,4.9176523 503.148048,9.51433895 C503.148048,12.8844783 500.224968,14.2256562 497.19872,15.1312378 C495.066591,16.0253564 494.734162,19.2808652 494.734162,23.9921824 L494.734162,65.6374757 C494.734162,69.6724725 494.963424,72.8248137 497.313351,73.6043017 C500.68349,74.4984203 502.700988,75.7364307 502.700988,78.5448801 C502.700988,83.7032566 495.295852,85.1705282 483.282566,85.1705282 C471.269281,85.1705282 463.417085,83.7147197 463.417085,78.5448801 C463.417085,75.7364307 465.663845,74.5098833 469.033984,73.6043017 C471.395374,72.7101831 471.945601,69.9017336 471.945601,65.6374757 L471.945601,41.7255347 C471.945601,38.3553953 471.945601,35.8908377 471.830971,33.9765068 C466.775762,45.4281027 462.179075,55.194629 457.123866,64.5026329 C453.982988,70.1195318 451.850859,73.3635774 447.919029,73.3635774 C443.654772,73.3635774 441.408012,70.2226993 438.381764,64.6058004 C433.223388,54.8392741 427.938918,44.1786293 422.895172,33.9650437 L422.895172,61.1210305 C422.895172,67.5174174 423.78929,71.1053548 426.827001,72.3433652 C430.861998,73.466745 433.56728,75.1518146 433.56728,78.4073234 C433.56728,83.3479018 426.494572,85.1476021 416.842677,85.1476021 C407.190781,85.1476021 400.565133,83.3479018 400.565133,78.4073234 L400.565133,78.4417126 Z" id="Path"></path>
                <path d="M564.097132,84.2764096 L543.669961,84.2764096 C536.150194,84.2764096 530.315497,84.5056708 526.154407,84.5056708 C515.71156,84.5056708 510.553184,83.1644929 510.553184,78.6709738 C510.553184,75.5300956 513.247003,74.062824 516.502511,73.3979666 C518.63464,72.6184786 518.863901,69.580768 518.863901,65.4311406 L518.863901,22.5593001 C518.863901,18.2950421 518.302212,15.3719621 516.170083,14.5924741 C512.914574,13.6983555 510.897076,12.4603451 510.897076,9.65189566 C510.897076,4.59668665 519.093163,3.02624757 530.991818,3.02624757 C543.566794,3.02624757 550.628038,4.59668665 550.628038,9.53726507 C550.628038,12.5635126 548.495909,13.6868924 545.011139,14.5924741 C542.649749,15.3834251 542.431951,18.6274708 542.431951,22.7885612 L542.431951,61.5107745 C542.431951,70.3717191 542.993641,73.0655379 547.48716,73.0655379 L551.075097,73.0655379 C557.471484,73.0655379 562.182801,72.3892174 563.982502,70.2570885 C565.552941,68.3542207 566.790951,64.3077609 567.914331,61.1668827 C569.599401,55.8938756 571.502268,52.6383668 575.101669,52.6383668 C578.701069,52.6383668 581.612686,56.3409349 581.612686,63.8607016 C581.612686,74.9684057 576.110418,87.0963221 569.381602,87.0963221 C566.917045,87.0963221 565.231975,86.0875729 564.108595,84.2878727 L564.097132,84.2764096 Z" id="Path"></path>
                <path d="M609.777422,78.6709738 C609.777422,75.8625243 612.024182,74.7391445 615.050429,73.7303953 C616.620868,73.283336 617.629618,70.5895172 617.629618,66.8869491 L617.629618,40.625081 L614.04168,40.625081 C609.777422,40.625081 608.539412,39.1692725 608.539412,35.5813351 C608.539412,31.9933976 609.777422,30.6407566 614.04168,30.6407566 L616.506238,30.6407566 C614.60337,27.3852479 611.68029,23.6826798 611.68029,17.6187216 C611.68029,8.19608717 619.647116,0 633.460102,0 C645.129496,0 653.325583,6.39638691 653.325583,14.7071047 C653.325583,19.9801118 650.070075,23.2356205 645.244127,23.2356205 C640.418179,23.2356205 637.953621,20.3240036 636.60098,16.724603 C635.259802,13.3544637 634.354221,9.09020577 630.651653,9.09020577 C628.072464,9.09020577 626.616656,11.3369653 626.616656,14.3632129 C626.616656,22.4446695 634.365684,25.470917 638.068252,30.6407566 L645.473388,30.6407566 C649.508385,30.6407566 650.746395,32.0965651 650.746395,35.5813351 C650.746395,39.066105 649.508385,40.625081 645.473388,40.625081 L639.638691,40.625081 L639.638691,66.5545204 C639.638691,71.3804682 640.762071,73.1801685 642.44714,73.7418584 C646.149708,74.8652382 648.396468,75.8739874 648.396468,78.6824368 C648.396468,83.8408134 640.08575,85.1934543 628.645617,85.1934543 C617.205484,85.1934543 609.788885,83.6230152 609.788885,78.6824368 L609.777422,78.6709738 Z" id="Path"></path>
                <path d="M655.228451,56.3294718 C655.228451,38.1490603 669.488496,25.5740846 690.248096,25.5740846 C708.990198,25.5740846 721.565173,38.0344297 721.565173,55.4353532 C721.565173,73.7303953 707.08733,86.0761099 686.774789,86.0761099 C667.803427,86.0761099 655.239914,73.7303953 655.239914,56.3294718 L655.228451,56.3294718 Z M692.265595,76.7566429 C696.873744,76.7566429 700.11779,72.7216461 700.11779,65.6489388 C700.11779,54.0941753 693.274344,34.8935515 684.631197,34.8935515 C680.137678,34.8935515 676.779002,38.7107502 676.779002,46.0012557 C676.779002,57.6706497 683.40465,76.7566429 692.265595,76.7566429 Z" id="Shape"></path>
                <path d="M729.417369,78.6709738 C729.417369,75.9771549 731.320237,74.8537751 733.681627,74.062824 C735.137435,73.5011342 735.366696,70.9219459 735.366696,67.1047472 L735.366696,47.9155865 C735.366696,44.4308166 734.805006,41.0721403 733.349198,40.613618 C730.32295,39.7194994 728.855679,38.2522278 728.855679,36.1200988 C728.855679,34.4350292 729.64663,33.0938513 731.664128,31.8558409 C736.822505,28.4857016 746.818292,26.3535726 751.197181,26.3535726 C757.031878,26.3535726 757.37577,30.0561406 757.37577,37.128848 L757.37577,39.5934057 C760.849076,31.1795204 766.913035,25.6772521 773.871111,25.6772521 C780.0497,25.6772521 784.978816,30.1707712 784.978816,38.0229666 C784.978816,45.875162 780.943819,50.5979423 774.650599,50.5979423 C770.71877,50.5979423 767.910321,48.6950745 766.122084,46.8953743 C764.769443,45.5427333 763.542895,44.2015554 761.972456,44.2015554 C759.611066,44.2015554 757.364307,47.6748623 757.364307,51.9505833 L757.364307,66.8754861 C757.364307,71.3690052 757.811366,73.1572424 759.381805,73.7189323 C762.855112,74.7276815 764.998704,75.9656918 764.998704,78.7741413 C764.998704,83.7147197 757.249676,85.1705282 746.371233,85.1705282 C736.272278,85.1705282 729.428832,83.6000891 729.428832,78.6595107 L729.417369,78.6709738 Z" id="Path"></path>
                <path d="M811.905541,99.8776329 C811.905541,97.0691834 814.03767,95.9458036 816.39906,95.051685 C817.969499,94.3753645 818.198761,91.9108069 818.198761,88.0936082 L818.198761,47.9155865 C818.198761,44.5454472 817.637071,41.0721403 816.181262,40.613618 C813.155015,39.7194994 811.687743,38.3668584 811.687743,36.1200988 C811.687743,34.4350292 812.478694,33.0938513 814.496192,31.8558409 C819.7692,28.6003321 829.650356,26.3535726 834.029245,26.3535726 C839.863942,26.3535726 840.207834,30.0561406 840.207834,37.128848 L840.207834,38.0229666 C843.692604,30.8356286 851.21237,25.7918827 859.844054,25.7918827 C872.53366,25.7918827 881.727033,37.4612767 881.727033,54.6329391 C881.727033,73.3750405 870.160807,85.8353856 854.456416,85.8353856 C849.183409,85.8353856 844.013569,84.3795771 840.196371,82.2474482 L840.196371,88.0821452 C840.196371,92.4610337 840.528799,94.260734 842.3285,94.9255914 C845.469378,96.0489712 847.601507,97.0577203 847.601507,99.8661698 C847.601507,104.921379 839.852479,106.262557 829.191834,106.262557 C819.092879,106.262557 811.905541,104.692118 811.905541,99.8661698 L811.905541,99.8776329 Z M848.942685,77.0890716 C854.892012,77.0890716 858.823842,71.2543746 858.823842,58.5647683 C858.823842,45.875162 854.892012,39.8226669 849.401207,39.8226669 C843.910402,39.8226669 839.634681,45.5427333 839.634681,59.5735175 C839.634681,72.4809219 843.56651,77.0776086 848.954148,77.0776086 L848.942685,77.0890716 Z" id="Shape"></path>
                <path d="M888.902908,57.1204229 C888.902908,38.8253808 902.601264,25.8033458 919.876094,25.8033458 C936.153637,25.8033458 945.243843,36.6932518 945.243843,46.0012557 C945.243843,51.6181546 941.873704,55.206092 935.706578,55.206092 L908.653759,55.206092 C910.338829,63.172918 915.944264,67.8842353 924.587411,67.8842353 C930.422108,67.8842353 934.468568,65.8667369 937.827244,63.3907161 C939.168422,62.4965975 940.521063,61.7056465 941.862241,61.7056465 C944.109,61.7056465 945.564809,63.161455 945.564809,66.3023331 C945.564809,68.996152 944.223631,72.3662913 941.74761,75.5071695 C937.368722,81.1240684 929.058004,86.0531837 917.732502,86.0531837 C900.67547,86.0531837 888.891445,74.0398979 888.891445,57.0974968 L888.902908,57.1204229 Z M919.543665,47.9155865 C925.263731,47.6863253 927.739752,45.668827 927.739752,42.1955201 C927.739752,38.0458927 924.713505,34.4464922 919.543665,34.4464922 C913.032647,34.4464922 908.653759,40.0633911 908.092069,48.1448477 L919.543665,47.9155865 Z" id="Shape"></path>
                <path d="M952.76361,56.3294718 C952.76361,38.1490603 967.023655,25.5740846 987.783255,25.5740846 C1006.52536,25.5740846 1019.10033,38.0344297 1019.10033,55.4353532 C1019.10033,73.7303953 1004.62249,86.0761099 984.309948,86.0761099 C965.338586,86.0761099 952.775073,73.7303953 952.775073,56.3294718 L952.76361,56.3294718 Z M989.800753,76.7566429 C994.408903,76.7566429 997.652949,72.7216461 997.652949,65.6489388 C997.652949,54.0941753 990.809503,34.8935515 982.166356,34.8935515 C977.672837,34.8935515 974.314161,38.7107502 974.314161,46.0012557 C974.314161,57.6706497 980.939809,76.7566429 989.800753,76.7566429 Z" id="Shape"></path>
                <path d="M1025.71452,99.8776329 C1025.71452,97.0691834 1027.84665,95.9458036 1030.20804,95.051685 C1031.77848,94.3753645 1032.00774,91.9108069 1032.00774,88.0936082 L1032.00774,47.9155865 C1032.00774,44.5454472 1031.44605,41.0721403 1029.99024,40.613618 C1026.96399,39.7194994 1025.49672,38.3668584 1025.49672,36.1200988 C1025.49672,34.4350292 1026.28767,33.0938513 1028.30517,31.8558409 C1033.57818,28.6003321 1043.45933,26.3535726 1047.83822,26.3535726 C1053.67292,26.3535726 1054.01681,30.0561406 1054.01681,37.128848 L1054.01681,38.0229666 C1057.50158,30.8356286 1065.02135,25.7918827 1073.65303,25.7918827 C1086.34264,25.7918827 1095.53601,37.4612767 1095.53601,54.6329391 C1095.53601,73.3750405 1083.96978,85.8353856 1068.26539,85.8353856 C1062.99238,85.8353856 1057.82255,84.3795771 1054.00535,82.2474482 L1054.00535,88.0821452 C1054.00535,92.4610337 1054.33778,94.260734 1056.13748,94.9255914 C1059.27835,96.0489712 1061.41048,97.0577203 1061.41048,99.8661698 C1061.41048,104.921379 1053.66145,106.262557 1043.00081,106.262557 C1032.90186,106.262557 1025.71452,104.692118 1025.71452,99.8661698 L1025.71452,99.8776329 Z M1062.75166,77.0890716 C1068.70099,77.0890716 1072.63282,71.2543746 1072.63282,58.5647683 C1072.63282,45.875162 1068.70099,39.8226669 1063.21018,39.8226669 C1057.71938,39.8226669 1053.44366,45.5427333 1053.44366,59.5735175 C1053.44366,72.4809219 1057.37549,77.0776086 1062.76312,77.0776086 L1062.75166,77.0890716 Z" id="Shape"></path>
                <path d="M1102.48262,78.6709738 C1102.48262,75.9771549 1104.50012,74.8537751 1106.86151,74.062824 C1108.31732,73.5011342 1108.54658,70.9219459 1108.54658,67.1047472 L1108.54658,23.4419556 C1108.54658,19.624757 1107.75563,16.1514501 1106.18519,15.4751296 C1102.81505,14.4663804 1100.91218,13.0105719 1100.91218,10.6491818 C1100.91218,8.96411212 1101.70314,7.50830363 1103.72063,6.27029326 C1109.2229,2.90015392 1119.55112,0.768024951 1124.26244,0.768024951 C1130.21176,0.768024951 1130.65882,4.470593 1130.65882,11.657931 C1130.65882,15.5897602 1130.54419,20.415708 1130.54419,26.0211439 L1130.54419,67.1047472 C1130.54419,71.712897 1130.77345,73.5011342 1132.11463,74.062824 C1134.69382,74.9569426 1136.49352,75.9656918 1136.49352,78.6709738 C1136.49352,83.7147197 1129.42081,85.1819913 1119.53965,85.1819913 C1109.6585,85.1819913 1102.48262,83.6115522 1102.48262,78.6709738 Z" id="Path"></path>
                <path d="M1143.33697,57.1204229 C1143.33697,38.8253808 1157.03532,25.8033458 1174.31015,25.8033458 C1190.58769,25.8033458 1199.6779,36.6932518 1199.6779,46.0012557 C1199.6779,51.6181546 1196.30776,55.206092 1190.14064,55.206092 L1163.08782,55.206092 C1164.77289,63.172918 1170.37832,67.8842353 1179.02147,67.8842353 C1184.85616,67.8842353 1188.90262,65.8667369 1192.2613,63.3907161 C1193.60248,62.4965975 1194.95512,61.7056465 1196.2963,61.7056465 C1198.54306,61.7056465 1199.99887,63.161455 1199.99887,66.3023331 C1199.99887,68.996152 1198.65769,72.3662913 1196.18167,75.5071695 C1191.80278,81.1240684 1183.49206,86.0531837 1172.16656,86.0531837 C1155.10953,86.0531837 1143.3255,74.0398979 1143.3255,57.0974968 L1143.33697,57.1204229 Z M1173.97772,47.9155865 C1179.69779,47.6863253 1182.17381,45.668827 1182.17381,42.1955201 C1182.17381,38.0458927 1179.14756,34.4464922 1173.97772,34.4464922 C1167.4667,34.4464922 1163.08782,40.0633911 1162.52613,48.1448477 L1173.97772,47.9155865 Z" id="Shape"></path>
                <path d="M1233.6888,55.9970431 C1233.6888,54.1973428 1234.36512,51.4003564 1235.04144,49.6006562 C1236.61188,44.889339 1238.51474,43.0896387 1244.5787,43.0896387 C1247.71958,43.0896387 1251.08972,43.3188999 1254.2306,43.3188999 C1257.37148,43.3188999 1260.74162,43.0896387 1263.88249,43.0896387 C1268.9377,43.0896387 1270.39351,45.5541964 1270.39351,47.8009559 C1270.39351,49.4860256 1269.83182,52.294475 1269.1555,54.1973428 C1267.3558,58.9086601 1265.56756,60.5937297 1259.38897,60.5937297 C1256.2481,60.5937297 1252.99259,60.3644686 1249.85171,60.3644686 C1246.71083,60.3644686 1243.34069,60.5937297 1240.19981,60.5937297 C1235.04144,60.5937297 1233.6888,58.2323396 1233.6888,55.98558 L1233.6888,55.9970431 Z" id="Path"></path>
                <path d="M1280.03394,55.9970431 C1280.03394,54.1973428 1280.71026,51.4003564 1281.37512,49.6006562 C1282.94556,44.889339 1284.85989,43.0896387 1290.91239,43.0896387 C1294.05326,43.0896387 1297.4234,43.3188999 1300.56428,43.3188999 C1303.70516,43.3188999 1307.0753,43.0896387 1310.21618,43.0896387 C1315.27139,43.0896387 1316.7272,45.5541964 1316.7272,47.8009559 C1316.7272,49.4860256 1316.16551,52.294475 1315.48919,54.1973428 C1313.68948,58.9086601 1311.90125,60.5937297 1305.72266,60.5937297 C1302.58178,60.5937297 1299.32627,60.3644686 1296.18539,60.3644686 C1293.04452,60.3644686 1289.67438,60.5937297 1286.5335,60.5937297 C1281.37512,60.5937297 1280.02248,58.2323396 1280.02248,55.98558 L1280.03394,55.9970431 Z" id="Path"></path>
                <path d="M1333.56643,71.1512071 C1333.56643,66.2106286 1334.01349,64.1931303 1338.39238,62.39343 L1368.7007,49.6006562 L1338.39238,36.922513 C1334.12812,35.2374433 1333.56643,33.3345755 1333.56643,28.1647359 C1333.56643,25.0238577 1334.46055,23.7858474 1336.14562,23.7858474 C1337.38363,23.7858474 1338.61017,24.3475373 1339.84819,24.9092272 L1376.5529,41.8630914 C1380.3701,43.7659592 1381.37885,45.68029 1381.37885,49.7152868 C1381.37885,53.7502835 1380.3701,55.6646144 1376.5529,57.4643146 L1339.84819,74.4067158 C1338.61017,74.9684057 1337.38363,75.415465 1336.14562,75.415465 C1334.46055,75.415465 1333.56643,74.2920852 1333.56643,71.1512071 L1333.56643,71.1512071 Z" id="Path"></path>
            </g>
            <g id="mascot-hover" opacity="0" transform="translate(6, 0)" stroke="#465362" stroke-linecap="round" stroke-linejoin="round" stroke-width="20">
                <line x1="146.285827" y1="377.04" x2="319.845827" y2="318.43" id="Path"></line>
                <path d="M56.4958271,474.41 L123.035827,467.1 C149.885827,464.15 168.065827,441.55 159.785827,417.04 L132.775827,337.04 C124.505827,312.53 96.3458271,305.58 73.2058271,319.51 L15.8458271,354.03 C2.28582712,362.19 -3.35417288,381.06 2.00582712,396.92 L19.4858271,448.7 C24.8458271,464.56 40.7558271,476.15 56.4958271,474.42 L56.4958271,474.41 Z" id="Path" fill="#64B5F6" fill-rule="nonzero"></path>
                <line x1="75.7858271" y1="363.13" x2="98.6458271" y2="430.83" id="Path"></line>
                <line x1="33.9858271" y1="382.27" x2="53.7958271" y2="440.95" id="Path"></line>
                <line x1="493.405827" y1="377.04" x2="319.845827" y2="318.43" id="Path"></line>
                <path d="M583.195827,474.41 L516.655827,467.1 C489.805827,464.15 471.625827,441.55 479.905827,417.04 L506.915827,337.04 C515.185827,312.53 543.345827,305.58 566.485827,319.51 L623.845827,354.03 C637.405827,362.19 643.045827,381.06 637.685827,396.92 L620.205827,448.7 C614.845827,464.56 598.935827,476.15 583.195827,474.42 L583.195827,474.41 Z" id="Path" fill="#64B5F6" fill-rule="nonzero"></path>
                <line x1="563.905827" y1="363.13" x2="541.045827" y2="430.83" id="Path"></line>
                <line x1="605.715827" y1="382.27" x2="585.905827" y2="440.95" id="Path"></line>
                <circle id="Oval" fill="#BBDEFB" fill-rule="nonzero" cx="319.845827" cy="318.43" r="145.32"></circle>
                <line x1="245.355827" y1="102.33" x2="319.845827" y2="51.17" id="Path"></line>
                <line x1="394.335827" y1="102.33" x2="319.845827" y2="51.17" id="Path"></line>
                <circle id="Oval" fill="#FFB74D" fill-rule="nonzero" cx="319.845827" cy="25.58" r="25.58"></circle>
                <path d="M429.795827,99.35 C429.795827,120.51 380.575827,173.11 319.845827,173.11 C259.115827,173.11 209.895827,120.51 209.895827,99.35 C209.895827,82.85 429.785827,82.85 429.785827,99.35 L429.795827,99.35 Z" id="Path" fill="#FFFFFF" fill-rule="nonzero"></path>
                <path d="M217.775827,282.53 C222.375827,277.93 228.725827,275.09 235.735827,275.09 C242.745827,275.09 249.095827,277.93 253.695827,282.53" id="Path"></path>
                <path d="M385.995827,282.53 C390.595827,277.93 396.945827,275.09 403.955827,275.09 C410.965827,275.09 417.315827,277.93 421.915827,282.53" id="Path"></path>
                <path d="M357.355827,300.956336 L357.355827,397.496336 C357.355827,416.576336 341.895827,432.046336 322.815827,432.046336 C303.735827,432.046336 288.265827,416.576336 288.265827,397.496336 L288.265827,300.956336 L357.355827,300.956336 Z" id="Path" fill="#465362" fill-rule="nonzero"></path>
                <path d="M357.355827,366.436336 L357.355827,397.496336 C357.355827,416.576336 341.895827,432.046336 322.815827,432.046336 C303.735827,432.046336 288.265827,416.576336 288.265827,397.496336 L288.265827,366.826336 C299.195827,362.796336 311.025827,360.596336 323.355827,360.596336 C335.685827,360.596336 346.725827,362.656336 357.355827,366.436336 L357.355827,366.436336 Z" id="Path" fill="#FF8080" fill-rule="nonzero"></path>
            </g>
            <g id="mascot" stroke="#465362" stroke-linecap="round" stroke-linejoin="round" stroke-width="20">
                <line x1="326.24" y1="318.43" x2="509.43" y2="318.43" id="Path"></line>
                <path d="M625.65,381.96 L560.26,396.32 C533.88,402.11 509.43,386.52 509.43,360.65 L509.43,276.21 C509.43,250.35 533.88,234.75 560.26,240.54 L625.65,254.9 C641.11,258.3 652.49,274.36 652.49,291.1 L652.49,345.75 C652.49,362.49 641.12,378.56 625.65,381.95 L625.65,381.96 Z" id="Path" fill="#64B5F6" fill-rule="nonzero"></path>
                <line x1="571.77" y1="282.71" x2="571.77" y2="354.16" id="Path"></line>
                <line x1="617.51" y1="287.47" x2="617.51" y2="349.4" id="Path"></line>
                <line x1="143.06" y1="318.43" x2="326.24" y2="318.43" id="Path"></line>
                <path d="M26.84,381.96 L92.23,396.32 C118.61,402.11 143.06,386.52 143.06,360.65 L143.06,276.21 C143.06,250.35 118.61,234.75 92.23,240.54 L26.84,254.9 C11.38,258.3 0,274.36 0,291.1 L0,345.75 C0,362.49 11.37,378.56 26.84,381.95 L26.84,381.96 Z" id="Path" fill="#64B5F6" fill-rule="nonzero"></path>
                <line x1="80.71" y1="282.71" x2="80.71" y2="354.16" id="Path"></line>
                <line x1="34.98" y1="287.47" x2="34.98" y2="349.4" id="Path"></line>
                <line x1="251.75" y1="102.33" x2="326.24" y2="51.17" id="Path"></line>
                <line x1="400.73" y1="102.33" x2="326.24" y2="51.17" id="Path"></line>
                <circle id="Oval" fill="#FFB74D" fill-rule="nonzero" cx="326.24" cy="25.58" r="25.58"></circle>
                <path d="M436.19,99.36 C436.19,120.52 386.96,173.12 326.24,173.12 C320.76,173.12 315.37,172.69 310.1,171.89 C257.03,163.88 216.29,118.61 216.29,99.36 C216.29,88.85 305.59,85.03 370.38,87.92 C407.26,89.56 436.19,93.37 436.19,99.36 Z" id="Path" fill="#FFFFFF" fill-rule="nonzero"></path>
                <circle id="Oval" fill="#BBDEFB" fill-rule="nonzero" cx="326.24" cy="318.43" r="145.32"></circle>
                <path d="M360.24,302.58 C351.4,311.42 339.18,316.89 325.69,316.89 C312.2,316.89 299.98,311.42 291.14,302.58" id="Path"></path>
                <path d="M223.62,282.53 C228.22,277.93 234.57,275.09 241.58,275.09 C248.59,275.09 254.94,277.93 259.54,282.53" id="Path"></path>
                <path d="M391.84,282.53 C396.44,277.93 402.79,275.09 409.8,275.09 C416.81,275.09 423.16,277.93 427.76,282.53" id="Path"></path>
            </g>
        </g>
    </g>
</svg>