<?xml version="1.0" encoding="UTF-8"?>
<svg width="485px" height="312px" viewBox="0 0 485 312" version="1.1" xmlns="http://www.w3.org/2000/svg" xmlns:xlink="http://www.w3.org/1999/xlink">
    <title>mascot-aside-back</title>
    <g id="Page-1" stroke="none" stroke-width="1" fill="none" fill-rule="evenodd">
        <g id="mascot-aside-back" transform="translate(242.7, 156.1548) scale(-1, 1) translate(-242.7, -156.1548)translate(10.8, 10.8548)">
            <circle id="Oval" stroke="#465362" stroke-width="20" fill="#FFFFFF" fill-rule="nonzero" stroke-linecap="round" stroke-linejoin="round" cx="438.2" cy="145.3" r="25.6"></circle>
            <circle id="Oval" stroke="#465362" stroke-width="20" fill="#BBDEFB" fill-rule="nonzero" stroke-linecap="round" stroke-linejoin="round" cx="145.3" cy="145.3" r="145.3"></circle>
            <path d="M225.3,61.2 L225.3,61.2 C225.3,70.8 217.5,78.6 207.9,78.6 L196.1,78.6 C186.5,78.6 178.7,70.8 178.7,61.2 L178.7,61.2 C178.7,51.6 186.5,43.8 196.1,43.8 L207.9,43.8 C217.5,43.8 225.3,51.6 225.3,61.2 Z" id="Path" fill="#465362" fill-rule="nonzero"></path>
            <path d="M225.3,229.5 L225.3,229.5 C225.3,239.1 217.5,246.9 207.9,246.9 L196.1,246.9 C186.5,246.9 178.7,239.1 178.7,229.5 L178.7,229.5 C178.7,219.9 186.5,212.1 196.1,212.1 L207.9,212.1 C217.5,212.1 225.3,219.9 225.3,229.5 Z" id="Path" fill="#465362" fill-rule="nonzero"></path>
            <line x1="361.4" y1="70.9" x2="412.6" y2="145.3" id="Path" stroke="#465362" stroke-width="20" stroke-linecap="round" stroke-linejoin="round"></line>
            <line x1="361.4" y1="219.8" x2="412.6" y2="145.3" id="Path" stroke="#465362" stroke-width="20" stroke-linecap="round" stroke-linejoin="round"></line>
            <path d="M364.4,255.3 C343.2,255.3 290.6,206.1 290.6,145.3 C290.6,84.5 343.2,35.4 364.4,35.4 C385.6,35.4 380.9,255.3 364.4,255.3 L364.4,255.3 Z" id="Path" stroke="#465362" stroke-width="20" fill="#FFFFFF" fill-rule="nonzero" stroke-linecap="round" stroke-linejoin="round"></path>
        </g>
    </g>
</svg>