<?xml version="1.0" encoding="UTF-8"?>
<svg width="177px" height="557px" viewBox="0 0 177 557" version="1.1" xmlns="http://www.w3.org/2000/svg" xmlns:xlink="http://www.w3.org/1999/xlink">
    <title>mascot-aside-front</title>
    <g id="Page-1" stroke="none" stroke-width="1" fill="none" fill-rule="evenodd" stroke-linecap="round" stroke-linejoin="round">
        <g id="mascot-aside-front" transform="translate(88.8031, 278.5548) scale(-1, 1) translate(-88.8031, -278.5548)translate(10.8246, 11)" stroke="#465362" stroke-width="20">
            <path d="M19.6245864,503.15482 L80.6245864,530.65482 C105.224586,541.75482 132.424586,531.55482 137.724586,506.25482 L155.124586,423.65482 C160.424586,398.35482 139.724586,378.05482 112.724586,378.253355 L45.8245864,378.75482 C30.0245864,378.85482 15.5245864,392.25482 12.1245864,408.65482 L0.824586351,462.15482 C-2.67541365,478.55482 5.22458635,496.65482 19.6245864,503.15482 L19.6245864,503.15482 Z" id="Path" fill="#64B5F6" fill-rule="nonzero"></path>
            <line x1="92.8245864" y1="417.05482" x2="78.1245864" y2="487.05482" id="Path"></line>
            <line x1="47.1245864" y1="412.35482" x2="34.3245864" y2="472.95482" id="Path"></line>
            <path d="M19.6245864,31.9548201 L80.6245864,4.45482007 C105.224586,-6.64517993 132.424586,3.55482007 137.724586,28.8548201 L155.124586,111.45482 C160.424586,136.75482 139.724586,157.05482 112.724586,156.856285 L45.8245864,156.25482 C30.0245864,156.15482 15.5245864,142.75482 12.1245864,126.35482 L0.824586351,72.8548201 C-2.67541365,56.4548201 5.22458635,38.3548201 19.6245864,31.8548201 L19.6245864,31.8548201 L19.6245864,31.9548201 Z" id="Path" fill="#64B5F6" fill-rule="nonzero"></path>
            <line x1="92.8245864" y1="117.95482" x2="78.1245864" y2="48.0548201" id="Path"></line>
            <line x1="47.1245864" y1="122.75482" x2="34.3245864" y2="62.1548201" id="Path"></line>
        </g>
    </g>
</svg>