<?xml version="1.0" encoding="UTF-8"?>
<svg width="172px" height="97px" viewBox="0 0 172 97" version="1.1" xmlns="http://www.w3.org/2000/svg" xmlns:xlink="http://www.w3.org/1999/xlink">
    <title>Group</title>
    <g id="Page-1" stroke="none" stroke-width="1" fill="none" fill-rule="evenodd">
        <g id="Group" transform="translate(0.162, 0.538)" fill-rule="nonzero">
            <g id="for-People" transform="translate(0, 56.222)" fill="#465362">
                <path d="M5.588,31.284 C6.6,31.284 7.436,30.448 7.436,29.436 L7.436,13.42 L12.232,13.42 C13.244,13.42 14.08,12.584 14.08,11.572 C14.08,10.56 13.244,9.724 12.232,9.724 L7.436,9.724 L7.436,9.416 C7.436,5.808 8.756,3.696 10.736,3.696 C11.704,3.696 12.628,4.268 12.892,5.016 C13.156,5.72 13.86,6.248 14.652,6.248 C15.664,6.248 16.5,5.412 16.5,4.4 C16.5,4.18 16.456,3.916 16.368,3.74 C15.576,1.496 13.244,0 10.736,0 C6.512,0 3.74,3.784 3.74,9.416 L3.74,9.724 L1.848,9.724 C0.836,9.724 0,10.56 0,11.572 C0,12.584 0.836,13.42 1.848,13.42 L3.74,13.42 L3.74,29.436 C3.74,30.448 4.576,31.284 5.588,31.284 Z" id="Path"></path>
                <path d="M23.232,31.724 C28.644,31.724 32.296,27.28 32.296,20.856 C32.296,14.3 28.6,9.68 23.232,9.68 C17.82,9.68 14.124,14.3 14.124,20.856 C14.124,27.324 17.776,31.724 23.232,31.724 Z M23.232,28.028 C19.932,28.028 17.82,25.3 17.82,20.856 C17.82,16.324 19.932,13.376 23.232,13.376 C26.444,13.376 28.6,16.324 28.6,20.856 C28.6,25.3 26.488,28.028 23.232,28.028 Z" id="Shape"></path>
                <path d="M38.368,31.284 C39.38,31.284 40.216,30.448 40.216,29.436 L40.216,19.096 C40.304,15.488 41.976,13.376 44.66,13.376 C45.98,13.376 47.168,13.992 47.432,14.696 C47.696,15.4 48.4,15.928 49.192,15.928 C50.204,15.928 51.04,15.092 51.04,14.08 C51.04,13.86 50.996,13.596 50.908,13.42 C50.072,11.132 47.476,9.68 44.66,9.68 C42.988,9.68 41.492,10.12 40.26,11 C40.084,10.164 39.336,9.548 38.456,9.548 C37.444,9.548 36.608,10.384 36.608,11.396 L36.52,19.052 L36.52,19.096 L36.52,29.436 C36.52,30.448 37.356,31.284 38.368,31.284 Z" id="Path"></path>
                <path d="M66.792,31.284 C67.804,31.284 68.64,30.448 68.64,29.436 L68.64,18.128 L74.096,18.128 C79.244,18.128 82.72,14.564 82.72,9.24 C82.72,4.224 78.936,0.396 74.096,0.396 C73.172,0.396 72.424,0.396 71.632,0.396 C70.972,0.396 70.268,0.396 69.476,0.396 C68.64,0.396 67.804,0.396 66.836,0.396 C65.604,0.396 64.944,1.012 64.944,2.244 L64.944,29.436 C64.944,30.448 65.78,31.284 66.792,31.284 Z M68.64,14.432 L68.64,4.092 C68.904,4.092 69.212,4.092 69.476,4.092 C70.268,4.092 70.928,4.092 71.676,4.092 C72.38,4.092 73.172,4.092 74.096,4.092 C76.912,4.092 79.024,6.248 79.024,9.24 C79.024,12.54 77.176,14.432 74.096,14.432 L68.64,14.432 Z" id="Shape"></path>
                <path d="M91.212,31.724 C94.336,31.724 97.328,30.096 99.264,27.412 C99.484,27.104 99.616,26.708 99.616,26.312 C99.616,25.3 98.78,24.464 97.768,24.464 C97.152,24.464 96.58,24.772 96.272,25.256 C94.996,27.016 93.148,28.028 91.212,28.028 C88,28.028 85.8,25.476 85.8,21.604 C85.8,21.472 85.8,21.384 85.8,21.252 L98.428,21.252 C99.572,21.252 100.32,20.636 100.32,19.448 C100.364,13.948 96.668,9.856 91.652,9.856 C86.064,9.856 82.104,14.74 82.104,21.604 C82.104,27.456 85.932,31.724 91.212,31.724 Z M86.46,17.556 C87.428,15.048 89.32,13.552 91.652,13.552 C94.028,13.552 95.832,15.092 96.404,17.556 L86.46,17.556 Z" id="Shape"></path>
                <path d="M112.772,31.724 C118.184,31.724 121.836,27.28 121.836,20.856 C121.836,14.3 118.14,9.68 112.772,9.68 C107.36,9.68 103.664,14.3 103.664,20.856 C103.664,27.324 107.316,31.724 112.772,31.724 Z M112.772,28.028 C109.472,28.028 107.36,25.3 107.36,20.856 C107.36,16.324 109.472,13.376 112.772,13.376 C115.984,13.376 118.14,16.324 118.14,20.856 C118.14,25.3 116.028,28.028 112.772,28.028 Z" id="Shape"></path>
                <path d="M127.072,39.776 C128.084,39.776 128.92,38.94 128.92,37.928 L128.92,30.932 C130.02,31.46 131.34,31.768 132.704,31.768 C138.116,31.768 141.636,27.28 141.636,20.504 C141.636,13.86 138.424,9.636 133.276,9.636 C131.56,9.636 129.932,10.12 128.568,10.956 C128.216,10.472 127.644,10.164 127.028,10.164 C126.016,10.164 125.18,11 125.18,12.012 L125.224,16.148 L125.224,37.928 C125.224,38.94 126.06,39.776 127.072,39.776 Z M132.704,28.072 C130.636,28.072 128.92,26.884 128.92,25.696 L128.92,16.148 C128.92,14.828 131.12,13.332 133.276,13.332 C136.224,13.332 137.94,15.84 137.94,20.504 C137.94,25.3 135.916,28.072 132.704,28.072 Z" id="Shape"></path>
                <path d="M147.268,31.46 C148.28,31.46 149.116,30.624 149.116,29.612 L149.116,2.244 C149.116,1.232 148.28,0.396 147.268,0.396 C146.256,0.396 145.42,1.232 145.42,2.244 L145.42,29.612 C145.42,30.624 146.256,31.46 147.268,31.46 Z" id="Path"></path>
                <path d="M161.568,31.724 C164.692,31.724 167.684,30.096 169.62,27.412 C169.84,27.104 169.972,26.708 169.972,26.312 C169.972,25.3 169.136,24.464 168.124,24.464 C167.508,24.464 166.936,24.772 166.628,25.256 C165.352,27.016 163.504,28.028 161.568,28.028 C158.356,28.028 156.156,25.476 156.156,21.604 C156.156,21.472 156.156,21.384 156.156,21.252 L168.784,21.252 C169.928,21.252 170.676,20.636 170.676,19.448 C170.72,13.948 167.024,9.856 162.008,9.856 C156.42,9.856 152.46,14.74 152.46,21.604 C152.46,27.456 156.288,31.724 161.568,31.724 Z M156.816,17.556 C157.784,15.048 159.676,13.552 162.008,13.552 C164.384,13.552 166.188,15.092 166.76,17.556 L156.816,17.556 Z" id="Shape"></path>
            </g>
            <g id="HTML" transform="translate(2.3263, 0)" fill="#FF6060">
                <path d="M0.707681241,0.558 C0.273681241,0.992 0.0876812409,1.55 0.0876812409,2.418 C0.0256812409,3.286 0.0256812409,3.844 0.0876812409,4.65 L0.0256812409,5.89 L0.0876812409,7.068 L0.0256812409,8.246 L0.0876812409,10.664 C0.0256812409,11.532 -0.0363187591,12.152 0.0256812409,13.02 L0.0256812409,14.322 L0.0256812409,14.446 C0.0876812409,15.314 0.149681241,15.686 0.0876812409,16.182 C0.0256812409,16.678 0.0876812409,17.112 0.149681241,17.98 L0.211681241,19.282 L0.149681241,20.584 L0.149681241,21.824 L0.0876812409,23.064 L0.211681241,24.304 L0.211681241,25.482 L0.149681241,26.722 L0.211681241,27.9 L0.211681241,28.086 C0.273681241,28.954 0.335681241,29.388 0.273681241,29.76 C0.211681241,30.194 0.211681241,30.752 0.273681241,31.682 L0.273681241,32.922 L0.273681241,33.108 C0.335681241,33.976 0.397681241,34.41 0.335681241,34.782 C0.273681241,35.216 0.335681241,35.712 0.397681241,36.704 L0.335681241,39.246 L0.335681241,40.548 C0.211681241,41.54 0.335681241,42.222 0.769681241,42.656 C0.955681241,42.904 1.26568124,43.09 1.57568124,43.152 C2.31968124,43.338 2.87768124,43.276 3.68368124,43.338 L3.74568124,43.338 L6.10168124,43.276 L8.51968124,43.276 C9.32568124,43.338 9.88368124,43.152 10.2556812,42.656 C10.6276812,42.222 10.7516812,41.664 10.8136812,40.858 L10.6896812,39.494 L10.7516812,38.316 L10.7516812,36.952 L10.7516812,36.828 C10.6896812,35.96 10.6276812,35.464 10.6896812,34.596 L10.7516812,33.232 L10.6896812,31.93 L10.6276812,30.69 L10.6896812,29.388 L10.5036812,27.094 C10.5036812,26.226 10.7516812,25.668 11.1856812,25.234 C11.6816812,24.8 12.2396812,24.676 13.1076812,24.738 L14.2856812,24.676 L16.8276812,24.676 L18.0676812,24.614 L19.3076812,24.614 C20.2376812,24.614 20.8576812,24.8 21.2916812,25.234 C21.7256812,25.668 21.9116812,26.226 21.9116812,27.156 C21.8496812,27.59 21.9116812,27.962 21.9116812,28.396 C21.9736812,29.202 22.0356812,29.76 21.9736812,30.628 L21.9736812,30.814 L21.9116812,31.992 L21.9736812,33.232 L21.9736812,34.41 L22.0356812,35.712 L22.0976812,36.89 L22.0356812,39.432 L22.0356812,40.858 C21.9116812,41.85 22.0356812,42.47 22.4696812,42.904 C22.6556812,43.152 22.9656812,43.338 23.3376812,43.4 C24.0196812,43.586 24.5156812,43.462 24.8876812,43.524 C25.1356812,43.586 25.3836812,43.586 25.6936812,43.586 C26.3136812,43.524 26.8716812,43.462 27.6776812,43.462 L29.0416812,43.524 L30.1576812,43.586 C31.0256812,43.524 31.5216812,43.338 31.9556812,42.904 C32.3276812,42.532 32.5136812,42.036 32.4516812,41.106 L32.5136812,39.742 L32.3896812,38.564 L32.3896812,37.2 L32.3276812,36.022 L32.3276812,34.72 L32.3896812,33.542 L32.3276812,32.178 L32.2656812,30.938 L32.3276812,29.698 L32.2656812,27.218 L32.2656812,25.978 L32.2656812,24.676 L32.2656812,23.56 L32.2656812,22.32 L32.2656812,22.134 C32.2036812,21.266 32.2036812,20.708 32.1416812,19.902 C32.1416812,19.53 32.1416812,19.158 32.0796812,18.662 L32.1416812,17.484 L32.1416812,16.244 L32.2036812,15.004 L32.1416812,13.826 L32.1416812,11.284 L32.0796812,10.106 L32.0796812,8.928 L31.9556812,6.386 L31.9556812,5.146 L31.9556812,3.968 L31.9556812,3.844 C31.8936812,2.976 31.8936812,2.542 31.9556812,2.17 C32.0176812,1.736 31.7696812,1.364 31.3356812,0.93 C30.8396812,0.434 30.2196812,0.31 29.4136812,0.372 L28.0496812,0.31 L26.8096812,0.31 L25.5696812,0.372 L24.3296812,0.372 C23.3376812,0.31 22.7796812,0.434 22.3456812,0.868 C21.9116812,1.364 21.7256812,1.86 21.7876812,2.728 L21.7876812,3.782 L21.7256812,4.898 L21.7256812,6.076 L21.6636812,7.316 L21.6636812,8.494 L21.7256812,9.672 C21.7876812,10.54 21.7876812,10.912 21.7256812,11.284 C21.6636812,11.718 21.6636812,12.152 21.7256812,13.02 C21.7256812,13.826 21.5396812,14.322 21.1676812,14.694 C20.7336812,15.128 20.1756812,15.252 19.2456812,15.252 L18.0056812,15.252 L17.8816812,15.252 C17.0756812,15.314 16.4556812,15.314 15.6496812,15.252 L15.4636812,15.252 L14.2856812,15.314 L12.9836812,15.314 C12.0536812,15.252 11.4956812,15.128 11.0616812,14.694 C10.5656812,14.26 10.3796812,13.702 10.3796812,12.772 L10.4416812,11.532 L10.3176812,10.106 C10.2556812,9.238 10.2556812,8.866 10.3176812,8.308 C10.3796812,7.998 10.3176812,7.75 10.3176812,7.378 C10.2556812,6.696 10.3176812,6.2 10.3796812,5.332 L10.3796812,5.208 L10.3176812,3.906 L10.3176812,2.666 C10.2556812,1.674 10.0696812,1.116 9.63568124,0.682 C9.20168124,0.248 8.58168124,0.062 7.65168124,0.124 L6.34968124,0.124 L5.17168124,0 L3.80768124,0.062 L2.62968124,0 C1.63768124,0 1.07968124,0.186 0.707681241,0.558 Z" id="Path"></path>
                <path d="M43.7356812,0.806 C43.3016812,1.302 43.1156812,1.86 43.1156812,2.728 L43.1156812,4.03 L43.2396812,5.394 L43.2396812,6.758 C43.3016812,7.626 43.4876812,8.184 43.9836812,8.68 C44.2316812,8.928 44.4796812,9.114 44.8516812,9.238 C45.5336812,9.424 46.1536812,9.362 46.9596812,9.424 L47.1456812,9.424 L48.3236812,9.362 L49.5636812,9.424 L50.8656812,9.424 L52.1056812,9.3 C52.9736812,9.3 53.4696812,9.486 53.9656812,9.982 C54.3996812,10.478 54.5856812,10.788 54.6476812,11.284 C54.6476812,11.78 54.6476812,12.09 54.5856812,12.462 C54.5236812,12.896 54.5856812,13.392 54.6476812,14.26 L54.5856812,15.624 L54.6476812,16.802 L54.6476812,17.98 L54.6476812,19.344 L54.7096812,20.584 L54.6476812,21.762 L54.6476812,22.94 L54.7716812,24.304 L54.8336812,25.42 C54.7716812,26.412 54.7716812,27.094 54.8336812,27.962 L54.8956812,29.264 L54.7716812,30.504 L54.7716812,31.744 L54.8956812,32.922 L54.8956812,34.1 L54.8956812,34.348 C54.9576812,35.216 54.8956812,35.774 54.8336812,36.58 L54.8336812,39.246 L54.7716812,40.548 C54.7096812,41.54 54.9576812,42.098 55.3916812,42.532 C55.8876812,42.966 56.6936812,43.276 58.2436812,43.338 L58.4296812,43.338 L63.4516812,43.4 C64.3816812,43.338 64.9396812,43.152 65.3736812,42.718 C65.8076812,42.284 65.9936812,41.664 65.9316812,40.796 L65.9316812,39.494 L65.9316812,38.378 L65.9316812,37.138 L65.9936812,35.836 L65.9936812,35.65 C65.9316812,34.782 65.9316812,34.286 65.9936812,33.418 L65.9936812,33.294 L65.9936812,31.992 L65.8696812,30.752 L65.9936812,28.21 L65.9936812,26.908 L65.9936812,25.73 L65.8696812,24.428 L65.9316812,23.25 L65.8696812,21.886 L65.9936812,20.708 L65.9936812,19.344 L65.9936812,16.926 L65.8696812,15.624 L65.9316812,14.384 L65.9316812,11.842 C66.0556812,10.974 66.3656812,10.354 66.8616812,9.858 C67.3576812,9.362 67.9156812,9.176 68.6596812,9.238 L71.2016812,9.238 L73.6816812,9.114 C74.6116812,9.114 75.1696812,8.928 75.6036812,8.494 C75.7896812,8.246 75.9756812,7.998 76.0376812,7.626 C76.1616812,6.882 76.0376812,6.51 76.0996812,6.014 C76.1616812,5.58 76.0996812,5.146 76.0376812,4.216 L76.0376812,2.976 C75.9756812,2.108 75.7896812,1.612 75.3556812,1.116 C74.9216812,0.682 74.3016812,0.434 73.4336812,0.31 L72.0076812,0.31 L70.7676812,0.186 L69.3416812,0.124 L68.0396812,0.124 L65.4976812,0.062 L64.3196812,0.124 L63.0796812,0.124 L61.8396812,0 L59.2976812,0 L59.1736812,0 C58.3676812,0.062 57.7476812,0.062 56.9416812,0 L56.7556812,0 L55.4536812,0 L53.0356812,0.124 L51.7336812,0.124 L50.5556812,0 L49.3156812,0 L48.0136812,0.124 L46.8356812,0.062 L45.5336812,0.062 C44.6656812,0.124 44.1076812,0.31 43.7356812,0.806 Z" id="Path"></path>
                <path d="M86.7636812,42.904 C87.1356812,43.338 87.6936812,43.524 88.5616812,43.462 C89.5536812,43.524 90.1736812,43.524 91.0416812,43.4 L93.5836812,43.4 L93.8936812,43.4 C95.5056812,43.462 96.3736812,43.338 96.8076812,42.904 C97.2416812,42.47 97.4276812,41.85 97.4276812,40.858 L97.2416812,39.618 L97.2416812,37.138 L97.3036812,35.774 L97.3036812,30.69 L97.1796812,29.45 L97.2416812,28.148 L97.1796812,26.97 L97.1796812,25.606 C97.2416812,24.8 97.2416812,24.18 97.1796812,23.188 L97.1796812,21.948 L97.2416812,20.708 L97.4896812,20.584 C97.6136812,20.522 97.8616812,20.894 98.2336812,21.514 L98.7296812,22.63 L99.2256812,23.808 L99.5356812,24.924 L100.031681,26.04 L100.031681,26.102 C100.465681,26.846 100.775681,27.28 101.085681,28.086 L101.147681,28.272 L101.953681,30.38 L102.573681,31.496 L103.007681,32.612 L103.007681,32.674 C103.379681,33.418 103.565681,33.976 103.875681,34.72 C103.999681,35.154 104.247681,35.526 104.433681,35.96 L104.929681,37.014 C105.363681,37.82 105.735681,38.254 106.293681,38.688 C106.851681,39.122 107.409681,39.308 108.215681,39.308 C109.021681,39.308 109.579681,39.184 110.199681,38.75 C110.757681,38.378 111.129681,37.944 111.501681,37.2 L111.997681,36.084 L112.555681,34.906 L113.175681,33.728 L113.733681,32.674 L114.167681,31.62 L114.663681,30.38 L115.159681,29.264 L115.717681,28.272 L116.337681,27.094 L116.895681,26.04 L117.329681,24.986 L117.825681,23.808 L118.383681,22.754 L119.003681,21.638 C119.313681,20.894 119.561681,20.522 119.747681,20.584 C119.933681,20.646 120.057681,21.142 120.057681,21.886 L119.995681,23.188 L119.933681,24.304 L120.057681,25.606 L120.057681,29.45 C119.995681,30.256 119.995681,30.876 120.057681,31.868 L119.995681,33.046 L119.995681,34.286 L119.933681,35.588 L119.933681,36.89 L119.871681,39.432 L119.809681,40.858 C119.809681,41.85 119.995681,42.408 120.429681,42.842 C120.863681,43.276 121.731681,43.462 123.281681,43.462 L124.769681,43.462 C125.761681,43.524 126.381681,43.524 127.249681,43.4 L127.621681,43.4 C129.171681,43.4 129.977681,43.276 130.473681,42.842 C130.907681,42.47 131.093681,41.912 131.031681,41.044 L130.969681,39.866 L131.031681,37.448 C130.969681,36.642 130.969681,36.084 131.031681,35.216 L131.031681,35.03 L131.093681,33.728 L131.093681,33.604 C131.031681,32.736 130.969681,32.24 131.031681,31.372 L131.031681,30.194 L131.093681,28.83 L131.155681,27.714 L131.217681,25.11 L131.155681,23.87 L131.155681,22.754 L131.217681,21.452 L131.155681,20.274 L131.217681,19.096 L131.217681,16.616 L131.341681,14.136 L131.279681,12.834 L131.217681,11.532 L131.155681,10.23 L131.217681,9.052 L131.093681,7.75 L131.031681,6.386 L130.969681,5.146 L131.031681,3.968 L131.031681,2.666 C130.969681,1.674 130.721681,1.116 130.287681,0.682 C129.853681,0.248 129.295681,0.124 128.551681,0.124 L127.373681,0.062 L126.009681,0.062 L125.947681,0.062 C125.141681,0.124 124.645681,0.124 124.273681,0.062 C123.839681,0 123.157681,0.062 121.793681,0.124 L121.359681,0.124 L120.739681,0.062 C120.305681,0 119.871681,0.186 119.251681,0.62 C118.631681,1.054 118.135681,1.612 117.763681,2.294 L117.205681,3.534 L116.585681,4.65 L116.027681,5.766 L115.531681,6.82 L114.911681,7.874 L113.237681,11.284 L112.617681,12.338 L112.121681,13.454 L111.563681,14.694 L110.881681,15.81 L110.323681,16.864 L109.765681,18.042 C109.393681,18.724 109.083681,19.034 108.711681,19.034 C108.339681,19.034 107.905681,18.724 107.533681,17.918 L106.975681,16.926 C106.727681,16.43 106.541681,15.996 106.293681,15.624 C105.921681,14.942 105.611681,14.446 105.301681,13.702 L105.177681,13.454 L104.681681,12.462 L104.185681,11.346 L103.503681,10.106 L103.069681,8.99 L102.511681,7.874 L102.449681,7.812 C102.015681,7.13 101.705681,6.572 101.395681,5.828 L101.333681,5.642 L100.837681,4.65 L100.155681,3.534 L99.5976812,2.294 C99.2876812,1.55 98.8536812,1.054 98.2336812,0.62 C97.6136812,0.186 96.9316812,0.062 96.1256812,0.124 L94.8856812,0.062 L93.5836812,0.062 L92.4676812,0.124 C91.9716812,0.062 91.5376812,0.062 91.1036812,0.062 C90.2976812,0.062 89.6776812,0.062 88.8716812,0 L88.6856812,0 C87.8176812,0 87.2596812,0.248 86.9496812,0.682 C86.5776812,1.24 86.3916812,2.046 86.3916812,3.534 L86.3916812,7.626 L86.2676812,8.928 L86.3296812,10.168 L86.3916812,11.284 L86.3296812,12.524 L86.2676812,13.888 L86.2676812,18.91 L86.2676812,18.972 C86.3296812,19.84 86.3296812,20.336 86.2676812,21.204 L86.2676812,21.328 L86.3296812,22.63 L86.3916812,23.87 L86.3296812,25.11 L86.3296812,26.474 L86.2676812,27.714 L86.3296812,28.83 L86.3296812,30.07 L86.2676812,31.372 L86.2676812,31.558 C86.3296812,32.426 86.3916812,32.86 86.3296812,33.232 C86.2676812,33.666 86.2676812,34.224 86.3296812,35.092 L86.3296812,37.572 L86.2676812,39.99 C86.2056812,40.92 86.1436812,41.416 86.2056812,41.788 C86.2056812,42.222 86.3916812,42.47 86.7636812,42.904 Z" id="Path"></path>
                <path d="M144.671681,0.62 C144.175681,1.054 143.989681,1.612 143.989681,2.48 L144.051681,3.844 L143.989681,5.084 L143.989681,6.2 L144.051681,7.564 L143.989681,8.742 L143.989681,9.982 L143.927681,11.222 L143.989681,12.4 L144.051681,13.764 L143.989681,14.942 L143.989681,16.182 L143.927681,17.422 L143.927681,18.662 C143.865681,19.53 143.927681,20.15 143.989681,21.08 L143.927681,22.444 L143.927681,23.622 L143.927681,26.102 L143.927681,27.404 C143.865681,27.838 143.865681,28.272 143.865681,28.644 C143.803681,29.45 143.803681,30.008 143.741681,30.876 L143.741681,31.062 L143.741681,32.364 L143.803681,33.48 L143.865681,34.72 L143.803681,36.084 L143.803681,37.2 L143.679681,39.68 L143.679681,40.052 C143.679681,41.602 143.865681,42.47 144.299681,42.904 C144.733681,43.338 145.229681,43.462 145.973681,43.4 C146.779681,43.338 147.213681,43.338 147.585681,43.4 C147.957681,43.462 148.639681,43.462 150.003681,43.4 C150.437681,43.338 150.933681,43.4 151.739681,43.462 L151.801681,43.462 L153.103681,43.462 L154.219681,43.4 L155.459681,43.462 L156.761681,43.4 L157.877681,43.4 L159.241681,43.462 L161.659681,43.524 L162.775681,43.462 L164.077681,43.462 L165.317681,43.648 L166.557681,43.648 C167.425681,43.586 167.921681,43.4 168.355681,42.966 C168.727681,42.594 168.913681,41.974 168.913681,41.044 L168.913681,39.742 L168.975681,38.44 L168.913681,37.138 C168.975681,36.27 168.789681,35.712 168.355681,35.216 C167.921681,34.72 167.053681,34.596 165.503681,34.596 L165.441681,34.596 L164.201681,34.534 L162.899681,34.658 L162.527681,34.658 C161.721681,34.596 161.163681,34.596 160.605681,34.596 C159.799681,34.596 159.179681,34.658 158.373681,34.596 L157.009681,34.534 C156.203681,34.534 155.707681,34.41 155.273681,33.976 C154.839681,33.604 154.653681,33.046 154.653681,32.116 L154.653681,31 L154.777681,29.76 L154.777681,28.582 L154.777681,28.334 C154.715681,27.466 154.715681,26.97 154.777681,26.102 L154.777681,25.916 L154.715681,24.738 L154.777681,23.374 L154.777681,20.894 L154.653681,19.716 L154.653681,17.112 C154.715681,16.244 154.777681,15.562 154.715681,14.694 L154.653681,13.392 L154.653681,12.152 C154.715681,11.222 154.715681,10.602 154.653681,9.672 L154.653681,8.37 L154.777681,7.192 L154.715681,4.65 C154.653681,3.844 154.715681,3.286 154.777681,2.48 C154.777681,1.674 154.591681,1.178 154.157681,0.744 C153.723681,0.372 153.165681,0.186 152.297681,0.186 L151.243681,0.124 L150.003681,0.186 L149.569681,0.186 C148.763681,0.124 148.143681,0.124 147.585681,0.124 C146.779681,0.124 146.283681,0.186 145.911681,0.124 C145.539681,0.062 145.105681,0.248 144.671681,0.62 Z" id="Path"></path>
            </g>
        </g>
    </g>
</svg>